<?xml version="1.0" encoding="utf-8"?>
<!-- Generator: Adobe Illustrator 19.1.0, SVG Export Plug-In . SVG Version: 6.00 Build 0)  -->
<svg version="1.1" id="Layer_1" xmlns="http://www.w3.org/2000/svg" xmlns:xlink="http://www.w3.org/1999/xlink" x="0px" y="0px"
	 viewBox="0 0 90 175" style="enable-background:new 0 0 90 175;" xml:space="preserve">
<style type="text/css">
	.st0{fill:#FFFFFF;}
</style>
<path class="st0" d="M65.5,2c11.1,0,19.2,1,20.1,1.1l1.7,0.2l-0.7,29.9l-1.9,0c-0.9,0-9.1-0.1-18-0.1c-8.5,0-9.9,3.1-9.9,10.6v16.7
	v2h2h28.7l-1.5,32H58.8h-2v2v76.3H23.2V96.3v-2h-2H2.5v-32h18.7h2v-2V40.2c0-9.9,3.3-19,9.4-25.7C40,6.2,51.1,2,65.5,2 M65.5,0
	C32.8,0,21.2,21.7,21.2,40.2v20.2H0.5v36h20.7v78.3h37.6h0V96.4h29.1l1.7-36H58.8V43.7c0-6.8,0.9-8.6,7.9-8.6c9.4,0,18,0.1,18,0.1
	l3.8,0l0.8-33.7l-3.5-0.5C85.5,1.1,77,0,65.5,0L65.5,0z"/>
</svg>
