<?xml version="1.0" encoding="utf-8"?>
<!-- Generator: Adobe Illustrator 19.1.0, SVG Export Plug-In . SVG Version: 6.00 Build 0)  -->
<svg version="1.1" id="Layer_1" xmlns="http://www.w3.org/2000/svg" xmlns:xlink="http://www.w3.org/1999/xlink" x="0px" y="0px"
	 viewBox="0 0 175 175" style="enable-background:new 0 0 175 175;" xml:space="preserve">
<style type="text/css">
	.st0{fill:#FFFFFF;}
</style>
<path class="st0" d="M141.9,0H33.1C15,0,0.1,14.8,0.1,33v108.7c0,18.2,14.9,33,33,33h108.7c18.2,0,33-14.8,33-33V33
	C174.9,14.8,160,0,141.9,0z M172.9,141.7c0,17.1-13.9,31-31,31H33.1c-17.1,0-31-13.9-31-31V33c0-17.1,13.9-31,31-31h108.7
	c17.1,0,31,13.9,31,31V141.7z M87.5,58.9C71.8,58.9,59,71.6,59,87.4s12.8,28.5,28.5,28.5S116,103.1,116,87.4S103.2,58.9,87.5,58.9z
	 M87.5,113.9C72.9,113.9,61,102,61,87.4c0-14.6,11.9-26.5,26.5-26.5S114,72.7,114,87.4C114,102,102.1,113.9,87.5,113.9z M87.5,32
	C57,32,32.1,56.8,32.1,87.4s24.8,55.4,55.4,55.4s55.4-24.8,55.4-55.4S118,32,87.5,32z M87.5,140.7c-29.4,0-53.4-23.9-53.4-53.4
	S58.1,34,87.5,34s53.4,23.9,53.4,53.4S116.9,140.7,87.5,140.7z M143.6,20.9c-6.5,0-11.7,5.3-11.7,11.7c0,6.5,5.3,11.7,11.7,11.7
	c6.5,0,11.7-5.3,11.7-11.7C155.3,26.1,150,20.9,143.6,20.9z M143.6,42.3c-5.4,0-9.7-4.4-9.7-9.7s4.4-9.7,9.7-9.7s9.7,4.4,9.7,9.7
	S148.9,42.3,143.6,42.3z"/>
</svg>
