<?xml version="1.0" encoding="utf-8"?>
<!-- Generator: Adobe Illustrator 19.1.0, SVG Export Plug-In . SVG Version: 6.00 Build 0)  -->
<svg version="1.1" id="Layer_1" xmlns="http://www.w3.org/2000/svg" xmlns:xlink="http://www.w3.org/1999/xlink" x="0px" y="0px"
	 viewBox="0 0 225 175" style="enable-background:new 0 0 225 175;" xml:space="preserve">
<style type="text/css">
	.st0{fill:none;stroke:#FFFFFF;stroke-width:2;stroke-miterlimit:10;}
</style>
<path class="st0" d="M77.8,173.9c-21.3,0-42.4-5.9-61.1-17L3.4,149l15.5,0.3c0.5,0,1.3,0.1,2.6,0.1c5.9,0,24.7-0.9,43.9-11.7
	c-14.5-4.3-26.4-15.4-31.3-30l-2.4-7.2l6.6,1.7C27.6,94,20.7,81.5,19.9,67.5l-0.4-6.7l6.2,2.7c1.1,0.5,2.3,0.9,3.4,1.3
	c-8.7-12.2-14-31-3-51l3-5.5l3.9,5c18.5,23.8,46,38.3,75.9,40.3c-0.2-1.8-0.3-3.6-0.3-4.1c0-22.1,16.9-45,45.2-45
	c11.9,0,23.3,4.7,31.7,13c11.3-2.6,22.1-9.2,22.2-9.3l9.8-6l-3.7,10.8c-1.8,5.2-4.5,10-7.9,14.1c1.9-0.6,3.7-1.3,5.7-2.1l11.7-5.7
	l-4.9,10.5c-4.1,8.7-10.9,15.9-19.3,20.5c1.9,28.8-10.1,61-31.5,84.6c-15.9,17.5-44.3,38.5-88.9,38.8L77.8,173.9z M34.3,156.6"/>
</svg>
