<?xml version="1.0" encoding="iso-8859-1"?>
<!-- Generator: Adobe Illustrator 19.1.0, SVG Export Plug-In . SVG Version: 6.00 Build 0)  -->
<svg version="1.1" id="_x2018_&#xEB;&#xEE;&#xE9;_x5F_1"
	 xmlns="http://www.w3.org/2000/svg" xmlns:xlink="http://www.w3.org/1999/xlink" x="0px" y="0px" viewBox="0 0 225.329 403.203"
	 style="enable-background:new 0 0 225.329 403.203;" xml:space="preserve">
<g>
	<path style="fill:#3F6273;" d="M89.341,360.5c0.708-0.138,1.428-0.163,2.142-0.236c0.401,0.126,0.799,0.267,1.203,0.377
		c0.885,0.241,1.766,0.589,2.66,0.672c1.424,0.131,2.122-0.579,2.512-2.48c0.194-0.949,0.272-1.959,0.302-2.946
		c0.044-1.439-0.009-2.884-0.009-4.326c0-0.601,0.14-1.121,0.672-1.1c2.543,0.102,4.846-1.086,7.148-2.324
		c1.92-1.033,3.868-1.764,5.99-1.736c1.83,0.024,3.175-1.003,3.947-2.916c3.259,1.059,6.581,1.67,10.033,1.729
		c3.859,0.066,5.505-4.223,4.956-7.938c3.202-1.998,6.389-4.037,9.564-6.113c2.593-1.696,5.17-3.45,7.684-5.348
		c1.793-1.354,3.458-3.012,5.197-4.498c1.874-1.602,3.049-3.819,3.888-6.618c2.748-9.162,5.409-18.353,7.143-27.977
		c1.504-8.343,2.376-16.792,2.152-25.395c-0.012-0.445-0.039-0.889-0.055-1.334c1.41-3.242,3.264-6.256,5.39-8.711
		c0.382,0.607,0.762,1.217,1.133,1.837c1.859,3.11,3.672,6.268,5.506,9.404c2.142,3.661,4.347,7.249,6.853,10.478
		c2.268,2.923,4.669,5.609,7.533,7.443c0.254,0.458,0.568,0.744,1.016,0.647c0.143,0.028,0.276,0.092,0.399,0.192
		c0.126,0.351,0.325,0.516,0.618,0.443c0.137,0.027,0.264,0.089,0.383,0.185c0.144,0.32,0.34,0.505,0.631,0.441
		c4.103,2.296,8.181,4.676,12.313,6.872c5.684,3.022,11.386,5.984,17.082,8.967c-3.454,19.135-8.679,37.881-14.544,55.861
		c-1.062,3.256-2.157,6.504-3.284,9.739c-0.404,0.174-0.808,0.476-1.199,0.942c-0.545,0.649-0.775,1.419-0.569,2.353
		c0.076,0.343,0.159,0.683,0.239,1.025c-0.707,1.968-1.43,3.93-2.163,5.886c-0.478,0.171-0.974,0.288-1.475,0.369
		c-1.999,0.324-3.83,1.189-5.621,2.354c-4.222,2.746-8.453,5.467-12.785,7.896c-5.335,2.991-10.795,5.394-16.535,6.495
		c-0.763,0.146-1.397,0.595-2.058,1.044c-1.772,1.203-3.608,2.155-5.6,2.453c-0.425-0.216-0.805-0.173-1.099,0.353
		c-0.319,0.064-0.637,0.128-0.956,0.192c-0.634-0.889-0.562-2.014-0.622-3.123c-0.094-1.751-0.716-2.319-1.98-1.898
		c-0.478,0.159-0.948,0.377-1.409,0.61c-1.656,0.836-2.771,2.333-3.126,4.731c-0.113,0.76-0.214,1.522-0.321,2.283
		c-0.812,0.254-1.624,0.508-2.436,0.762c-0.407-0.161-0.773-0.127-1.039,0.391c-0.319,0.086-0.638,0.172-0.957,0.259
		c-0.398-0.16-0.758-0.13-1.023,0.372c-0.325,0.092-0.649,0.184-0.974,0.277c-0.568-0.177-1.093-0.14-1.493,0.532
		c-0.306,0.072-0.611,0.143-0.917,0.215c-0.448-0.136-0.849-0.011-1.197,0.399c-0.936-0.134-1.736-0.651-2.391-1.563
		c-0.517-0.72-0.559-1.58-0.129-2.407c0.482-0.927,1.176-1.536,1.822-2.221c1.25-1.324,2.229-2.95,2.923-4.876
		c0.347-0.962,0.095-1.699-0.623-2.126c-0.625-0.372-1.279-0.435-1.936-0.421c-0.987,0.021-1.12-0.534-1.047-1.648
		c0.132-2.04,0.801-3.82,1.501-5.587c0.736-1.858,1.497-3.701,2.162-5.605c0.602-1.726,0.903-3.571,0.704-5.5
		c-0.077-0.748-0.42-1.163-0.992-1.221c-0.921-0.092-1.788,0.14-2.657,0.577c-0.999,0.502-2.027,0.935-3.066,1.251
		c-1.859,0.564-4.905,2.217-6.769,3.804c2.572,2.569,2.842,3.06,3.993,7.218c0.201,0.727,0.406,1.452,0.619,2.173
		c0.465,1.575,1.09,3.03,2.193,3.916c0.875,0.703,0.983,1.664,0.827,2.847c-0.28,2.119-0.965,3.987-1.894,5.72
		c-1.204,2.244-2.642,4.264-3.547,6.794c-0.386,1.08-1.141,1.157-1.913,1.106c-2.271-0.815-3.402-2.762-3.523-5.966
		c-0.164-4.343-1.084-8.462-2.301-12.478c-0.805-2.658-1.555-5.35-2.261-8.059c-0.351-1.347-0.579-2.758-0.806-4.157
		c-0.538-3.321-1.748-4.76-4.233-4.8c-1.473-0.024-2.96-0.161-4.413,0.351c-0.243-0.028-0.488-0.042-0.73-0.087
		c-1.18-0.221-1.954-1.61-3.05-1.991c-1.162-0.404-2.431-0.214-3.482-1.254c-0.32-0.317-0.734-0.467-1.113-0.668
		c-1.945-1.033-3.814-1.018-5.556,0.743c-0.193,0.195-0.42,0.329-0.632,0.491c-0.281-0.14-0.493-0.025-0.643,0.319
		c-0.175,0.046-0.351,0.091-0.526,0.137c-1.451,0.154-2.902,0.253-4.354,0.037l-0.008-0.016c-0.041-0.447-0.234-0.627-0.558-0.576
		c-0.473-0.273-0.945-0.546-1.418-0.82c-0.513-0.482-1.048-0.928-1.531-1.459c-0.316-0.348-0.498-0.858-0.355-1.44
		C88.61,360.944,88.937,360.578,89.341,360.5z"/>
	<path style="fill:#3F6273;" d="M43.66,220.548c-0.315,0.34-0.628,0.682-0.942,1.022c0.051,0.502,0.212,0.899,0.781,0.988
		c1.162,0.181,2.153-0.088,2.787-1.165c0.805-1.37,1.954-2.418,3.107-3.44c1.27-1.127,2.699-0.65,3.213,0.993
		c0.137,0.439,0.169,0.919,0.204,1.384c0.077,1.032,0.422,1.981,0.803,2.923c0.296,0.731,0.77,1.143,1.597,0.997
		c0.785-0.138,1.508,0.119,2.243,0.369c2.4,0.817,4.809,1.603,7.215,2.398c0.364,0.12,0.742,0.204,1.094,0.352
		c1.052,0.442,1.79,1.134,1.982,2.373c0.131,0.846,0.369,1.669,0.412,2.54c0.052,1.06,0.454,2.03,1.356,2.598
		c0.872,0.549,1.065,1.258,0.854,2.19c0.3,0.868,0.643,1.724,0.889,2.608c0.418,1.499,0.258,2.898-0.885,4.057
		c-0.013,0.853,0.031,1.712-0.052,2.557c-0.123,1.244,0.079,2.32,1.117,3.117c0.241,0.185,0.444,0.426,0.649,0.656
		c2.032,2.276,3.502,4.842,4.239,7.874c0.354,1.454,0.294,2.932,0.585,4.373c0.405,2.006,0.388,4.01,0.062,6.021
		c0.082,1.31,0.224,2.619,0.227,3.929c0.002,0.909-0.871,1.499-1.755,1.322c-0.911-0.183-1.515-0.781-1.73-1.656
		c-0.238-0.97-0.39-1.977-0.444-2.975c-0.071-1.313-0.011-2.633-0.007-3.95c0.098-3.05-0.823-5.801-2.27-8.428
		c-1.68-3.052-3.739-5.876-5.197-9.06c-0.189-0.414-0.577-0.462-0.954-0.527c-1.035,0.637-1.274,1.667-1.308,2.79
		c-0.045,1.484,0.285,2.915,0.575,4.356c0.211,1.049,0.769,2.034,0.589,3.159c0.276,0.165,0.418,0.421,0.54,0.72
		c1.349,3.311,2.629,6.655,4.1,9.909c0.849,1.879,1.474,3.755,1.432,5.829c-0.018,0.879,0.27,1.423,1.175,1.705
		c1.506,0.468,2.419,1.502,2.642,3.184c0.1,0.752,0.444,1.493,0.784,2.185c0.495,1.009,1.349,1.27,2.292,0.737
		c0.599-0.339,1.142-0.78,1.722-1.157c0.427-0.278,0.886-0.019,0.978,0.52c0.121,0.715,0.041,1.392-0.288,2.045
		c-0.67,1.331-0.964,2.79-1.326,4.221c-0.439,1.733-0.202,3.311,2.257,4.135c0.503,0.169,1.025,0.302,1.548,0.385
		c0.986,0.156,1.939,0.405,2.843,0.838c1.019-1.031,2.403-1.303,3.667-1.815c0.448-0.181,0.902,0.023,1.368,0.222
		c0.168,0.817,0.354,1.655,0.508,2.498c0.115,0.63,0.395,1.176,0.713,1.717c0.534,0.91,1.824,0.982,2.688,0.667
		c0.319-0.116,0.429-0.418,0.546-0.706c0.471-1.155,0.94-2.311,1.414-3.465c0.23-0.56,0.621-0.849,1.243-0.82
		c0.681,0.032,1.327,0.028,2.01,0.298c2.7,1.066,5.527,1.189,8.377,0.892c0.834-0.087,1.658-0.259,2.4-0.731
		c4.313-2.743,8.999-4.675,13.709-6.549c2.564-1.02,5.137-2.018,7.685-3.018c0.615,0.499,0.254,1.04,0.131,1.515
		c-1.18,4.533-2.384,9.06-3.58,13.589c-0.911,3.45-1.715,6.924-2.222,10.463c0.771,0.189,1.547,0.355,2.332,0.489
		c2.248-8.786,4.508-17.568,6.701-26.368c0.328-1.315,0.926-2.194,1.995-2.961c4.268-3.059,8.487-6.19,12.716-9.308
		c3.604-2.657,6.647-5.844,9.304-9.403c0.925-3.297,2.539-6.553,4.649-9.508c0-0.002,0-0.004-0.001-0.006
		c-0.22-0.982,0.268-1.637,0.936-2.228c0.574-0.507,1.005-1.184,1.816-1.56c0.083,0.051,0.157,0.109,0.237,0.162
		c0.647-0.687,1.318-1.348,2.015-1.975c-1.438-0.789-2.085-2.113-2.214-3.735c-0.13-1.638-0.216-3.277-0.096-4.923
		c0.085-1.17,0.117-2.344,0.135-3.518c0.022-1.353-0.234-2.645-0.955-3.808c-0.979,0.001-1.766,0.553-2.51,1.065
		c-1.344,0.924-2.836,1.545-4.227,2.364c-1.849,1.088-3.942,1.159-5.942,1.618c-0.462,0.106-0.901-0.097-1.324-0.298
		c-1.326-0.631-2.54-2.685-2.491-4.207c0.016-0.49,0.143-0.928,0.501-1.266c0.335-0.317,0.708-0.596,1.019-0.934
		c0.158-0.172,0.151-0.457-0.055-0.62c-0.236-0.187-0.51-0.325-0.771-0.478c-0.727-0.427-0.88-0.722-0.8-1.456
		c0.084-0.771,0.413-1.425,1.177-1.545c0.906-0.143,1.065-0.723,1.166-1.468c0.084-0.617,0.321-1.221,0.344-1.837
		c0.095-2.505,0.552-4.954,0.94-7.419c0.705-4.47,1.613-8.895,2.591-13.308c0.244-1.099,0.582-2.044,1.518-2.77
		c1.018-0.79,1.599-1.933,1.536-3.266c-0.121-2.551,0.826-4.685,2.125-6.793c2.075-3.367,3.086-7.143,3.365-11.084
		c0.336-4.753,0.181-5.238-1.782-9.732c-0.062-0.143-0.143-0.281-0.183-0.43c-0.36-1.323-1.02-2.405-2.193-3.16
		c-0.368-0.236-0.657-0.668-0.874-1.071c-0.657-1.225-1.26-2.479-1.884-3.722c-0.974-0.797-2.076-1.317-3.302-1.54
		c-0.835-0.152-1.673-0.053-2.514,0.015c-1.609,0.129-2.784-1.03-2.736-2.666c0.011-0.384,0.106-0.77,0.195-1.147
		c0.214-0.91,0.447-1.816,0.672-2.723c-0.018-0.7-0.064-1.401-0.045-2.1c0.012-0.45,0.283-0.715,0.75-0.638
		c1.354,0.224,2.706,0.461,4.057,0.701c1.58,0.28,2.611-0.466,3.389-1.798c1.355-2.323,2.178-4.846,2.299-7.517
		c0.144-3.196,0.084-6.406,0-9.607c-0.063-2.412-0.831-3.383-3.069-4.043c-0.714-0.21-1.235-0.542-1.669-1.118
		c-1.159-1.536-2.331-3.063-3.497-4.593c-1.382-1.377-3.078-2.317-4.625-3.464c-0.445-0.33-0.936-0.508-1.498-0.508
		c-4.799,0-9.417-1.21-14.037-2.313c-4.098-0.978-8.198-0.978-12.338-0.533c-2.058,0.221-4.118,0.445-6.184,0.57
		c-2.937,0.179-5.812-0.198-8.587-1.25c-0.426-0.162-0.867-0.348-1.31-0.381c-0.562-0.041-1.063,0.245-1.333,0.761
		c-0.273,0.522,0.119,0.906,0.451,1.197c1.164,1.021,2.365,1.953,3.927,2.333c1.486,0.362,2.947,0.855,4.388,1.381
		c2.356,0.86,4.354,2.269,5.96,4.251c1.084,1.337,1.51,2.727,0.441,4.27c-0.287,0.415-0.383,0.837-0.317,1.322
		c0.141,1.032-0.342,1.813-0.983,2.526c-0.881,0.98-1.847,1.9-1.851,3.391c-0.001,0.348-0.338,0.477-0.631,0.595
		c-0.713,0.286-1.415,0.6-2.131,0.875c-1.06,0.407-1.421,0.313-1.973-0.458c-0.605-0.846-0.598-1.501,0.108-2.32
		c0.403-0.468,0.888-0.862,1.331-1.294c0.389-0.38,0.834-0.759,0.938-1.309c0.327-1.722,1.558-2.359,3.02-2.776
		c0.95-0.271,1.119-0.616,0.723-1.477c-0.868-1.886-2.159-3.405-3.859-4.563c-1.751-1.193-3.709-1.838-5.742-2.289
		c-1.004-0.223-1.987,0.003-2.965,0.178c-1.442,0.257-2.855,0.341-4.318,0.008c-1.201-0.273-2.44,0.008-3.634,0.305
		c-0.694,0.172-0.936,0.691-0.669,1.443c0.574,1.617,1.203,3.208,1.549,4.908c0.718,3.523,0.515,7.034-0.215,10.498
		c-0.903,4.283-1.968,8.53-3,12.783c-0.238,0.981-0.63,1.923-0.951,2.883c0.389,0.303,0.605,0.753,0.67,1.199
		c0.351,2.403,1.76,4.152,3.461,5.636c1.677,1.463,3.503,2.752,5.287,4.084c0.809,0.605,1.602,1.223,2.175,2.067
		c0.692,1.02,0.533,2.079-0.023,3.1c-0.52,0.955-1.336,1.308-2.523,1.136c-1.294-0.187-2.544-0.497-3.71-1.144
		c-1.278-0.709-2.617-1.306-3.881-2.038c-1.316-0.762-2.691-1.079-4.185-0.933c-0.457,0.045-0.916,0.064-1.375,0.095
		c-0.53,0.561-1.048,1.135-1.594,1.679c-0.611,0.608-1.307,1.026-2.181,1.197c-1.122,0.22-2.233,0.539-3.246,1.114
		c-1.828,1.037-2.252,2.409-1.232,4.299c0.438,0.812,1.071,1.513,1.603,2.273c0.309,0.441,0.662,0.869,0.876,1.357
		c0.372,0.849,0.117,1.746-0.614,2.289c-0.226,0.168-0.611,0.333-0.832,0.248c-1.002-0.384-1.948-0.898-2.451-1.943
		c-0.201-0.418-0.303-0.884-0.483-1.313c-1.352-3.223-3.848-4.745-7.18-4.914c-1.658-0.084-3.011,0.625-3.776,2.167
		c-0.69,1.389-1.25,2.844-1.852,4.278c-0.14,0.333,0.041,0.62,0.296,0.801c0.824,0.584,1.706,1.038,2.732,1.11
		c1.94-0.031,3.88-0.068,5.82-0.087c0.438-0.004,0.913-0.042,1.168,0.463c-0.687,2.597-0.653,5.185-0.089,7.813
		c0.372,1.736,0.698,3.503,0.499,5.307c0.556,1.711,1.474,2.967,3.462,2.89c0.315-0.012,0.572,0.122,0.769,0.375
		c0.608,0.124,0.975,0.57,1.324,1.039c1.448-0.016,2.897-0.018,4.344-0.054c0.862-0.022,1.667,0.129,2.402,0.606
		c0.663,0.431,0.889,1.188,0.361,1.791c-0.962,1.098-1.917,2.269-3.09,3.085c-0.945,0.657-2.226,0.162-3.358,0.134
		c-0.293-0.007-0.583-0.159-0.874-0.244c-1.752,0.13-1.868,0.066-2.511-1.382c-0.09-0.202-0.16-0.413-0.239-0.62
		c-0.298-0.061-0.594-0.141-0.896-0.18c-1.668-0.218-2.83-1.029-3.213-2.793c-0.03-0.139-0.171-0.253-0.261-0.379
		c-0.754-0.118-1.506-0.329-2.261-0.337c-1.793-0.02-2.652,0.854-2.835,2.663c-0.061,0.602,0.327,1.36-0.218,1.779
		c-0.654,0.502-1.461,0.149-2.202,0.022c-0.601-0.103-1.199-0.263-1.804-0.288c-1.14-0.048-1.885,0.308-2.08,1.409
		c-0.277,1.56-1.207,1.876-2.502,2.105c-2.951,0.522-5.746,1.593-8.45,2.889c-2.351,1.127-4.662,2.34-7.018,3.456
		c-0.815,0.386-1.137,0.937-1.068,1.817c0.03,0.387-0.014,0.78-0.035,1.17c-0.067,1.21,0.47,2.1,1.412,2.769
		c0.313,0.223,0.636,0.433,0.969,0.624c1.189,0.681,1.333,1.775,0.737,3.021C44.9,219.161,44.293,219.866,43.66,220.548z
		 M120.508,129.253c0.279-0.107,0.558-0.306,0.838-0.308c1.752-0.008,3.504,0.028,5.256,0.05c0.589-0.051,1,0.34,1.447,0.627
		c0.431,0.276,1.1,0.434,0.988,1.111c-0.096,0.581-0.681,0.799-1.16,1.047c-0.558,0.289-1.15,0.429-1.773,0.434
		c-0.613,0.005-1.227,0.017-1.84-0.003c-1.164-0.037-2.263,0.12-3.344,0.651c-1.187,0.582-2.535,0.472-3.819,0.6
		c-0.544,0.054-1.06-0.186-1.491-0.533c-0.802-0.647-0.8-1.116-0.155-1.721C116.883,129.867,118.625,129.372,120.508,129.253z
		 M117.256,135.957c0.752-1.198,2.469-1.809,3.609-1.11c2.026,1.242,3.979,2.607,6.203,4.079c-0.54,0.358-0.801,0.518-1.049,0.697
		c-0.959,0.696-1.938,0.751-3.021,0.26c-1.255-0.569-2.572-0.996-3.828-1.563c-0.621-0.28-1.187-0.708-1.74-1.122
		C117.012,136.887,116.979,136.399,117.256,135.957z M145.294,133.073c-1.583-1.02-3.286-1.638-5.056-2.127
		c-0.516-0.143-1.081-0.156-1.457-0.597c-0.797-0.935-1.844-0.981-2.937-0.943c-0.839,0.029-1.689,0.085-2.517-0.017
		c-0.727-0.09-1.566-0.174-1.762-1.172c-0.657-0.275-1.346-0.208-2.029-0.199c-1.208,0.015-2.387,0.143-3.405-0.89
		c-0.425-0.431-1.267-0.443-1.926-0.619c-0.735-0.196-1.496-0.308-2.213-0.553c-0.777-0.265-1.278-0.845-1.322-1.722
		c-0.082-1.614,0.949-3.032,2.476-3.491c0.826-0.248,1.661-0.261,2.487-0.106c1.811,0.34,3.634,0.334,5.461,0.31
		c2.314-0.269,4.568-0.03,6.737,0.867c1.009,0.418,2.057,0.608,3.136,0.561c0.97-0.042,1.804,0.318,2.573,0.844
		c1.987,1.357,3.753,2.925,4.725,5.249c0.33,0.788,0.751,1.536,1.13,2.302c0.589,1.191,0.964,2.461,1.308,3.74
		c0.199,0.742-0.083,0.973-0.859,0.75C148.208,134.789,146.706,133.983,145.294,133.073z M112.323,173.574
		c-0.007-4.069,0.032-8.139,0.061-12.208c0.003-0.389,0.046-0.781,0.106-1.166c0.05-0.324,0.233-0.599,0.563-0.655
		c1.226-0.209,2.509-0.358,3.539,0.474c1.078,0.872,2.285,1.184,3.58,1.405c1.054,0.18,2.086,0.493,3.135,0.71
		c4.117,0.849,8.175,2.074,12.453,1.864c1.202-0.059,2.547-0.526,3.596,0.148c1.005,0.646,1.735,1.739,2.586,2.635
		c3.523-0.506,7.027-0.294,10.505,0.371c1.677,0.321,2.931,1.318,3.671,2.913c0.395,0.852,0.722,1.754,0.748,2.696
		c0.059,2.114,0.04,4.231,0.047,6.347c0.002,0.502-0.19,0.845-0.659,1.118c-1.82,1.057-3,2.865-4.597,4.193
		c-0.341,0.283-0.555,0.745-0.778,1.152c-0.838,1.529-1.32,3.148-1.277,4.93c0.107,4.463-0.246,8.887-0.842,13.317
		c-0.605,4.5-1.593,8.905-2.565,13.32c-0.251,1.142-0.571,2.275-0.951,3.379c-0.277,0.804-0.605,1.675-1.739,1.498
		c-0.16,0.341-0.256,0.776-0.696,0.823c-0.279,0.03-0.63-0.003-0.85-0.157c-0.932-0.651-1.847-1.331-2.729-2.05
		c-1.029-0.839-1.493-1.911-1.083-3.266c-0.517-0.035-0.803-0.425-1.079-0.784c-2.493-3.24-4.988-6.479-7.454-9.74
		c-1.873-2.477-3.855-4.811-6.563-6.406c-1.051-0.619-2.043-1.371-2.97-2.174c-2.815-2.438-4.09-5.52-3.532-9.31
		c-0.289-0.548-0.567-1.102-0.87-1.642c-1.153-2.049-2.004-4.216-2.511-6.525C112.647,178.41,112.328,176.007,112.323,173.574z
		 M110.911,139.818c0.073-0.609,0.507-0.962,1.108-0.996c1.745-0.099,3.123,0.592,4.073,2.097c0.538,0.851,1.035,1.73,1.527,2.609
		c0.76,1.356,1.946,2.172,3.316,2.74c1.424,0.59,2.885,1.003,4.452,0.926c1.068-0.053,2.139-0.05,3.209-0.042
		c0.756,0.006,1.535-0.122,2.246,0.28c1.426-0.421,2.895-0.009,4.334-0.24c1.853-0.298,3.657-0.232,5.324,0.819
		c0.479,0.302,0.906,0.047,1.168-0.379c0.24-0.39,0.377-0.845,0.571-1.266c0.194-0.421,0.347-0.879,0.62-1.242
		c0.286-0.381,0.746-0.567,1.229-0.447c0.396,0.098,0.618,0.423,0.74,0.818c0.756,2.459,0.495,4.803-0.866,6.97
		c-1.381,2.198-3.174,4.006-5.301,5.452c-0.764,0.52-1.62,0.857-2.501,1.147c-1.562,0.513-3.166,0.535-4.771,0.507
		c-1.683-0.029-3.369-0.086-5.044-0.246c-1.21-0.116-2.486,0.388-3.612-0.182c-1.088-0.551-2.056-1.346-3.077-2.035
		c-0.076-0.011-0.174,0.005-0.224-0.038c-2.806-2.435-5.319-5.142-7.201-8.397C110.637,145.915,110.544,142.891,110.911,139.818z
		 M94.397,193.456c-0.961,0.013-1.77-0.46-2.62-0.809c-0.508,0.339-0.998,0.711-1.527,1.011c-0.797,0.452-1.467,0.236-1.881-0.638
		c-0.823-1.737-0.748-3.458,0.241-5.11c0.369-0.617,0.925-0.73,1.575-0.33c0.583,0.36,1.137,0.77,1.704,1.158
		c0.763-0.055,1.528-0.177,2.288-0.15c1.046,0.037,1.879,0.876,1.989,1.919c0.066,0.624,0.049,1.252-0.179,1.854
		C95.703,193.111,95.201,193.445,94.397,193.456z M88.357,264.862c0.052-0.802,0.481-1.265,1.29-1.371
		c0.226-0.03,0.456-0.025,0.992-0.052c0.652-0.067,1.465,0.356,2.307,0.739c1.176,0.535,1.997,1.831,1.73,3.719
		c-0.128,0.902-0.797,1.513-1.698,1.62C90.548,269.805,88.192,267.431,88.357,264.862z M90.079,252.061
		c0.279-0.144,0.546-0.26,0.853-0.083c1.04,0.598,1.541,1.573,1.374,2.685c-0.104,0.689-0.207,1.378-0.316,2.066
		c-0.238,1.514-0.889,2.802-2.039,3.8c-0.225,0.195-0.501,0.362-0.781,0.449c-0.305,0.094-0.667-0.004-0.727-0.359
		c-0.244-1.448-0.441-2.905-0.655-4.359C87.611,254.31,88.391,252.935,90.079,252.061z M79.029,257.52
		c0.016-0.07,0.071-0.455,0.197-0.813c0.243-0.693,0.879-0.835,1.44-0.324c1.027,0.936,1.838,2.064,2.593,3.226
		c0.715,1.102,0.587,2.192-0.192,3.232c-0.538,0.718-1.057,0.675-1.439-0.221c-0.463-1.087-1.185-1.979-1.897-2.884
		C79.288,259.174,78.967,258.58,79.029,257.52z M73.851,233.668c1.754-1.055,3.226-0.263,3.302,1.783
		c0.017,0.466,0.012,0.937-0.035,1.4c-0.162,1.568-0.026,3.107,0.363,4.627c0.292,0.03,0.618-0.012,0.867,0.109
		c0.333,0.162,0.611,0.446,0.906,0.687c1.149,0.939,2.379,1.332,3.793,0.628c0.198-0.099,0.44-0.105,0.661-0.154
		c0.271-1.063,0.365-2.132,0.216-3.232c-0.085-0.624,0-1.262,0.449-1.75c0.512-0.557,1.158-0.705,1.878-0.502
		c0.29,1.694,0.348,5.162,0.095,6.459c-0.028,0.145-0.14,0.274-0.213,0.41c0.173,0.145,0.454,0.26,0.502,0.44
		c0.635,2.397-0.49,5.645-3.762,6.085c-0.634,0.085-1.195-0.02-1.584-0.662c-0.84-1.389-2.125-2.216-3.569-2.827
		c-0.423-0.179-0.829-0.404-1.233-0.627c-1.159-0.641-1.854-1.592-1.871-2.984c-0.08-0.773-0.336-1.588-0.048-2.314
		c0.584-1.474,0.054-2.731-0.506-4.024c-0.307-0.709-0.616-1.426-0.822-2.169C73.083,234.484,73.332,233.98,73.851,233.668z
		 M63.265,210.674c1.136-0.094,2.267-0.258,3.4-0.392c0.045-0.55,0.337-0.841,0.876-0.852c1.368-0.027,2.741,0.014,4.104-0.086
		c1.286-0.095,2.388,0.251,3.386,1.049c0.97,0.775,2.014,1.387,3.279,1.481c2.429,0.018,4.85-0.056,7.219-0.688
		c0.158-0.26,0.37-0.322,0.637-0.179c0.167,0.061,0.334,0.122,0.502,0.183c1.943-0.54,3.925-0.257,5.892-0.288
		c0.54-0.009,0.797,0.412,0.963,0.856c0.72,1.936-0.409,3.887-2.446,4.065c-1.433,0.125-2.887,0.136-4.324-0.093
		c-3.549,0.258-7.096,0.149-10.643-0.041c-1.261,0.468-2.576,0.366-3.845,0.194c-1.101-0.149-2.256-0.425-2.877-1.589
		c-1.036,0.369-2.112,0.186-3.171,0.229c-1.629,0.066-2.563-1.139-3.615-2.113c-0.099-0.092-0.12-0.282-0.157-0.431
		C62.281,211.305,62.453,210.741,63.265,210.674z"/>
	<path style="fill:#3F6273;" d="M162.24,53.845c0.948-0.42,1.797-0.222,2.473,0.571c0.298,0.35,0.527,0.761,0.787,1.145
		c0.217,0.32,0.424,0.648,0.649,0.962c0.514,0.714,1.147,1.408,2.064,1.116c0.797-0.254,0.947-1.156,1.089-1.925
		c0.244-1.318-0.225-2.495-0.924-3.525c-0.822-1.211-1.795-2.314-2.709-3.459c-0.415-0.519-0.955-0.752-1.615-0.693
		c-0.228,0.02-0.459,0-0.686,0.029c-1.659,0.211-3.318,0.429-4.977,0.647c-1.506,0.197-2.946,0.565-4.36,1.2
		c-1.534,0.689-3.238,0.802-4.915,0.88c-1.316-0.412-2.652-0.774-3.722-1.74c-1.672-1.508-3.578-2.03-5.755-1.423
		c-0.294,0.082-0.603,0.13-0.907,0.149c-1.339,0.081-2.592-0.179-3.68-1.036c-0.243-0.191-0.478-0.392-0.716-0.59
		c-1.329-1.106-2.771-1.218-4.302-0.5c-0.348,0.163-0.699,0.322-1.029,0.518c-0.386,0.23-0.741,0.133-1.073-0.077
		c-0.324-0.205-0.646-0.428-0.923-0.694c-1.828-1.751-4.07-2.428-6.493-2.614c-1.91-0.147-3.822-0.276-5.736-0.367
		c-2.009-0.095-3.954-0.441-5.789-1.317c-0.63-0.301-1.294-0.461-1.983-0.565c-3.711-0.56-7.419-1.143-11.129-1.716
		c-5.749-0.889-11.437-0.868-17.046,0.989c-1.815,0.601-3.702,0.998-5.578,1.375c-4.63,0.93-9.277,1.178-13.899-0.035
		c-0.762-0.2-1.298,0.027-1.943,0.33c-1.957,0.92-2.838,2.529-3.031,4.623c-0.057,0.622-0.07,1.251-0.066,1.876
		c0.016,2.661,0.055,5.321,0.064,7.982c0.003,0.781-0.006,1.572-0.118,2.342c-0.194,1.339-0.632,2.578-1.773,3.419
		c-0.907-0.205-1.739-0.588-2.432-1.219c-1.264-1.152-2.637-1.447-4.186-0.669c-0.964-0.537-1.176-1.576-1.565-2.487
		c-1.174-2.75-1.65-2.953-4.29-1.768c-0.471-0.256-0.548-0.705-0.562-1.188c-0.014-0.467-0.006-0.937-0.056-1.401
		c-0.071-0.65-0.385-0.994-1.011-1.073c-0.528-0.067-1.065-0.071-1.598-0.076c-2.213-0.021-4.425-0.032-6.638-0.044
		c-1.031-0.006-1.509,0.378-1.237,1.661c0.288,1.363,1.541,2.232,2.893,2.076c0.3-0.035,0.595-0.13,0.885-0.219
		c1.609-0.494,2.839-0.016,3.688,1.476c0.153,0.268,0.348,0.51,0.524,0.764c-0.474,0.583-0.954,1.161-1.597,1.565
		c-2.491,0.432-4.994,0.652-7.521,0.471c-0.151-0.011-0.306,0.016-0.457,0.042c-2.171,0.374-3.026,2.637-1.697,4.466
		c0.26,0.357,0.617,0.455,1.001,0.462c1.226,0.022,2.452,0.014,3.679,0.029c0.532,0.007,0.878,0.27,0.883,0.842
		c0.005,0.546-0.039,1.093-0.061,1.639c-0.52,0.453-1.074,0.872-1.555,1.365c-1.583,1.619-3.504,2.494-5.714,2.537
		c-2.103,0.041-3.38,1.118-4.246,2.955c-0.327,0.693-0.755,1.347-1.207,1.965c-0.454,0.62-1.022,0.595-1.543,0.058
		c-0.533-0.55-0.741-1.193-0.471-1.91c0.216-0.574,0.526-1.114,0.829-1.649c0.386-0.684,0.733-1.367,0.558-2.195
		c0.033-1.3,0.134-2.603,0.082-3.9c-0.065-1.612,0.51-2.806,1.877-3.604c0.587-0.142,1.205-0.209,1.756-0.44
		c1.393-0.582,1.754-1.547,1.188-2.998c-0.255-0.653-0.593-1.26-1.106-1.742c-0.502-0.472-1.015-0.931-1.523-1.396
		c0.243-1.372,0.578-2.73,0.501-4.144c-0.025-0.465-0.013-0.968,0.311-1.329c1.182-1.316,0.922-2.868,0.744-4.412
		c0.521-1.266,1.517-2.138,2.438-3.072c0.708-0.718,1.381-1.458,1.668-2.479c0.227-0.806,0.196-1.098-0.528-1.568
		c-1.262-0.819-2.205-1.925-2.956-3.214c-1.205-2.067-2.226-4.254-4.027-5.991c2.272-1.873,4.515-3.479,7.055-4.619
		c1.99-0.893,4.058-1.332,6.242-1.259c1.23,0.041,2.208,0.559,3.069,1.381c0.883,0.842,1.053,1.867,0.627,2.999
		c-0.49,1.303-1.346,1.637-2.533,0.991c-0.336-0.183-0.624-0.467-0.969-0.624c-1.795-0.817-3.652-1.134-5.572-0.536
		c-1.663,0.518-2.746,1.984-2.898,3.836c-0.136,1.655,0.587,2.85,2.221,3.74c0.756,0.412,1.573,0.63,2.398,0.763
		c0.825,0.133,1.409,0.561,1.882,1.207c0.455,0.622,0.803,1.336,1.472,1.772c0.614,0.775,1.669,0.478,2.421,1.135
		c1.162,1.014,2.428,1.869,3,3.404c0.185,0.496,0.559,0.707,1.061,0.712c0.38,0.004,0.764-0.028,1.139,0.014
		c1.22,0.136,2.034-0.403,2.523-1.519c1.721-0.887,2.446-2.329,2.136-4.249c-0.147-0.909,0.1-1.689,0.401-2.498
		c1.171-3.144,2.327-6.293,3.485-9.442c0.161-0.438,0.329-0.878,0.438-1.33c0.111-0.461-0.44-0.884-0.895-0.742
		c-0.691,0.215-1.176,0.722-1.665,1.213c-1.397,1.402-2.413,1.639-3.014-1.073c-0.05-0.225-0.029-0.466-0.041-0.7
		c1.514-0.159,2.643-0.797,2.857-2.491c0.11-0.869,0.695-1.379,1.284-1.863c0.832-0.684,1.742-1.269,2.578-1.948
		c1.502-1.222,2.944-2.505,3.629-4.434c0.163-0.46,0.258-0.898-0.046-1.332c0.786-0.747,1.594-1.471,2.352-2.247
		c0.822-0.841,1.749-1.528,2.76-2.097c6.295-3.543,12.396-2.714,18.311,0.961c0.963,0.598,1.718,1.553,2.548,2.365
		c0.401,0.392,0.566,0.911,0.643,1.473c0.161,1.163,0.341,2.324,0.53,3.483c0.252,1.545,0.502,3.09,0.789,4.628
		c0.106,0.568,0.559,0.695,1.041,0.406c0.583-0.349,0.84-0.881,0.961-1.523c0.397-2.101,0.412-4.202,0.036-6.307
		c-0.184-1.03-0.577-1.942-1.354-2.658c-0.223-0.205-0.435-0.436-0.599-0.691c-0.15-0.233,0.013-0.453,0.185-0.603
		c0.388-0.339,0.862-0.397,1.285-0.149c0.39,0.229,0.714,0.578,1.06,0.882c0.508,0.447,0.975,1.25,1.725,0.814
		c0.618-0.359,0.645-1.215,0.648-1.92c0.004-0.878-0.256-1.713-0.754-2.429c-0.488-0.7-1.055-1.341-1.572-2.02
		c-0.709-0.931-1.684-1.347-2.786-1.45c-0.838-0.079-1.685-0.065-2.528-0.07c-1.074-0.007-2.15,0.052-3.222,0.004
		c-1.481-0.068-2.863-0.46-4.085-1.631c2.372-1.572,4.857-1.952,7.503-1.384c1.282,0.275,2.48,0.802,3.629,1.45
		c4.667,2.633,8.119,6.389,10.066,11.491c0.484,1.269,1.293,2.297,2.013,3.396c0.308,0.47,0.758,0.779,1.339,0.808
		c0.411,0.021,0.773-0.106,0.917-0.533c0.099-0.292,0.098-0.618,0.174-0.92c0.247-0.977,0.85-1.45,1.856-1.322
		c0.903,0.599,1.226,1.568,1.535,2.538c0.506,1.59,1.72,2.551,2.952,3.491c0.411,0.313,0.965,0.068,1.081-0.423
		c0.286-1.215,0.112-2.361-0.661-3.33c-0.721-0.903-1.458-1.819-2.557-2.297c-0.429-1.326-0.863-2.651-1.284-3.98
		c-0.304-0.96-0.61-1.912-0.7-2.934c-0.174-1.963,0.551-3.48,2.046-4.663c0.561-0.444,1.045-0.3,1.147,0.38
		c0.127,0.844,0.204,1.697,0.303,2.545c-0.429,1.785-0.21,3.541,0.266,5.274c0.295,1.072,0.878,1.973,1.75,2.655
		c0.535,0.419,1.141,0.414,1.674-0.021c0.723-0.589,1.27-1.322,1.61-2.207c1.116-0.695,1.432-1.781,1.375-3.023
		c-0.028-0.623-0.117-1.246-0.203-1.865c-0.098-0.705-0.139-1.396,0.106-2.085c0.162-0.456,0.5-0.627,0.868-0.324
		c2.325,1.918,4.637,3.85,6.951,5.783c0.397,0.332,0.453,0.757,0.366,1.266c-0.269,1.572-0.919,2.988-1.705,4.334
		c-0.951,1.63-1.548,3.387-2.081,5.232c0.734,0.352,1.381,0.116,2.042-0.057c0.889-0.233,1.779-0.506,2.685-0.616
		c1.331-0.162,2.053,0.477,2.159,1.807c0.043,0.543,0,1.095-0.03,1.641c-0.029,0.544-0.163,1.09,0.092,1.615
		c-1.2,1.093-2.042,2.473-2.9,3.834c-0.479,0.759-0.577,1.573-0.17,2.444c0.404,0.866,0.981,1.366,1.954,1.304
		c0.304-0.019,0.634,0.061,0.912-0.032c1.633-0.547,3.315-0.436,4.989-0.43c0.882,0.003,1.449-0.473,1.758-1.251
		c0.596-1.499,1.477-2.921,1.211-4.668c-0.1-0.658,0.203-1.217,0.684-1.659c1.119-1.029,1.641-2.431,2.212-3.786
		c0.542-1.286,0.996-2.611,1.458-3.931c0.446-1.271-0.204-2.364-1.514-2.575c-1.04-0.167-1.943,0.048-2.69,0.901
		c-0.762,0.872-1.611,1.662-2.409,2.502c-0.505,0.531-1.07,0.876-1.826,0.754c-0.053-0.466-0.121-0.931-0.156-1.398
		c-0.203-2.725,0.862-4.889,2.902-6.562c0.892-0.732,1.874-1.356,2.84-1.988c1.097-0.717,2.271-1.319,3.327-2.091
		c3.192-2.333,6.701-2.872,10.498-2.203c2.273,0.401,4.481,1.025,6.676,1.721c0.544,1.243,0.513,1.595-0.194,2.223
		c-0.902,0.801-1.566,0.916-2.437,0.398c-0.326-0.194-0.626-0.433-0.944-0.64c-0.549-0.358-1.123-0.472-1.694-0.072
		c-0.645,0.453-0.909,1.274-0.614,2.052c0.245,0.646,0.551,1.272,0.88,1.878c0.258,0.475,0.068,0.888-0.053,1.323
		c-0.309,0.23-0.612,0.47-0.929,0.689c-1.172,0.806-1.829,0.61-2.206-0.706c-0.148-0.518-0.192-1.074-0.23-1.616
		c-0.027-0.387,0.044-0.78,0.058-1.171c0.032-0.964,0.018-2-0.982-2.428c-1.091-0.468-2.261-0.454-3.27,0.326
		c-0.356,0.275-0.702,0.641-0.897,1.044c-0.607,1.259-1.154,2.55-1.689,3.844c-0.114,0.275-0.116,0.614-0.111,0.922
		c0.007,0.386,0.032,0.784,0.313,1.116c0.635,0.133,1.109-0.391,1.705-0.472c0.83-0.112,1.425,0.129,1.61,0.921
		c0.469,2.003,0.698,4.01-0.357,5.93c-0.599,1.09-1.212,2.174-1.746,3.297c-0.642,1.35-0.599,2.727,0.09,4.062
		c0.21,0.407,0.552,0.505,0.956,0.275c1.307-0.742,2.284-1.822,3.05-3.116c0.717-1.211,1.186-2.535,1.701-3.84
		c0.309-0.784,0.406-1.678,1.067-2.293c0.844,0.142,1.54,0.512,2.076,1.228c0.652,0.872,1.464,1.528,2.592,1.635
		c0.746,1.608,0.322,3.046-0.634,4.391c-0.404,0.568-0.882,1.082-1.286,1.65c-0.583,0.82-1.213,1.622-1.675,2.512
		c-1.221,2.351-0.886,4.291,0.996,6.369c0.468-0.209,0.549-0.686,0.721-1.097c0.512-1.22,0.972-2.466,1.548-3.653
		c0.439-0.905,0.967-1.779,1.557-2.589c0.587-0.806,1.525-1.417,1.895-2.295c0.373-0.883,0.199-1.996,0.332-2.999
		c0.247-1.867,0.838-3.642,1.436-5.419c0.621-1.845,1.169-3.716,1.731-5.581c0.249-0.826,0.426-1.668,0.152-2.532
		c0.615-0.123,0.926-0.522,0.89-1.145c-0.022-0.382-0.163-0.755-0.229-1.136c-0.158-0.921,0.294-1.47,1.08-1.806
		c0.257,0.17,0.517,0.335,0.769,0.512c2.049,1.439,2.37,3.525,1.35,5.798c-0.255,0.568-0.576,1.104-0.863,1.656
		c-1.548,2.97-3.1,5.939-4.638,8.915c-0.212,0.41-0.388,0.848-0.522,1.291c-0.139,0.46,0.314,1.009,0.769,0.909
		c0.593-0.13,1.188-0.302,1.743-0.547c1.239-0.546,1.741,0.167,1.632,1.308c-0.052,0.541-0.165,1.08-0.302,1.606
		c-0.295,1.134-0.626,2.257-0.936,3.387c-0.104,0.379-0.186,0.762,0.054,1.126c3.701-1.072,5.261-3.543,4.637-7.353
		c-0.038-0.231-0.128-0.454-0.158-0.685c-0.109-0.854-0.24-1.707-0.296-2.565c-0.239-3.707,1.188-6.693,3.813-9.171
		c0.536-0.506,1.063-0.541,1.671-0.25c1.253,0.599,2.457,1.279,3.487,2.241c1.549,1.447,2.411,3.212,2.378,5.388
		c-0.008,0.548-0.04,1.096-0.04,1.644c0.001,0.959,0.113,1.884,0.893,2.561c0.372,0.323,0.556,0.705,0.535,1.226
		c-0.07,1.682,0.874,2.784,2.143,3.628c0.767,0.51,1.597,0.932,2.432,1.32c1.82,0.845,2.953,2.168,3.087,4.278
		c0.035,0.544,0.147,1.085,0.251,1.622c0.393,2.013,0.959,3.96,2.291,5.564c0.391,0.471,0.475,0.951,0.309,1.519
		c-0.087,0.3-0.142,0.609-0.214,0.914c-0.767,3.22-0.21,6.207,1.51,8.992c0.865,1.4,1.869,2.707,3.119,3.744
		c2.238,1.856,3.857,4.239,5.557,6.549c1.442,1.959,2.41,4.167,2.836,6.607c0.968,5.55,2.386,10.995,3.669,16.473
		c0.145,0.62,0.28,1.202,0.767,1.658c0.743,0.696,0.96,1.643,0.814,2.587c-0.314,2.023,0.201,3.907,0.864,5.734
		c1.22,3.359,1.557,6.768,1.383,10.35c-0.427,8.759-0.659,17.526-1.876,26.225c-0.716,5.122-1.74,10.171-3.299,15.099
		c-0.761,0.073-1.545,0.055-2.28,0.238c-1.729,0.431-3.344,1.124-4.599,2.498c-1.929,2.114-4.103,3.975-5.835,6.302
		c-1.594,2.143-3.892,1.77-5.149-0.651c-0.507-0.977-1-2.03-0.98-3.101c0.047-2.396-0.828-4.599-1.143-6.913
		c-0.315-2.314-0.824-4.601-0.762-6.961c0.041-1.565,0.007-3.132,0.014-4.698c0.003-0.782,0.023-1.555,0.234-2.325
		c0.377-1.38,0.176-2.8,0.175-4.205c-0.001-0.653-0.354-1.193-0.651-1.736c-0.54-0.988-0.739-2.035-0.69-3.161
		c0.045-1.016-0.01-2.036,0.029-3.053c0.065-1.665-0.003-3.285-0.968-4.734c-0.402-0.604-0.45-1.321-0.428-2.035
		c0.077-2.415-0.059-4.818,0.348-7.246c0.384-2.294,0.568-4.634,0.954-6.94c0.115-0.688,0.115-1.408,0.076-2.108
		c-0.099-1.779,0.516-3.532,0.073-5.339c-0.204-0.834,0.243-1.696,0.599-2.468c0.348-0.757,1-1.121,1.854-1.16
		c0.968-0.045,1.796,0.279,2.598,0.78c0.585,0.366,1.172,0.751,1.804,1.01c0.701,0.287,1.359-0.029,1.766-0.697
		c0.608-0.998,0.711-2.087,0.342-3.16c-0.521-1.516-1.344-2.825-2.921-3.424c-0.86-0.326-1.72-0.654-2.594-0.935
		c-0.927-0.298-1.752-0.653-1.695-1.869c0.019-0.402-0.261-0.479-0.572-0.568c-1.512-0.434-2.271-1.521-2.404-3.067
		c-0.094-1.089-0.111-2.186-0.138-3.279c-0.029-1.174,0.007-2.351-0.053-3.522c-0.057-1.112-0.581-1.448-1.694-1.285
		c-1.387,0.203-2.586,0.944-3.901,1.345c-0.657-0.629-0.827-1.457-0.916-2.321c-0.095-0.929-0.209-1.856-0.294-2.786
		c-0.114-1.244-0.632-2.253-1.704-2.874c-0.637-0.369-1.012-0.908-1.342-1.535c-1.225-2.33-2.464-4.652-3.698-6.977
		C161.309,54.36,161.756,54.059,162.24,53.845z M160.679,35.947c0.098,0.568,0.633,0.76,1.006,0.366
		c0.956-1.01,1.894-2.055,2.496-3.325c1.23-2.595,2.394-5.223,3.577-7.842c0.093-0.206,0.155-0.441,0.169-0.667
		c0.022-0.345-0.216-0.562-0.46-0.755c-0.277-0.219-0.566-0.164-0.85-0.01c-0.066,0.036-0.123,0.092-0.177,0.147
		c-1.893,1.933-3.725,3.918-4.911,6.414c-0.678,1.427-0.979,2.707-0.99,4.429C160.555,34.867,160.586,35.413,160.679,35.947z
		 M60.469,10.817c0.385,0.512,0.943,0.793,1.532,0.978c0.656,0.205,1.324,0.372,1.993,0.533c1.009,0.243,1.82,0.692,2.305,1.721
		c0.574,1.219,1.653,2.029,2.568,2.966c0.416,0.427,0.947,0.466,1.496,0.371c1.246-0.215,1.579-0.89,0.89-1.96
		c-1.009-1.566-2.076-3.101-3.509-4.303c-2.058-1.728-4.378-2.464-7.031-1.785c-0.32,0.082-0.534,0.274-0.578,0.774
		C60.208,10.275,60.292,10.582,60.469,10.817z M180.585,61.169c-0.647-0.541-1.375-0.982-2.073-1.457
		c-0.312-0.212-0.607-0.489-1.139-0.393c-0.369,1.437,0.129,2.703,0.936,3.844c0.888,1.257,1.876,2.441,2.964,3.842
		C182.735,64.186,182.535,62.801,180.585,61.169z M51.916,37.32c-0.493,0.946,0.146,3.053,1.085,3.484
		c0.375,0.172,0.819,0.062,1.041-0.247c0.629-0.876,1.219-1.786,1.758-2.722c0.362-0.629,0.362-1.338,0.089-2.025
		c-0.09-0.226-0.253-0.382-0.509-0.412C54.369,35.294,52.401,36.389,51.916,37.32z M51.298,31.15
		c-0.101-0.586-0.51-0.77-0.999-0.452c-0.712,0.463-1.409,0.954-1.935,1.642c-0.638,0.835-0.973,1.766-0.753,2.844
		c0.213,1.042,1.209,1.489,2.119,0.95c1.196-0.708,1.744-1.855,1.71-3.826C51.413,32.08,51.377,31.611,51.298,31.15z
		 M180.965,95.206c0.003-0.058-0.214-0.17-0.337-0.181c-0.196-0.018-0.407,0.051-0.42,0.293c-0.003,0.056,0.217,0.125,0.335,0.188
		C180.743,95.486,180.954,95.45,180.965,95.206z"/>
	<path style="fill:#9DAFB7;" d="M197.389,149.581c-0.761,0.073-1.545,0.055-2.28,0.238c-1.729,0.431-3.344,1.124-4.599,2.498
		c-1.929,2.114-4.103,3.975-5.835,6.302c-1.594,2.143-3.892,1.77-5.149-0.651c-0.507-0.977-1-2.03-0.98-3.101
		c0.047-2.396-0.828-4.599-1.143-6.913c-0.315-2.314-0.824-4.601-0.762-6.961c0.041-1.565,0.007-3.132,0.014-4.698
		c0.003-0.782,0.023-1.555,0.234-2.325c0.377-1.38,0.176-2.8,0.175-4.205c-0.001-0.653-0.354-1.193-0.651-1.736
		c-0.54-0.988-0.739-2.035-0.69-3.161c0.045-1.016-0.01-2.036,0.029-3.053c0.065-1.665-0.003-3.285-0.968-4.734
		c-0.402-0.604-0.45-1.321-0.428-2.035c0.077-2.415-0.059-4.818,0.348-7.246c0.384-2.294,0.568-4.634,0.954-6.94
		c0.115-0.688,0.115-1.408,0.076-2.108c-0.099-1.779,0.516-3.532,0.073-5.339c-0.204-0.834,0.243-1.696,0.599-2.468
		c0.348-0.757,1-1.121,1.854-1.16c0.968-0.045,1.796,0.279,2.598,0.78c0.585,0.366,1.172,0.751,1.804,1.01
		c0.701,0.287,1.359-0.029,1.766-0.697c0.608-0.998,0.711-2.087,0.342-3.16c-0.521-1.516-1.344-2.825-2.921-3.424
		c-0.86-0.326-1.72-0.654-2.594-0.935c-0.927-0.298-1.752-0.653-1.695-1.869c0.019-0.402-0.261-0.479-0.572-0.568
		c-1.512-0.434-2.271-1.521-2.404-3.067c-0.094-1.089-0.111-2.186-0.138-3.279c-0.029-1.174,0.007-2.351-0.053-3.522
		c-0.057-1.112-0.581-1.448-1.694-1.285c-1.387,0.203-2.586,0.944-3.901,1.345c-0.031,3.436-0.087,6.873-0.077,10.309
		c0.003,0.998-0.395,1.812-0.818,2.642c-1.625,3.191-3.003,6.488-4.095,9.91c-1.58,4.951-2.227,10.027-1.882,15.218
		c0.092,1.392,0.358,2.779,0.641,4.148c0.144,0.697,0.241,1.382,0.208,2.085c-0.07,1.497-0.986,2.502-2.443,2.547
		c-1.68,0.052-3.364-0.023-5.046-0.011c-1.297,0.009-2.593,0.067-3.889,0.102c1.167,1.53,2.338,3.057,3.497,4.593
		c0.434,0.576,0.956,0.908,1.669,1.118c2.238,0.66,3.005,1.631,3.069,4.043c0.084,3.201,0.144,6.411,0,9.607
		c-0.121,2.67-0.943,5.194-2.299,7.517c-0.777,1.332-1.809,2.079-3.389,1.798c-1.351-0.24-2.703-0.476-4.057-0.701
		c-0.467-0.077-0.738,0.188-0.75,0.638c-0.019,0.699,0.027,1.4,0.045,2.1c1.371,0.138,2.726,0.014,4.091-0.156
		c1.779-0.222,3.499,0.015,4.98,1.174c0.644,0.504,1.071,1.177,0.824,2.023c-0.516,1.769-0.762,3.675-2.209,5.021
		c0.624,1.243,1.228,2.497,1.884,3.722c0.216,0.403,0.506,0.835,0.874,1.071c1.174,0.754,1.833,1.837,2.193,3.16
		c0.041,0.149,0.121,0.287,0.183,0.43c1.963,4.493,2.118,4.979,1.782,9.732c-0.279,3.941-1.29,7.717-3.365,11.084
		c-1.299,2.108-2.246,4.242-2.125,6.793c0.063,1.334-0.518,2.476-1.536,3.266c-0.936,0.726-1.274,1.671-1.518,2.77
		c-0.979,4.413-1.886,8.839-2.591,13.308c-0.389,2.465-0.846,4.915-0.94,7.419c-0.023,0.616-0.261,1.22-0.344,1.837
		c-0.101,0.745-0.26,1.325-1.166,1.468c-0.764,0.12-1.094,0.774-1.177,1.545c-0.08,0.734,0.073,1.029,0.8,1.456
		c0.261,0.153,0.535,0.291,0.771,0.478c0.206,0.163,0.213,0.448,0.055,0.62c-0.311,0.339-0.684,0.617-1.019,0.934
		c-0.358,0.339-0.485,0.776-0.501,1.266c-0.049,1.521,1.165,3.575,2.491,4.207c0.422,0.201,0.861,0.404,1.324,0.298
		c2-0.459,4.093-0.53,5.942-1.618c1.39-0.818,2.883-1.44,4.227-2.364c0.744-0.512,1.532-1.064,2.51-1.065
		c-0.115-1.792-0.221-3.584-0.347-5.374c-0.062-0.877,0.053-1.68,0.523-2.459c0.66-1.093,0.83-2.334,0.786-3.608
		c-0.043-1.249-0.088-2.499-0.102-3.748c-0.015-1.262,0.106-2.502,0.786-3.609c0.51-0.831,0.627-1.772,0.6-2.707
		c-0.038-1.301,0.264-2.464,1.012-3.512c0.054-0.592-0.279-1.055-0.537-1.521c-0.572-1.033-0.407-1.88,0.342-2.777
		c0.993-1.191,1.84-2.495,2.243-4.051c0.095-0.366,0.318-0.715,0.544-1.026c0.858-1.186,2.294-1.28,3.406-0.291
		c0.762,0.677,1.044,1.51,0.968,2.509c-0.116,1.512,0.232,2.961,0.693,4.367c0.387,1.183,1.209,1.655,2.335,1.305
		c1.162-0.361,2.296-0.772,3.498-1.031c0.949-0.205,1.81-0.833,2.447-1.665c0.201-0.263,0.274-0.548,0.18-0.872
		c0.245-0.395,0.095-0.749-0.167-1.036c-0.511-0.563-1.057-1.093-1.588-1.637c-0.531-0.544-1.075-1.073-1.406-1.787
		c-0.479-1.036-0.612-2.047,0.094-3.046c0.259-0.368,0.576-0.724,0.51-1.238c-0.225-0.051-0.456-0.081-0.671-0.157
		c-1.852-0.648-2.38-1.858-1.535-3.607c0.233-0.482,0.592-0.902,0.901-1.345c1.237-1.778,2.55-3.499,3.19-5.644
		c0.718-2.405,1.108-4.832,1.111-7.358c0.006-3.877,2.143-6.723,5.707-7.85c0.322-0.102,0.67,0.149,0.616,0.454
		c-0.041,0.228-0.111,0.45-0.163,0.676c-0.288,1.234-0.977,2.285-1.491,3.416c-0.613,1.35-0.774,2.709,0.05,4.01
		c0.416,0.658,0.347,1.325,0.33,2.026c-0.032,1.324-0.176,2.661,0.272,3.949c0.966,2.782,1.94,5.562,2.911,8.342
		c1.262-2.281,2.037-4.783,3.112-7.148c0.348-0.765,0.692-1.532,1.038-2.299c-1.122-0.677-1.51-1.939-2.23-2.934
		c-0.591-0.817-0.649-1.696-0.289-2.666c0.378-1.018,0.652-2.06,0.725-3.181c0.167-2.589-0.306-5.011-1.683-7.176
		c-0.87-1.369-0.586-2.423,0.33-3.595c0.613-0.783,1.352-1.249,2.233-1.555c1.01-0.351,2.089-0.522,2.971-1.202
		c-0.022-0.819-0.551-1.417-0.879-2.102C198.465,151.787,197.925,150.685,197.389,149.581z"/>
	<path style="fill:#3F6273;" d="M58.268,140.096c-2.977,0.689-5.663,1.935-7.787,4.253c-0.155,0.169-0.292,0.359-0.419,0.551
		c-0.035,0.053-0.005,0.149-0.005,0.214c0.148,0.247,0.377,0.215,0.586,0.184c3.335-0.5,6.685-0.913,9.943-1.845
		c1.626-0.465,3.22-1.023,4.729-1.801c0.613-0.316,1.216-0.669,1.777-1.073c1.175-0.846,1.655-2.023,1.4-3.478
		c-0.081-0.459-0.24-0.903-0.352-1.357c-0.29-1.183,0.519-2.186,1.739-2.059c1.221,0.128,2.427,0.398,3.538,0.959
		c1.593,0.805,2.247,2.073,1.861,3.863c-0.228,1.06-0.618,2.101-1.059,3.092c-0.506,1.137-1.149,2.211-1.733,3.312
		c-0.14,0.263-0.395,0.589-0.121,0.811c0.197,0.16,0.587,0.163,0.868,0.109c1.427-0.276,2.506-1.119,3.372-2.275
		c0.708-0.945,1.156-2.03,1.535-3.14c1.039-3.042,2.357-5.945,3.999-8.698c0.357-0.598,0.665-1.238,0.901-1.895
		c0.301-0.838-0.045-1.574-0.905-1.851c-0.723-0.233-1.496-0.306-2.244-0.458c-0.846-0.172-1.222-0.563-1.236-1.422
		c-0.063-3.709,1.23-5.059,3.719-6.023c0.356-0.138,0.731-0.227,1.085-0.369c0.33-0.132,0.36-0.502,0.096-0.741
		c-0.879-0.797-1.846-1.084-2.964-0.57c-0.698,0.321-1.415,0.604-2.091,0.968c-1.603,0.862-3.127,0.387-4.623-0.269
		c-0.722-0.316-0.772-0.942-0.191-1.467c1.042-0.94,2.228-1.661,3.466-2.291c1.997-1.017,4.125-1.675,6.25-2.338
		c0.574-0.179,1.214-0.203,1.655-0.798c-0.69-1.307-1.834-2.057-3.151-2.551c-0.863-0.324-1.765-0.557-2.697-0.53
		c-3.322,0.096-6.554-0.613-9.813-1.105c-4.183-0.632-8.393-0.896-12.615-0.575c-2.597,0.198-5.184,0.549-7.775,0.827
		c-0.726,0.078-1.366,0.268-1.55,1.123c0.478,1.827,1.734,3.184,2.721,4.704c0.817,0.546,1.6,1.17,2.637,1.223
		c1.758-0.04,3.517-0.093,5.276-0.113c0.601-0.007,1.245-0.06,1.668,0.545c0.638,0.672,1.3,1.322,1.904,2.025
		c0.321,0.374,0.172,0.947-0.223,1.223c-0.519,0.362-1.118,0.484-1.713,0.645c-1.554,0.419-3.099,0.878-4.644,1.332
		c-0.433,0.127-0.861,0.28-1.118,0.696c0.646,0.803,1.513,0.73,2.355,0.736c1.379,0.009,2.759,0.002,4.138,0.022
		c0.778,0.011,1.531,0.15,2.142,0.701c0.294,0.265,0.518,0.592,0.456,1.015c-0.065,0.443-0.422,0.64-0.785,0.769
		c-0.887,0.315-1.836,0.317-2.732,0.227c-2.03-0.203-3.967,0.158-5.906,0.672c-0.963,0.256-1.937,0.49-2.919,0.646
		c-0.882,0.14-1.782,0.16-2.614,0.228c-0.202,0.509,0.127,0.664,0.316,0.88c0.971,1.108,1.989,2.176,2.91,3.326
		c1.38,1.722,2.974,2.931,5.289,2.77c0.205-0.014,0.423,0.157,0.634,0.241c0.257-0.166,0.494-0.42,0.773-0.484
		c1.812-0.418,3.623-0.421,5.436,0.063c0.781,0.209,1.389,0.638,1.883,1.255c0.76,0.949,0.714,2.459-0.284,3.131
		C63.013,139.233,60.912,140.571,58.268,140.096z"/>
	<path style="fill:#3F6273;" d="M1.344,103.026c0.411,4.85,1.421,9.597,2.411,14.344c0.799,3.832,1.524,7.674,1.939,11.571
		c0.116,1.089,0.236,2.193,0.184,3.282c-0.096,2.007,0.632,3.682,1.799,5.194c1.423,1.844,2.896,3.647,4.345,5.465
		c2.165-1.587,3.326-4.196,2.977-6.896c-0.243-1.877-0.317-3.729-0.085-5.617c0.377-3.072,1.301-5.965,2.661-8.701
		c1.179-2.372,2.51-4.665,3.777-6.991c0.559-1.025,1.127-2.044,1.691-3.065c-1.052-3.382-3.785-5.63-7.156-5.886
		c-0.666,0.358-0.762,1.14-1.191,1.675c-0.259,0.324-0.581,0.468-0.991,0.463c-0.546-0.006-0.944-0.384-0.8-0.864
		c0.223-0.741,0.488-1.471,0.779-2.187c0.409-1.006,0.928-1.97,1.272-2.997c0.481-1.438,0.551-2.899-0.2-4.302
		c-0.31-0.58-0.787-0.653-1.306-0.22c-0.435,0.362-0.704,0.813-0.818,1.364c-0.142,0.685-0.237,1.382-0.41,2.058
		c-0.303,1.18-0.654,1.495-2.04,1.923c-0.154-0.92-0.345-1.829-0.451-2.747c-0.248-2.141-0.048-4.203,1.19-6.045
		c0.222-0.331,0.33-0.697,0.287-1.102c-0.353-0.146-0.701-0.308-1.061-0.434c-1.159-0.406-2.102-0.118-2.799,0.937
		c-0.557,0.842-1.104,1.692-1.686,2.515c-0.589,0.832-1.119,1.663-1.198,2.741c-0.052,0.712-0.413,1.345-0.862,1.89
		C2.866,101.285,2.098,102.15,1.344,103.026z"/>
	<path style="fill:#9DAFB7;" d="M76.971,268.335c0.326-2.011,0.343-4.015-0.062-6.021c-0.291-1.441-0.232-2.918-0.585-4.373
		c-0.737-3.032-2.206-5.598-4.239-7.874c-0.205-0.23-0.408-0.471-0.649-0.656c-1.038-0.797-1.239-1.873-1.117-3.117
		c0.083-0.846,0.039-1.704,0.052-2.557c-0.58-0.362-1.175-0.7-1.736-1.091c-1.527-1.063-1.717-2.277-0.55-3.699
		c0.633-0.772,1.347-1.471,2.281-1.875c0.21-0.931,0.017-1.64-0.854-2.19c-0.902-0.569-1.304-1.538-1.356-2.598
		c-0.042-0.871-0.281-1.694-0.412-2.54c-0.192-1.239-0.93-1.931-1.982-2.373c-0.352-0.148-0.73-0.232-1.094-0.352
		c-2.406-0.796-4.816-1.582-7.216-2.398c-0.735-0.25-1.458-0.507-2.243-0.369c-0.828,0.146-1.301-0.265-1.597-0.997
		c-0.381-0.942-0.726-1.891-0.803-2.923c-0.035-0.465-0.066-0.945-0.204-1.384c-0.514-1.644-1.943-2.12-3.214-0.993
		c-1.152,1.022-2.301,2.07-3.107,3.44c-0.633,1.077-1.625,1.346-2.787,1.165c-0.569-0.089-0.73-0.486-0.781-0.988
		c-0.868,0.251-1.478,0.785-1.768,1.675c-0.073,0.223-0.139,0.451-0.242,0.66c-0.459,0.931-0.847,1.105-1.859,0.86
		c-1.6-0.388-1.605-0.389-1.768,1.187c-0.129,1.246-0.265,2.493-0.361,3.742c-0.079,1.029-0.351,2.003-0.707,2.957
		c-0.738,1.976-1.501,3.942-2.237,5.919c-1.147,3.084-2.127,6.206-2.275,9.546c-0.081,1.816,0.11,3.584,0.478,5.356
		c0.201,0.967,0.629,1.757,1.302,2.428c0.374,0.374,0.698,0.969,1.291,0.852c0.752-0.148,0.701-0.916,0.839-1.504
		c1.309-5.565,2.397-11.169,2.69-16.902c0.039-0.756,0.23-1.368,0.788-1.864c0.289-0.257,0.527-0.584,0.841-0.799
		c2.201-1.509,3.458-3.723,4.451-6.14c0.178-0.433,0.32-0.884,0.524-1.303c0.133-0.272,0.296-0.614,0.536-0.733
		c1.169-0.575,2.353-1.126,3.565-1.599c0.494-0.193,1.065-0.109,1.574,0.128c0.828,0.385,1.236,1.089,0.952,2.091
		c-0.339,1.198-0.027,2.163,0.695,3.048c1.401,1.716,2.572,1.84,4.287,0.438c0.597-0.488,1.128-1.061,1.681-1.603
		c0.501-0.491,1.022-0.946,1.671-1.228c0.831-0.361,1.585-0.195,1.924,0.672c0.585,1.498,1.378,2.999,0.724,4.716
		c-0.391,1.026-0.153,2.028,0.273,2.962c0.517,1.135,1.088,2.249,1.712,3.326c1.216,2.1,1.374,4.266,0.543,6.531
		c0.376,0.065,0.764,0.113,0.954,0.527c1.458,3.184,3.517,6.008,5.197,9.06c1.446,2.628,2.367,5.379,2.27,8.429
		c0.884-0.203,1.425,0.3,1.944,0.93C75.838,266.703,76.064,267.781,76.971,268.335z"/>
	<path style="fill:#9DAFB7;" d="M85.395,292.55c-0.904-0.433-1.857-0.682-2.843-0.838c-0.523-0.083-1.044-0.216-1.548-0.385
		c-2.459-0.824-2.696-2.402-2.257-4.135c0.362-1.43,0.656-2.89,1.326-4.221c0.328-0.653,0.409-1.33,0.288-2.045
		c-0.092-0.539-0.551-0.798-0.978-0.52c-0.58,0.377-1.123,0.819-1.722,1.157c-0.943,0.533-1.797,0.272-2.292-0.737
		c-0.34-0.692-0.684-1.432-0.784-2.185c-0.223-1.682-1.135-2.715-2.642-3.184c-0.905-0.282-1.193-0.826-1.175-1.705
		c0.042-2.074-0.583-3.95-1.432-5.829c-1.471-3.254-2.751-6.598-4.1-9.909c-0.122-0.299-0.264-0.555-0.54-0.72
		c-0.299-0.061-0.598-0.124-0.897-0.183c-2.125-0.421-3.377-1.693-3.691-3.91c-0.108-0.764-0.164-1.548-0.882-2.078
		c-0.843-0.623-1.792-0.52-2.048,0.458c-0.666,2.547-2.319,4.361-4.042,6.156c-0.427,0.445-0.808,0.939-1.192,1.425
		c-0.394,0.499-0.649,1.047-0.555,1.725c0.253,1.827-0.115,3.573-0.661,5.301c-0.139,0.439-0.19,0.912-0.236,1.374
		c-0.042,0.411,0.312,0.711,0.743,0.635c0.45-0.079,0.899-0.185,1.336-0.319c0.525-0.161,1.05-0.196,1.588-0.118
		c0.023-0.232,0.08-0.466,0.062-0.695c-0.059-0.754,0.28-1.176,0.987-1.324c-1.33-1.264-0.95-2.818-0.664-4.332
		c0.049-0.258,0.347-0.519,0.592-0.679c2.104-1.37,5.118-0.114,5.582,2.374c0.242,1.298,0.357,2.633,0.404,3.955
		c0.056,1.571-1.446,2.69-2.963,2.298c-0.37-0.096-0.73-0.23-1.094-0.347c-0.329,1.087,0.323,1.938,0.67,2.858
		c0.246,0.651,0.554,1.274,0.518,2.005c-0.054,1.105-0.531,1.616-1.678,1.738c-0.301,0.032-0.604,0.045-0.906,0.066
		c-2.281,1.285-2.588,1.248-4.625-0.542c-0.81-0.712-1.56-1.508-2.578-1.929c-0.472-0.195-1,0.069-1.048,0.555
		c-0.046,0.464-0.017,0.935-0.036,1.402c-0.047,1.161,0.474,1.836,1.535,2.308c3.086,1.373,6.139,2.824,9.184,4.291
		c0.876,0.422,1.817,0.214,2.697,0.472c0.226-0.203,0.452-0.405,0.678-0.609c0.83-0.748,1.763-0.851,2.769-0.45
		c0.284,0.113,0.553,0.263,0.836,0.378c1.542,0.623,1.715,0.556,2.671-1.007c0.04-0.065,0.074-0.135,0.116-0.199
		c0.256-0.38,0.603-0.461,0.987-0.25c1.289,0.708,2.352,1.697,3.377,2.756c1.545,1.596,1.988,4.318-0.529,6.488
		c2.495,2.043,4.995,4.08,7.482,6.133c0.533,0.44,1.036,0.548,1.67,0.197c1.274-0.704,2.578-1.349,3.865-2.028
		C85.15,293.421,85.46,293.101,85.395,292.55z"/>
	<path style="fill:#9DAFB7;" d="M135.767,400.277c-2.992-0.74-4.482-2.507-4.642-5.415c-0.217-3.942-1.428-7.681-3.031-11.326
		c-1.061-2.413-2.049-4.856-2.979-7.315c-0.462-1.223-0.763-2.504-1.061-3.773c-0.709-3.015-2.303-4.321-5.577-4.357
		c-1.941-0.021-3.899-0.146-5.814,0.319c0.42,2.1,1.499,3.975,2.364,5.922c1.282,2.884,2.726,5.701,3.796,8.671
		c0.693,1.924,1.168,3.883,1.511,5.863c0.309,1.787,0.31,3.608-0.152,5.404c-0.354,1.377-0.516,2.786-0.422,4.2
		c0.132,1.977,2.369,4.324,4.449,4.686c0.412,0.072,0.885,0.065,1.281-0.049C128.903,402.122,132.436,401.514,135.767,400.277z"/>
	<path style="fill:#7D94A0;" d="M17.784,70.196c0.033-1.3,0.134-2.603,0.082-3.9c-0.065-1.612,0.51-2.806,1.877-3.604
		c-0.687-0.815-1.52-1.241-2.609-1.141c-0.602,0.056-1.219,0.015-1.824-0.04c-0.494-0.045-0.876-0.367-0.986-0.849
		c-0.453-1.981,0.531-4.445,2.998-4.56c0.91-0.043,1.824,0.006,2.736,0.013c0.243-1.372,0.578-2.73,0.501-4.144
		c-0.025-0.465-0.013-0.968,0.311-1.329c1.182-1.316,0.922-2.868,0.744-4.412c-1.105,0.247-1.924-0.319-2.672-1.02
		c-0.619-0.581-1.208-1.197-1.783-1.824c-0.808-0.88-1.749-1.198-2.881-0.828c-0.393,0.466-0.009,0.895,0.043,1.327
		c0.046,0.383,0.185,0.755,0.292,1.13c0.514,1.799,1.03,3.597,1.545,5.395c0.231,0.806,0.109,1.494-0.475,2.152
		c-4.011,4.517-6.252,9.951-7.716,15.769c-0.456,1.812-0.818,3.649-1.223,5.474c1.159,0.233,2.064-0.185,2.844-1.063
		c0.766-0.861,1.56-1.705,2.408-2.48c0.941-0.861,1.526-0.828,2.828-0.035C15.805,69.668,16.796,70.138,17.784,70.196z"/>
	<path style="fill:#3F6273;" d="M193.667,186.753c-0.971-2.781-1.945-5.56-2.911-8.342c-0.447-1.288-0.303-2.625-0.272-3.949
		c0.017-0.7,0.086-1.368-0.33-2.026c-0.824-1.301-0.663-2.66-0.05-4.01c0.514-1.131,1.203-2.182,1.491-3.416
		c0.053-0.226,0.122-0.448,0.163-0.676c0.055-0.305-0.293-0.556-0.616-0.454c-3.565,1.127-5.702,3.973-5.707,7.85
		c-0.004,2.526-0.394,4.952-1.111,7.358c-0.64,2.146-1.953,3.866-3.19,5.644c-0.308,0.443-0.668,0.863-0.901,1.345
		c-0.845,1.75-0.317,2.959,1.535,3.607c0.216,0.076,0.447,0.106,0.671,0.157c0.619-0.343,1.016-0.92,1.472-1.438
		c0.354-0.402,0.706-0.823,1.125-1.145c1.448-1.111,2.965-0.768,3.8,0.861c0.351,0.684,0.564,1.442,0.924,2.12
		c0.389,0.734,1.025,0.929,1.739,0.599c0.414-0.191,0.786-0.473,1.194-0.678c0.456-0.229,0.677-0.601,0.731-1.094
		C193.511,188.295,193.587,187.523,193.667,186.753z"/>
	<path style="fill:#7D94A0;" d="M1.344,103.026c0.754-0.876,1.522-1.74,2.258-2.632c0.449-0.545,0.81-1.178,0.862-1.89
		c0.079-1.079,0.609-1.91,1.198-2.741c0.583-0.823,1.13-1.673,1.686-2.515c0.697-1.055,1.64-1.343,2.799-0.937
		c0.36,0.126,0.707,0.288,1.061,0.434c1.068-0.577,1.41-1.338,0.96-2.347c-0.216-0.484-0.547-0.933-0.899-1.331
		c-1.247-1.41-1.712-3.067-1.622-4.932c0.056-1.163,0.087-2.328,0.103-3.492c0.012-0.851,0.079-1.71-0.176-2.543
		c-1.371-0.171-2.743-0.116-4.114,0.003c-1.22,0.994-1.409,2.338-1.182,3.79c0.144,0.923,0.413,1.825,0.56,2.747
		c0.11,0.688,0.189,1.396,0.152,2.089c-0.051,0.968-0.432,1.795-1.278,2.36c-0.573,0.382-1.144,0.792-1.636,1.274
		c-1.655,1.62-2.436,3.584-1.915,5.925c0.262,1.178,0.218,2.301-0.026,3.468C-0.143,101.072,0.172,102.231,1.344,103.026z"/>
	<path style="fill:#7D94A0;" d="M119.754,25.356c-1.2,1.093-2.042,2.473-2.9,3.834c-0.479,0.759-0.577,1.573-0.17,2.444
		c0.404,0.866,0.981,1.366,1.954,1.304c0.304-0.019,0.634,0.061,0.912-0.032c1.633-0.547,3.315-0.436,4.989-0.43
		c0.882,0.003,1.449-0.473,1.758-1.251c0.596-1.499,1.477-2.921,1.211-4.668c-0.1-0.658,0.203-1.217,0.684-1.659
		c1.119-1.029,1.641-2.431,2.212-3.786c0.542-1.286,0.996-2.611,1.458-3.931c0.446-1.271-0.204-2.364-1.514-2.575
		c-1.04-0.167-1.943,0.048-2.69,0.901c-0.762,0.872-1.611,1.662-2.409,2.502c-0.505,0.531-1.07,0.876-1.826,0.754
		c-0.168,0.899-0.324,1.801-0.505,2.698c-0.322,1.595-1.117,2.821-2.627,3.491C120.09,25.041,119.931,25.219,119.754,25.356z"/>
	<path style="fill:#3F6273;" d="M199.873,154.997c-0.882,0.68-1.961,0.851-2.971,1.202c-0.881,0.306-1.62,0.772-2.233,1.555
		c-0.916,1.172-1.2,2.226-0.33,3.595c1.376,2.165,1.849,4.586,1.683,7.176c-0.072,1.121-0.347,2.163-0.725,3.181
		c-0.36,0.97-0.302,1.849,0.289,2.666c0.721,0.995,1.109,2.257,2.23,2.934c1.419-1.615,2.193-3.577,2.762-5.615
		c0.419-1.501,0.681-3.05,0.987-4.583c0.398-1.993,0.683-4.014,1.178-5.98c0.544-2.158,0.215-4.516-2.316-5.714
		C200.224,155.317,200.057,155.138,199.873,154.997z"/>
	<path style="fill:#3F6273;" d="M184.996,198.585c0.094,0.324,0.021,0.609-0.18,0.872c-0.637,0.832-1.497,1.46-2.447,1.665
		c-1.202,0.259-2.335,0.67-3.498,1.031c-1.126,0.35-1.947-0.121-2.335-1.305c-0.461-1.406-0.808-2.856-0.693-4.367
		c0.076-1-0.205-1.832-0.968-2.509c-1.113-0.989-2.548-0.895-3.406,0.291c-0.225,0.311-0.449,0.66-0.544,1.026
		c-0.403,1.555-1.249,2.86-2.243,4.051c-0.748,0.897-0.914,1.744-0.342,2.777c0.258,0.466,0.591,0.929,0.537,1.521
		c1.735-0.051,3.115,0.633,4.076,2.116c0.325,0.502,0.746,0.708,1.31,0.794c5.388,0.817,9.752-0.88,12.949-5.465
		c0.263-0.378,0.513-0.779,0.688-1.204c0.287-0.696-0.173-1.461-0.902-1.511C186.326,198.323,185.629,198.177,184.996,198.585z"/>
	<path style="fill:#7D94A0;" d="M86.98,162.807c0.458-0.031,0.918-0.05,1.375-0.095c1.494-0.147,2.87,0.17,4.185,0.933
		c1.264,0.732,2.603,1.329,3.881,2.038c1.166,0.647,2.416,0.957,3.71,1.144c1.188,0.172,2.003-0.181,2.523-1.136
		c0.556-1.021,0.715-2.08,0.023-3.1c-0.573-0.844-1.366-1.462-2.175-2.067c-1.784-1.332-3.609-2.621-5.287-4.084
		c-1.701-1.484-3.11-3.233-3.461-5.636c-0.065-0.446-0.281-0.896-0.67-1.199c-0.67,0.631-0.633,1.552-0.873,2.346
		c-0.312,1.034-0.487,2.112-0.702,3.175C88.971,157.792,88.045,160.323,86.98,162.807z"/>
	<path style="fill:#3F6273;" d="M4.697,163.778c0.559-0.156,0.617-0.469,0.705-0.766c1.306-4.408,2.617-8.814,3.92-13.223
		c0.155-0.523,0.275-1.056,0.405-1.586c0.305-1.25-0.024-2.346-0.906-3.218c-1.343-1.328-2.959-2.215-4.766-2.684
		c-1.081-0.28-1.947,0.276-2.305,1.395c-0.363,1.133-0.417,2.295-0.206,3.474c0.578,3.226,1.116,6.459,1.721,9.68
		C3.695,159.148,4.208,161.43,4.697,163.778z"/>
	<path style="fill:#7D94A0;" d="M160.845,54.621c0.464-0.261,0.911-0.562,1.395-0.776c0.948-0.42,1.797-0.222,2.473,0.571
		c0.298,0.35,0.527,0.761,0.787,1.145c0.217,0.32,0.424,0.648,0.649,0.962c0.514,0.714,1.147,1.408,2.064,1.116
		c0.797-0.254,0.947-1.156,1.089-1.925c0.244-1.318-0.225-2.495-0.924-3.525c-0.822-1.211-1.795-2.314-2.709-3.459
		c-0.415-0.519-0.955-0.752-1.615-0.693c-0.228,0.02-0.459,0-0.686,0.029c-1.659,0.211-3.318,0.429-4.977,0.647
		c-1.506,0.197-2.946,0.565-4.36,1.2c-1.534,0.689-3.238,0.802-4.915,0.88c0.636,1.406,1.864,2.004,3.22,2.336
		c0.959,0.235,1.956,0.406,2.939,0.417C157.205,53.567,159.048,53.938,160.845,54.621z"/>
	<path style="fill:#7D94A0;" d="M35.308,59.119c-2.491,0.432-4.994,0.652-7.521,0.471c-0.151-0.011-0.306,0.016-0.457,0.042
		c-2.171,0.374-3.026,2.637-1.697,4.466c0.26,0.357,0.617,0.455,1.001,0.462c1.226,0.022,2.452,0.014,3.679,0.029
		c0.532,0.007,0.878,0.27,0.883,0.842c0.005,0.546-0.039,1.093-0.061,1.639c0.445,0.422,0.888,0.847,1.337,1.264
		c0.555,0.516,0.869,1.431,1.663,1.51c0.676,0.067,1.16-0.663,1.761-0.981c0.545-0.289,1.126-0.443,1.736-0.555
		c1.586-0.291,3.164-1.121,4.699-2.417c-0.803,0-1.478,0.042-2.146-0.009c-1.373-0.103-2.077-0.725-2.429-2.062
		c-0.02-0.075-0.046-0.153-0.045-0.229C37.736,61.637,36.82,60.212,35.308,59.119z"/>
	<path style="fill:#3F6273;" d="M71.705,289.345c2.517-2.171,2.074-4.892,0.529-6.488c-1.025-1.059-2.088-2.048-3.377-2.756
		c-0.384-0.211-0.731-0.131-0.987,0.25c-0.043,0.063-0.076,0.133-0.116,0.199c-0.956,1.563-1.129,1.63-2.671,1.007
		c-0.283-0.115-0.553-0.265-0.836-0.378c-1.007-0.4-1.939-0.298-2.769,0.45c-0.226,0.203-0.452,0.406-0.678,0.609
		c0.456,2.945,2.253,4.726,4.909,5.589C67.667,288.462,69.703,288.848,71.705,289.345z"/>
	<path style="fill:#3F6273;" d="M38.608,146.642c0.108-1.355-0.071-2.656-0.196-3.957c-0.157-1.638-0.351-3.273-0.488-4.912
		c-0.165-1.972,0.037-3.911,0.626-5.803c0.574-1.842,1.615-3.363,3.024-4.634c0.172-0.155,0.374-0.286,0.514-0.466
		c0.083-0.107,0.126-0.309,0.085-0.432c-0.032-0.096-0.227-0.2-0.343-0.192c-3.268,0.238-5.593,1.914-7.082,4.865
		c-0.291,0.576-0.386,1.181-0.384,1.817c0.009,2.195,0.017,4.389,0.017,6.583c0,1.187,0.166,2.346,0.565,3.461
		C35.601,144.806,36.681,145.897,38.608,146.642z"/>
	<path style="fill:#7D94A0;" d="M15.887,105.727c3.37,0.256,6.103,2.504,7.156,5.886c1.22-1.241,1.477-2.876,1.611-4.495
		c0.141-1.703,0.085-3.424,0.096-5.138c0.007-1.035-0.437-1.788-1.409-2.177c-0.496-0.198-0.977-0.443-1.483-0.608
		c-1.54-0.501-2.468-0.254-3.366,1.104c-0.722,1.091-1.299,2.287-1.882,3.467C16.304,104.386,16.124,105.071,15.887,105.727z"/>
	<path style="fill:#7D94A0;" d="M42.194,24.479c1.514-0.159,2.643-0.797,2.857-2.491c0.11-0.869,0.695-1.379,1.284-1.863
		c0.832-0.684,1.742-1.269,2.578-1.948c1.502-1.222,2.944-2.505,3.629-4.434c0.163-0.46,0.258-0.898-0.046-1.332
		c-1.159,0.157-2.256-0.251-3.384-0.384c-1.182-0.139-1.389-0.089-1.763,0.951c-0.464,1.289-1.269,2.289-2.216,3.207
		c-1.16,1.123-2.36,2.197-3.196,3.631c-0.257,0.441-0.763,0.738-1.174,1.075c-0.58,0.475-0.826,1.087-0.825,1.834
		c0.001,0.766,0.2,1.122,0.936,1.405C41.297,24.292,41.753,24.365,42.194,24.479z"/>
	<path style="fill:#7D94A0;" d="M41.9,270.053c0.916,0,1.831,0.01,2.747-0.003c0.614-0.009,1.212-0.086,1.762-0.423
		c0.79-0.485,1.094-1.022,0.904-1.941c-0.361-1.753-0.753-3.501-1.166-5.242c-0.291-1.229-0.797-2.362-1.668-3.288
		c-0.151-0.161-0.366-0.366-0.586-0.182c-0.147,0.123-0.265,0.368-0.272,0.564c-0.028,0.779-0.002,1.56-0.006,2.341
		c-0.011,2.391-1.314,3.898-3.55,4.06c-0.455,0.033-0.915,0.093-1.354,0.21c-0.721,0.193-1.168,0.717-1.396,1.426
		c-0.449,1.398,0.181,2.33,1.61,2.363c0.992,0.023,1.984,0.004,2.977,0.004C41.9,269.979,41.9,270.016,41.9,270.053z"/>
	<path style="fill:#3F6273;" d="M61.066,149.049c-2.293,0.128-4.546,0.658-6.854,0.659c-1.914,0-3.831,0.066-5.724-0.292
		c-2.349-0.444-4.578-1.243-6.649-2.476c-0.385-0.229-0.781-0.439-1.137-0.638c-0.411,0.302-0.267,0.607-0.144,0.876
		c0.653,1.427,1.775,2.316,3.189,2.864c1.347,0.521,2.806,0.815,3.73,2.144c0.275,0.396,0.837,0.315,1.29,0.358
		c4.189,0.4,8.244-0.155,12.137-1.806c0.846-0.359,1.656-0.804,2.483-1.209c-0.229-0.37-0.576-0.44-0.975-0.434
		C61.965,149.102,61.516,149.066,61.066,149.049z"/>
	<path style="fill:#7D94A0;" d="M58.268,140.096c2.645,0.476,4.746-0.863,6.785-2.237c0.998-0.672,1.043-2.182,0.284-3.131
		c-0.494-0.617-1.102-1.046-1.883-1.255c-1.813-0.484-3.623-0.481-5.436-0.063c-0.279,0.064-0.516,0.318-0.773,0.484
		c0.053,0.22,0.07,0.457,0.164,0.656C58.242,136.313,58.494,138.165,58.268,140.096z"/>
	<path style="fill:#7D94A0;" d="M40.016,55.578c-0.471-0.256-0.548-0.705-0.562-1.188c-0.014-0.467-0.006-0.937-0.056-1.401
		c-0.071-0.65-0.385-0.994-1.011-1.073c-0.528-0.067-1.065-0.071-1.598-0.076c-2.213-0.021-4.425-0.032-6.638-0.044
		c-1.031-0.006-1.509,0.378-1.237,1.661c0.288,1.363,1.541,2.232,2.893,2.076c0.3-0.035,0.595-0.13,0.885-0.219
		c1.609-0.494,2.839-0.016,3.688,1.476c0.153,0.268,0.348,0.51,0.524,0.764C38.455,57.738,39.245,56.673,40.016,55.578z"/>
	<path style="fill:#3F6273;" d="M5.46,78.101c1.371-0.119,2.742-0.174,4.114-0.003c2.557-2.062,3.916-4.959,5.251-7.872
		c-1.302-0.793-1.887-0.826-2.828,0.035c-0.848,0.776-1.641,1.619-2.408,2.48c-0.781,0.878-1.686,1.296-2.844,1.063
		c-0.977,0.523-1.336,1.379-1.297,2.465C5.47,76.879,5.457,77.49,5.46,78.101z"/>
	<path style="fill:#7D94A0;" d="M52.489,61.721c-0.907-0.205-1.739-0.588-2.432-1.219c-1.264-1.152-2.637-1.447-4.186-0.669
		c1.517,1.042,1.781,2.407,1.056,4.07c-0.247,0.567-0.42,1.176-0.56,1.782c-0.142,0.612-0.144,1.238,0.104,1.843
		c0.346,0.84,1.134,1.089,1.863,0.569c0.701-0.501,1.244-1.158,1.705-1.883C50.954,64.773,51.828,63.307,52.489,61.721z"/>
	<path style="fill:#7D94A0;" d="M101.828,5.946c-0.429,1.785-0.21,3.541,0.266,5.274c0.295,1.072,0.878,1.973,1.75,2.655
		c0.535,0.419,1.141,0.414,1.674-0.021c0.723-0.589,1.27-1.322,1.61-2.207c-0.136-2.933-0.647-4.734-4.852-5.624
		C102.128,5.993,101.977,5.972,101.828,5.946z"/>
	<path style="fill:#7D94A0;" d="M31.205,39.556c0.614,0.775,1.669,0.478,2.421,1.135c1.162,1.014,2.428,1.869,3,3.404
		c0.185,0.496,0.559,0.707,1.061,0.712c0.38,0.004,0.764-0.028,1.139,0.014c1.22,0.136,2.034-0.403,2.523-1.519
		c-0.345-0.152-0.691-0.285-0.815-0.718c-0.276-0.961-0.631-1.902-0.85-2.875c-0.275-1.221-0.726-1.307-1.793-1.135
		c-0.818,0.132-1.637,0.284-2.435,0.507C34.059,39.47,32.639,39.56,31.205,39.556z"/>
	<path style="fill:#3F6273;" d="M57.054,170.477c0.017,0.659,0.285,1.041,0.847,1.23c0.497,0.167,0.882-0.003,1.238-0.362
		c0.775-0.781,1.352-1.698,1.789-2.706c0.748-1.722,1.179-3.548,1.627-5.366c0.057-0.231,0.024-0.476-0.21-0.585
		c-0.125-0.058-0.315-0.063-0.443-0.009C59.72,163.605,56.991,168.005,57.054,170.477z"/>
	<path style="fill:#7D94A0;" d="M50.175,114.086c-0.987-1.519-2.243-2.877-2.721-4.704c-1.055,0.736-2.322,0.747-3.5,1.052
		c-1.073,0.278-2.038,0.688-2.664,1.675c-0.165,0.26-0.296,0.548-0.406,0.837c-0.191,0.501,0.064,0.964,0.581,1.02
		c0.914,0.1,1.83,0.191,2.747,0.243C46.202,114.324,48.194,114.433,50.175,114.086z"/>
	<path style="fill:#3F6273;" d="M55.67,275.68c0.302-0.022,0.605-0.034,0.906-0.066c1.147-0.122,1.624-0.633,1.678-1.738
		c0.036-0.731-0.272-1.354-0.518-2.005c-0.348-0.92-1-1.771-0.67-2.858c-0.03-0.464-0.007-0.94-0.101-1.39
		c-0.202-0.979-0.713-1.7-1.756-1.879c-0.707,0.147-1.046,0.57-0.987,1.324c0.018,0.229-0.039,0.463-0.062,0.695
		c-0.053,2.12,0.41,4.146,1.062,6.138C55.412,274.483,55.734,275.031,55.67,275.68z"/>
	<path style="fill:#7D94A0;" d="M78.675,194.209c-0.197-0.253-0.453-0.387-0.769-0.375c-1.988,0.077-2.906-1.179-3.462-2.89
		c-0.901,0.285-1.345,0.824-1.326,1.872c0.014,0.799,0.317,1.728-0.455,2.398c0.09,0.126,0.231,0.24,0.261,0.379
		c0.383,1.764,1.545,2.575,3.213,2.793c0.301,0.039,0.597,0.119,0.896,0.18c0.452-0.873,0.348-1.836,0.352-2.759
		C77.389,194.845,77.839,194.399,78.675,194.209z"/>
	<path style="fill:#7D94A0;" d="M207.333,333.731c-0.074-0.241-0.152-0.481-0.223-0.723c-0.192-0.659,0.023-1.202,0.529-1.66
		c0.363-0.329,0.739-0.542,1.114-0.665C208.287,331.7,207.813,332.717,207.333,333.731z"/>
	<path style="fill:#3F6273;" d="M13.59,170.527c0-3.266,0-6.131,0-8.996c-1.191,0.634-2.404,2.643-2.524,4.329
		C10.933,167.752,11.87,169.111,13.59,170.527z"/>
	<path style="fill:#3F6273;" d="M41.381,132.009c0.96,0.84,1.902,1.106,2.892,1.187c0.831,0.068,1.67,0.049,2.505,0.068
		c1.411,0.033,1.849-0.018,1.247-1.719c-0.154-0.434-0.336-0.872-0.584-1.255c-0.525-0.809-1.263-1.043-2.183-0.696
		C43.891,130.11,42.731,130.979,41.381,132.009z"/>
	<path style="fill:#7D94A0;" d="M59.755,115.741c-0.422-0.605-1.066-0.552-1.668-0.545c-1.759,0.02-3.517,0.073-5.276,0.113
		c0.918,0.531,1.917,0.389,2.883,0.295C57.06,115.47,58.408,115.488,59.755,115.741z"/>
	<path style="fill:#7D94A0;" d="M74.034,177.824c-0.256-0.504-0.73-0.467-1.168-0.463c-1.94,0.02-3.88,0.057-5.82,0.087
		c0.739,0.55,1.6,0.418,2.425,0.422C70.992,177.88,72.513,177.842,74.034,177.824z"/>
	<path style="fill:#7D94A0;" d="M61.066,149.049c0.449,0.017,0.899,0.053,1.347,0.046c0.399-0.006,0.746,0.063,0.975,0.434
		c0.34-0.146,0.69-0.273,1.014-0.451c0.08-0.044,0.089-0.249,0.101-0.382c0.004-0.04-0.094-0.13-0.145-0.129
		C63.241,148.577,62.107,148.485,61.066,149.049z"/>
	<path style="fill:#7D94A0;" d="M149.524,356.105c-0.528-0.125-1.016-0.099-1.388,0.375
		C148.667,356.618,149.109,356.413,149.524,356.105z"/>
	<path style="fill:#7D94A0;" d="M195.165,271.862c0.236,0.323,0.528,0.525,0.945,0.457
		C195.887,271.968,195.568,271.825,195.165,271.862z"/>
	<path style="fill:#7D94A0;" d="M164.346,352.43c-0.395-0.153-0.748-0.122-1.022,0.249
		C163.719,352.828,164.058,352.736,164.346,352.43z"/>
	<path style="fill:#7D94A0;" d="M153.237,355.189c-0.378-0.114-0.719-0.089-0.966,0.276
		C152.654,355.595,152.957,355.434,153.237,355.189z"/>
	<path style="fill:#7D94A0;" d="M151.382,355.647c-0.37-0.113-0.705-0.091-0.951,0.263
		C150.805,356.041,151.104,355.887,151.382,355.647z"/>
	<path style="fill:#7D94A0;" d="M147.283,356.632c-0.417-0.096-0.789-0.008-1.113,0.281
		C146.614,357.118,146.969,356.959,147.283,356.632z"/>
	<path style="fill:#7D94A0;" d="M106.823,331.76c-0.262-0.099-0.459-0.018-0.598,0.225
		C106.491,332.093,106.69,332.02,106.823,331.76z"/>
	<path style="fill:#7D94A0;" d="M101.68,332.096c-0.038-0.315-0.217-0.442-0.519-0.407
		C101.257,331.928,101.428,332.066,101.68,332.096z"/>
	<path style="fill:#7D94A0;" d="M197.412,272.898c0.134,0.226,0.316,0.356,0.587,0.311
		C197.882,272.95,197.682,272.855,197.412,272.898z"/>
	<path style="fill:#7D94A0;" d="M196.481,272.455c0.117,0.247,0.302,0.364,0.575,0.313
		C196.937,272.523,196.75,272.41,196.481,272.455z"/>
	<path style="fill:#9DAFB7;" d="M141.942,166.782c0.482,3.947-0.096,7.787-1.077,11.597c-0.916,3.556-1.753,7.133-2.649,10.695
		c-0.326,1.295-0.268,2.636-0.592,3.943c-0.493,1.986-1.477,3.598-2.982,4.899c-2.325,2.009-5.455,2.288-8.035,0.258
		c-0.545-0.429-1.033-0.934-1.537-1.415c-2.463-2.354-4.921-4.714-7.385-7.068c-0.331-0.316-0.63-0.697-1.135-0.738
		c-0.559,3.791,0.716,6.872,3.532,9.31c0.927,0.803,1.919,1.555,2.97,2.174c2.708,1.595,4.69,3.929,6.563,6.405
		c2.466,3.261,4.961,6.5,7.454,9.74c0.277,0.359,0.563,0.749,1.079,0.784c0.597,0.232,1.181,0.038,1.767-0.058
		c2.381-0.39,2.855-0.004,3.209,2.482c0.106,0.743-0.075,1.545,0.382,2.226c1.135,0.177,1.463-0.694,1.739-1.498
		c0.38-1.104,0.7-2.237,0.951-3.379c0.972-4.415,1.96-8.82,2.565-13.32c0.596-4.43,0.949-8.854,0.842-13.317
		c-0.043-1.782,0.439-3.401,1.277-4.93c0.223-0.407,0.438-0.869,0.778-1.152c1.597-1.328,2.778-3.135,4.597-4.193
		c0.469-0.272,0.66-0.615,0.659-1.117c-0.007-2.116,0.012-4.232-0.047-6.347c-0.026-0.942-0.353-1.844-0.748-2.696
		c-0.74-1.595-1.994-2.592-3.671-2.913C148.969,166.488,145.465,166.276,141.942,166.782z"/>
	<path style="fill:#7D94A0;" d="M119.656,157.107c0.109-0.106,0.201-0.271,0.329-0.31c2.574-0.784,4.614-2.361,6.394-4.371
		c1.179-1.332,2.446-2.584,3.665-3.88c0.313-0.333,0.691-0.626,0.798-1.116c-0.711-0.401-1.49-0.274-2.246-0.28
		c-1.069-0.008-2.141-0.01-3.208,0.042c-1.567,0.077-3.028-0.336-4.452-0.926c-1.37-0.568-2.556-1.384-3.316-2.74
		c-0.493-0.879-0.99-1.758-1.527-2.609c-0.95-1.505-2.329-2.196-4.074-2.097c-0.6,0.034-1.035,0.388-1.108,0.996
		c-0.367,3.073-0.275,6.097,1.32,8.854c1.882,3.255,4.395,5.961,7.201,8.397C119.482,157.112,119.58,157.096,119.656,157.107z"/>
	<path style="fill:#9DAFB7;" d="M131.564,128.217c0.196,0.998,1.035,1.083,1.762,1.172c0.828,0.102,1.678,0.045,2.517,0.017
		c1.093-0.038,2.14,0.008,2.937,0.943c0.376,0.441,0.941,0.454,1.457,0.597c1.77,0.49,3.473,1.107,5.056,2.127
		c1.412,0.91,2.913,1.716,4.548,2.186c0.776,0.223,1.058-0.008,0.859-0.75c-0.343-1.279-0.719-2.549-1.308-3.74
		c-0.379-0.766-0.801-1.514-1.13-2.302c-0.973-2.324-2.738-3.892-4.725-5.249c-0.77-0.526-1.603-0.886-2.573-0.844
		c-1.079,0.047-2.127-0.143-3.136-0.561c-2.169-0.898-4.422-1.137-6.737-0.867c0.206,0.091,0.408,0.25,0.618,0.263
		c1.072,0.062,1.571,0.773,1.901,1.687c0.155,0.43,0.344,0.855,0.432,1.3c0.339,1.711-0.012,2.494-1.501,3.451
		C132.226,127.852,131.891,128.028,131.564,128.217z"/>
	<path style="fill:#7D94A0;" d="M83.708,242.749c-0.221,0.049-0.463,0.055-0.661,0.154c-1.414,0.704-2.644,0.312-3.793-0.628
		c-0.295-0.241-0.573-0.525-0.906-0.687c-0.249-0.121-0.575-0.079-0.867-0.109c-0.491,1.36-1.141,2.491-2.864,2.082
		c0.017,1.392,0.712,2.343,1.871,2.984c0.404,0.223,0.81,0.448,1.233,0.627c1.444,0.611,2.729,1.438,3.569,2.827
		c0.389,0.642,0.95,0.747,1.584,0.662c3.272-0.44,4.396-3.689,3.762-6.085c-0.048-0.18-0.329-0.295-0.502-0.44
		c-0.69-0.034-0.992,0.912-1.734,0.728C84.166,244.151,83.937,243.45,83.708,242.749z"/>
	<path style="fill:#EEF1F2;" d="M85.53,211.187c-2.37,0.633-4.79,0.706-7.219,0.688c-1.152,0.419-1.714,1.324-1.955,2.488
		c-0.091,0.44-0.164,0.885-0.246,1.327c3.547,0.19,7.094,0.299,10.643,0.041c0.165-0.337,0.306-0.69,0.499-1.009
		c0.578-0.952,0.566-1.871-0.085-2.78c-0.175-0.244-0.333-0.5-0.499-0.751c-0.167-0.061-0.334-0.122-0.502-0.183
		C86.015,211.291,85.795,211.323,85.53,211.187z"/>
	<path style="fill:#7D94A0;" d="M76.11,215.69c0.081-0.442,0.154-0.887,0.246-1.327c0.241-1.164,0.803-2.07,1.955-2.488
		c-1.266-0.095-2.31-0.706-3.279-1.481c-0.998-0.798-2.1-1.144-3.386-1.049c-1.363,0.1-2.736,0.059-4.104,0.086
		c-0.539,0.011-0.832,0.302-0.876,0.852c0.891,0.21,1.794,0.381,2.671,0.642c0.752,0.224,1.005,0.908,0.762,1.686
		c-0.184,0.588-0.779,0.99-0.709,1.685c0.62,1.164,1.776,1.44,2.877,1.589C73.535,216.056,74.849,216.158,76.11,215.69z"/>
	<path style="fill:#7D94A0;" d="M79.783,200.567c0.291,0.085,0.581,0.237,0.874,0.244c1.131,0.028,2.413,0.523,3.358-0.134
		c1.174-0.816,2.128-1.987,3.09-3.085c0.528-0.603,0.302-1.36-0.361-1.791c-0.735-0.478-1.54-0.628-2.402-0.606
		c-1.448,0.037-2.896,0.038-4.344,0.054C79.927,197.021,79.855,198.794,79.783,200.567z"/>
	<path style="fill:#EEF1F2;" d="M74.616,243.56c1.723,0.409,2.373-0.722,2.864-2.082c-0.389-1.52-0.525-3.059-0.363-4.627
		c0.048-0.463,0.053-0.934,0.035-1.4c-0.076-2.046-1.548-2.838-3.302-1.783c-0.518,0.312-0.768,0.816-0.61,1.385
		c0.206,0.743,0.514,1.461,0.822,2.169c0.561,1.293,1.09,2.551,0.506,4.024C74.28,241.973,74.537,242.788,74.616,243.56z"/>
	<path style="fill:#7D94A0;" d="M90.639,263.439c-0.535,0.027-0.765,0.022-0.992,0.052c-0.809,0.106-1.239,0.569-1.29,1.371
		c-0.165,2.569,2.191,4.943,4.621,4.655c0.901-0.107,1.571-0.718,1.698-1.62c0.267-1.888-0.553-3.184-1.73-3.719
		C92.104,263.794,91.29,263.372,90.639,263.439z"/>
	<path style="fill:#7D94A0;" d="M87.788,256.261c0.214,1.454,0.41,2.91,0.655,4.359c0.06,0.355,0.423,0.453,0.727,0.359
		c0.28-0.087,0.556-0.254,0.781-0.449c1.151-0.998,1.801-2.287,2.039-3.8c0.108-0.688,0.212-1.377,0.316-2.066
		c0.168-1.112-0.334-2.087-1.374-2.685c-0.307-0.177-0.574-0.061-0.853,0.083C88.391,252.935,87.611,254.31,87.788,256.261z"/>
	<path style="fill:#7D94A0;" d="M86.668,211.191c0.166,0.251,0.324,0.507,0.499,0.751c0.651,0.908,0.663,1.827,0.085,2.78
		c-0.194,0.319-0.334,0.672-0.499,1.009c1.437,0.229,2.89,0.219,4.324,0.093c2.038-0.178,3.167-2.129,2.446-4.065
		c-0.165-0.444-0.423-0.865-0.963-0.856C90.594,210.934,88.611,210.651,86.668,211.191z"/>
	<path style="fill:#EEF1F2;" d="M76.971,268.335c-0.907-0.554-1.133-1.632-1.766-2.401c-0.518-0.629-1.06-1.132-1.944-0.93
		c-0.004,1.317-0.064,2.637,0.007,3.95c0.054,0.998,0.206,2.005,0.444,2.975c0.215,0.875,0.819,1.472,1.73,1.656
		c0.884,0.178,1.757-0.413,1.755-1.322C77.195,270.954,77.053,269.645,76.971,268.335z"/>
	<path style="fill:#EEF1F2;" d="M69.389,214.295c-0.071-0.695,0.525-1.097,0.709-1.685c0.243-0.777-0.01-1.462-0.762-1.686
		c-0.877-0.261-1.779-0.432-2.671-0.642c-1.133,0.134-2.264,0.298-3.4,0.392c-0.813,0.067-0.984,0.631-0.819,1.306
		c0.037,0.15,0.058,0.339,0.157,0.431c1.052,0.974,1.986,2.179,3.615,2.113C67.277,214.481,68.352,214.664,69.389,214.295z"/>
	<path style="fill:#EEF1F2;" d="M143.505,222.015c-0.457-0.681-0.277-1.483-0.382-2.226c-0.354-2.486-0.827-2.872-3.209-2.482
		c-0.586,0.096-1.17,0.291-1.767,0.058c-0.409,1.355,0.054,2.427,1.083,3.266c0.882,0.719,1.797,1.399,2.729,2.05
		c0.22,0.153,0.571,0.186,0.85,0.157C143.249,222.791,143.344,222.356,143.505,222.015z"/>
	<path style="fill:#EEF1F2;" d="M91.888,188.737c-0.567-0.388-1.12-0.798-1.704-1.158c-0.649-0.4-1.206-0.287-1.575,0.33
		c-0.988,1.653-1.063,3.373-0.24,5.11c0.414,0.874,1.084,1.09,1.881,0.638c0.529-0.3,1.019-0.671,1.527-1.011
		C91.814,191.344,91.851,190.041,91.888,188.737z"/>
	<path style="fill:#EEF1F2;" d="M70.366,237.072c-0.934,0.404-1.648,1.103-2.281,1.875c-1.166,1.423-0.977,2.636,0.55,3.699
		c0.561,0.39,1.156,0.729,1.736,1.091c1.142-1.159,1.302-2.558,0.885-4.057C71.009,238.796,70.666,237.941,70.366,237.072z"/>
	<path style="fill:#EEF1F2;" d="M83.708,242.749c0.229,0.701,0.458,1.402,0.691,2.113c0.742,0.184,1.044-0.762,1.734-0.728
		c0.073-0.136,0.184-0.265,0.213-0.41c0.254-1.297,0.195-4.765-0.095-6.459c-0.721-0.203-1.366-0.055-1.878,0.502
		c-0.448,0.488-0.534,1.126-0.449,1.75C84.073,240.617,83.978,241.686,83.708,242.749z"/>
	<path style="fill:#7D94A0;" d="M79.029,257.52c-0.062,1.06,0.259,1.653,0.702,2.215c0.712,0.904,1.435,1.797,1.897,2.884
		c0.382,0.897,0.901,0.94,1.439,0.221c0.779-1.04,0.907-2.131,0.192-3.232c-0.755-1.162-1.565-2.289-2.593-3.226
		c-0.56-0.511-1.196-0.369-1.44,0.324C79.101,257.066,79.045,257.45,79.029,257.52z"/>
	<path style="fill:#7D94A0;" d="M91.888,188.737c-0.037,1.304-0.074,2.607-0.111,3.911c0.85,0.349,1.659,0.822,2.62,0.809
		c0.804-0.011,1.306-0.345,1.589-1.096c0.228-0.603,0.245-1.23,0.179-1.854c-0.11-1.044-0.943-1.882-1.989-1.919
		C93.416,188.56,92.651,188.682,91.888,188.737z"/>
	<path style="fill:#EEF1F2;" d="M79.783,200.567c0.072-1.773,0.144-3.546,0.216-5.319c-0.349-0.469-0.715-0.915-1.324-1.039
		c-0.836,0.19-1.286,0.636-1.29,1.597c-0.004,0.923,0.1,1.886-0.352,2.759c0.079,0.207,0.149,0.417,0.239,0.62
		C77.914,200.633,78.031,200.696,79.783,200.567z"/>
	<path style="fill:#7D94A0;" d="M120.508,129.253c1.671,0.239,3.349,0.112,5.023,0.074c0.359-0.008,0.714-0.216,1.071-0.332
		c-1.752-0.021-3.504-0.058-5.256-0.05C121.066,128.947,120.787,129.146,120.508,129.253z"/>
	<path style="fill:#7D94A0;" d="M85.53,211.187c0.265,0.136,0.485,0.104,0.637-0.179C85.9,210.865,85.688,210.927,85.53,211.187z"/>
	<path style="fill:#7D94A0;" d="M160.538,34.706c0.017,0.162,0.048,0.707,0.141,1.241c0.098,0.568,0.633,0.76,1.006,0.366
		c0.956-1.01,1.894-2.055,2.496-3.325c1.23-2.595,2.394-5.223,3.577-7.842c0.093-0.206,0.155-0.441,0.169-0.667
		c0.022-0.345-0.216-0.562-0.46-0.755c-0.277-0.219-0.566-0.164-0.85-0.01c-0.066,0.036-0.123,0.092-0.177,0.147
		c-1.893,1.933-3.725,3.918-4.911,6.414C160.85,31.704,160.549,32.983,160.538,34.706z"/>
	<path style="fill:#7D94A0;" d="M60.133,10.112c0.075,0.163,0.16,0.47,0.336,0.705c0.385,0.512,0.943,0.793,1.532,0.978
		c0.656,0.205,1.324,0.372,1.993,0.533c1.009,0.243,1.82,0.692,2.305,1.721c0.574,1.219,1.653,2.029,2.568,2.966
		c0.416,0.427,0.947,0.466,1.496,0.371c1.246-0.215,1.579-0.89,0.89-1.96c-1.009-1.566-2.076-3.101-3.509-4.303
		c-2.058-1.728-4.378-2.464-7.031-1.785C60.391,9.42,60.177,9.612,60.133,10.112z"/>
	<path style="fill:#EEF1F2;" d="M181.274,67.005c1.462-2.819,1.262-4.205-0.688-5.836c-0.647-0.541-1.375-0.982-2.073-1.457
		c-0.312-0.212-0.607-0.489-1.139-0.393c-0.369,1.437,0.129,2.703,0.936,3.844C179.198,64.42,180.185,65.604,181.274,67.005z"/>
	<path style="fill:#7D94A0;" d="M180.544,95.505c0.199-0.018,0.41-0.055,0.422-0.299c0.003-0.058-0.214-0.17-0.337-0.181
		c-0.196-0.018-0.407,0.051-0.42,0.293C180.206,95.374,180.426,95.442,180.544,95.505z"/>
	<path style="fill:#EEF1F2;" d="M55.209,265.743c1.043,0.179,1.554,0.9,1.756,1.879c0.093,0.451,0.071,0.926,0.101,1.39
		c0.364,0.117,0.724,0.251,1.094,0.347c1.517,0.392,3.018-0.727,2.963-2.298c-0.047-1.323-0.162-2.657-0.404-3.955
		c-0.464-2.489-3.478-3.744-5.582-2.374c-0.245,0.16-0.543,0.421-0.592,0.679C54.259,262.925,53.879,264.479,55.209,265.743z"/>
</g>
</svg>
