<?xml version="1.0" encoding="iso-8859-1"?>
<!-- Generator: Adobe Illustrator 19.1.0, SVG Export Plug-In . SVG Version: 6.00 Build 0)  -->
<svg version="1.1" id="Layer_1" xmlns="http://www.w3.org/2000/svg" xmlns:xlink="http://www.w3.org/1999/xlink" x="0px" y="0px"
	 viewBox="0 0 213 218" style="enable-background:new 0 0 213 218;" xml:space="preserve">
<g>
	<path style="fill:#C7A462;" d="M187.5,0h-162C11.439,0,0,11.439,0,25.5v162C0,201.56,11.439,213,25.5,213h19.48v-1H25.5
		C11.991,212,1,201.009,1,187.5v-162C1,11.991,11.991,1,25.5,1h162C201.01,1,212,11.991,212,25.5v162c0,13.51-10.99,24.5-24.5,24.5
		h-23.48v1h23.48c14.061,0,25.5-11.439,25.5-25.5v-162C213,11.439,201.561,0,187.5,0z"/>
	<g>
		<path style="fill:#C7A462;" d="M62.256,218c-1.852,0-3.295-0.57-4.33-1.711s-1.553-2.738-1.553-4.793c0-2.031,0.5-3.658,1.5-4.881
			s2.348-1.834,4.043-1.834c1.5,0,2.684,0.523,3.551,1.57s1.301,2.469,1.301,4.266v0.938h-9.176c0.016,1.75,0.424,3.086,1.225,4.008
			s1.947,1.383,3.439,1.383c0.727,0,1.365-0.051,1.916-0.152s1.248-0.32,2.092-0.656v1.055c-0.719,0.313-1.383,0.525-1.992,0.639
			S62.99,218,62.256,218z M61.916,205.813c-1.227,0-2.211,0.404-2.953,1.213s-1.176,1.975-1.301,3.498h7.875
			c0-1.477-0.32-2.631-0.961-3.463S63.049,205.813,61.916,205.813z"/>
		<path style="fill:#C7A462;" d="M86.678,217.766v-8.355c0-1.242-0.242-2.148-0.727-2.719s-1.227-0.855-2.227-0.855
			c-1.305,0-2.27,0.359-2.895,1.078s-0.938,1.848-0.938,3.387v7.465h-1.184v-8.707c0-2.148-0.984-3.223-2.953-3.223
			c-1.336,0-2.309,0.389-2.918,1.166s-0.914,2.021-0.914,3.732v7.031h-1.16v-12.738h0.961l0.246,1.746h0.07
			c0.352-0.633,0.852-1.123,1.5-1.471s1.363-0.521,2.145-0.521c2.008,0,3.297,0.754,3.867,2.262H79.6
			c0.414-0.727,0.971-1.285,1.67-1.676s1.494-0.586,2.385-0.586c1.391,0,2.434,0.371,3.129,1.113s1.043,1.922,1.043,3.539v8.332
			H86.678z"/>
		<path style="fill:#C7A462;" d="M100.165,217.766l-0.293-2.016h-0.094c-0.641,0.82-1.299,1.4-1.975,1.74S96.329,218,95.407,218
			c-1.25,0-2.223-0.32-2.918-0.961s-1.043-1.527-1.043-2.66c0-1.242,0.518-2.207,1.553-2.895s2.533-1.051,4.494-1.09l2.426-0.07
			v-0.844c0-1.211-0.246-2.125-0.738-2.742s-1.285-0.926-2.379-0.926c-1.18,0-2.402,0.328-3.668,0.984l-0.434-1.008
			c1.398-0.656,2.781-0.984,4.148-0.984c1.398,0,2.443,0.363,3.135,1.09s1.037,1.859,1.037,3.398v8.473H100.165z M95.478,216.946
			c1.359,0,2.432-0.389,3.217-1.166s1.178-1.857,1.178-3.24v-1.254l-2.227,0.094c-1.789,0.086-3.064,0.365-3.826,0.838
			s-1.143,1.209-1.143,2.209c0,0.797,0.244,1.416,0.732,1.857S94.587,216.946,95.478,216.946z"/>
		<path style="fill:#C7A462;" d="M105.462,201.489c0-0.75,0.246-1.125,0.738-1.125c0.242,0,0.432,0.098,0.568,0.293
			s0.205,0.473,0.205,0.832c0,0.352-0.068,0.629-0.205,0.832s-0.326,0.305-0.568,0.305
			C105.708,202.625,105.462,202.246,105.462,201.489z M106.786,217.766h-1.16v-12.738h1.16V217.766z"/>
		<path style="fill:#C7A462;" d="M112.691,217.766h-1.16v-18.234h1.16V217.766z"/>
		<path style="fill:#C7A462;" d="M125.159,205.028v8.25c0,1.281,0.27,2.213,0.809,2.795s1.375,0.873,2.508,0.873
			c1.516,0,2.631-0.383,3.346-1.148s1.072-2.012,1.072-3.738v-7.031h1.148v12.738h-0.984l-0.211-1.758h-0.07
			c-0.828,1.328-2.301,1.992-4.418,1.992c-2.898,0-4.348-1.551-4.348-4.652v-8.32H125.159z"/>
		<path style="fill:#C7A462;" d="M146.687,214.45c0,1.141-0.434,2.018-1.301,2.631s-2.098,0.92-3.691,0.92
			c-1.703,0-3.055-0.262-4.055-0.785v-1.254c1.281,0.641,2.633,0.961,4.055,0.961c1.258,0,2.213-0.209,2.865-0.627
			s0.979-0.975,0.979-1.67c0-0.641-0.26-1.18-0.779-1.617s-1.373-0.867-2.561-1.289c-1.273-0.461-2.168-0.857-2.684-1.189
			s-0.904-0.707-1.166-1.125s-0.393-0.928-0.393-1.529c0-0.953,0.4-1.707,1.201-2.262s1.92-0.832,3.357-0.832
			c1.375,0,2.68,0.258,3.914,0.773l-0.434,1.055c-1.25-0.516-2.41-0.773-3.48-0.773c-1.039,0-1.863,0.172-2.473,0.516
			s-0.914,0.82-0.914,1.43c0,0.664,0.236,1.195,0.709,1.594s1.396,0.844,2.771,1.336c1.148,0.414,1.984,0.787,2.508,1.119
			s0.916,0.709,1.178,1.131S146.687,213.879,146.687,214.45z"/>
		<path style="fill:#C7A462;" d="M150.213,206.387c0-0.766,0.313-1.148,0.938-1.148c0.641,0,0.961,0.383,0.961,1.148
			c0,0.414-0.092,0.711-0.275,0.891s-0.412,0.27-0.686,0.27c-0.266,0-0.488-0.09-0.668-0.27S150.213,206.801,150.213,206.387z
			 M150.213,216.852c0-0.766,0.313-1.148,0.938-1.148c0.641,0,0.961,0.383,0.961,1.148S151.791,218,151.15,218
			C150.525,218,150.213,217.618,150.213,216.852z"/>
	</g>
	<path style="fill:none;stroke:#C7A462;stroke-miterlimit:10;" d="M110.08,89.597c0,1.959-1.593,3.552-3.552,3.552
		s-3.552-1.593-3.552-3.552c0-1.958,1.594-3.552,3.552-3.552C108.487,86.045,110.08,87.639,110.08,89.597z M72.5,95.895
		l-5.021,4.547H72.5V95.895z M140.5,103.441v1.961l5.136-1.961H140.5z M140.5,95.893v4.549h6.209L140.5,95.893z M101.569,120.621
		L75.5,107.025V67.441h62v39.585l-25.494,13.595l-4.133-2.784c-0.513-0.34-1.477-0.34-1.989,0L101.569,120.621z M107.093,105.441
		h12.199c0.846,0,1.531-0.655,1.531-1.5c0-0.846-0.685-1.5-1.531-1.5h-12.199c-5.883,0-10.593-5.493-10.593-11.376v-0.451
		c0-5.883,4.618-10.669,10.501-10.669c5.883,0,10.499,4.786,10.499,10.669v1.13c0,1.274-1.227,2.31-2.499,2.31
		c-1.274,0-2.501-1.036-2.501-2.31v-2.146c0-3.647-2.646-6.615-6.293-6.615c-3.647,0-6.454,2.968-6.454,6.615
		c0,3.648,3.048,6.614,6.695,6.614c1.668,0,3.232-0.621,4.398-1.644c0.948,1.528,1.998,2.548,3.925,2.548
		c2.962,0,4.73-2.409,4.73-5.372v-1.13c0-7.572-5.428-13.731-12.999-13.731c-7.572,0-13.001,6.16-13.001,13.731v0.451
		C93.5,98.637,99.522,105.441,107.093,105.441z M67.478,148.441h79.231l-39.616-26.26L67.478,148.441z M149.5,145.89v-42.022
		l-35.214,18.679L149.5,145.89z M63.5,103.868v42.021l35.214-23.342L63.5,103.868z M72.5,103.441h-3.947l3.947,1.96V103.441z
		 M152.5,101.322v47.42c0,0.846,0.136,2.7-0.71,2.7H62.398c-0.845,0-1.898-1.854-1.898-2.7v-47.42c0-0.532,0.639,0.119,1.053-0.881
		h0.08l10.868-8.22V66.058c0-0.845,1.541-1.617,2.387-1.617h64.412c0.845,0,1.201,0.772,1.201,1.617v26.161l11.56,7.827
		C152.473,100.32,152.5,100.79,152.5,101.322z M140.5,100.441h6.209l-6.209-4.549V100.441z M140.5,105.402l5.136-1.961H140.5
		V105.402z M75.5,107.025l26.069,13.596l4.309-2.784c0.512-0.34,1.305-0.34,1.818,0l4.227,2.784l25.577-13.595V67.441h-62V107.025z
		 M67.479,100.441H72.5v-4.547L67.479,100.441z M68.553,103.441l3.947,1.96v-1.96H68.553z M63.5,145.889l35.214-23.342L63.5,103.868
		V145.889z M146.709,148.441l-39.616-26.26l-39.615,26.26H146.709z M149.5,103.868l-35.214,18.679L149.5,145.89V103.868z
		 M107.093,105.441c-7.572,0-13.593-6.804-13.593-14.376v-0.451c0-7.572,5.429-13.731,13.001-13.731
		c7.572,0,12.999,6.16,12.999,13.731v1.13c0,2.963-1.752,5.372-4.714,5.372c-1.927,0-3.294-1.02-4.242-2.548
		c-1.165,1.023-2.532,1.644-4.2,1.644c-3.647,0-6.548-2.967-6.548-6.614c0-3.647,2.722-6.615,6.369-6.615
		c3.648,0,6.335,2.968,6.335,6.615v2.146c0,1.274,1.227,2.31,2.501,2.31c1.273,0,2.499-1.036,2.499-2.31v-1.13
		c0-5.883-4.617-10.669-10.499-10.669c-5.883,0-10.501,4.786-10.501,10.669v0.451c0,5.883,4.711,11.376,10.593,11.376h12.199
		c0.846,0,1.531,0.654,1.531,1.5c0,0.845-0.685,1.5-1.531,1.5H107.093z M110.08,89.597c0-1.958-1.593-3.552-3.552-3.552
		c-1.958,0-3.552,1.594-3.552,3.552c0,1.959,1.593,3.552,3.552,3.552S110.08,91.556,110.08,89.597z"/>
</g>
</svg>
