<?xml version="1.0" encoding="iso-8859-1"?>
<!-- Generator: Adobe Illustrator 19.1.0, SVG Export Plug-In . SVG Version: 6.00 Build 0)  -->
<svg version="1.1" id="Layer_1" xmlns="http://www.w3.org/2000/svg" xmlns:xlink="http://www.w3.org/1999/xlink" x="0px" y="0px"
	 viewBox="0 0 11.786 23.109" style="enable-background:new 0 0 11.786 23.109;" xml:space="preserve">
<path style="fill:#FFFFFF;" d="M7.712,23.109H2.739V12.748H0V7.99h2.739V5.317C2.739,2.865,4.274,0,8.601,0
	c1.525,0,2.645,0.143,2.692,0.149l0.459,0.06l-0.111,4.453l-0.506-0.005c-0.001,0-1.138-0.011-2.378-0.011
	c-0.923,0-1.045,0.228-1.045,1.134v2.21h4.073l-0.226,4.759H7.713v10.36H7.712z M3.767,22.081h2.916V11.72h3.894l0.129-2.702H6.683
	V5.779c0-1.069,0.246-2.162,2.074-2.162c0.734,0,1.432,0.004,1.88,0.007L10.7,1.121C10.246,1.08,9.491,1.028,8.6,1.028
	c-3.563,0-4.834,2.216-4.834,4.289v3.7H1.027v2.702h2.739L3.767,22.081L3.767,22.081z M3.767,22.081"/>
</svg>
