<?xml version="1.0" encoding="iso-8859-1"?>
<!-- Generator: Adobe Illustrator 19.1.0, SVG Export Plug-In . SVG Version: 6.00 Build 0)  -->
<svg version="1.1" id="Layer_1" xmlns="http://www.w3.org/2000/svg" xmlns:xlink="http://www.w3.org/1999/xlink" x="0px" y="0px"
	 viewBox="0 0 213 239" style="enable-background:new 0 0 213 239;" xml:space="preserve">
<g>
	<path style="fill:#C7A462;" d="M187.5,26H179v1h8.5c13.51,0,24.5,10.99,24.5,24.5v162c0,13.51-10.99,24.5-24.5,24.5h-162
		C11.991,238,1,227.01,1,213.5v-162C1,37.991,11.991,27,25.5,27H34v-1h-8.5C11.439,26,0,37.44,0,51.5v162
		C0,227.561,11.439,239,25.5,239h162c14.061,0,25.5-11.439,25.5-25.5v-162C213,37.44,201.561,26,187.5,26z"/>
	<g>
		<path style="fill:#C7A462;" d="M39.803,18.234h-1.195V1.102h9.387v1.102h-8.191v7.266h7.734v1.113h-7.734V18.234z"/>
		<path style="fill:#C7A462;" d="M60.896,11.848c0,2.078-0.504,3.701-1.512,4.869s-2.398,1.752-4.172,1.752
			c-1.117,0-2.102-0.27-2.953-0.809s-1.504-1.313-1.957-2.32s-0.68-2.172-0.68-3.492c0-2.078,0.504-3.697,1.512-4.857
			s2.391-1.74,4.148-1.74c1.75,0,3.123,0.588,4.119,1.764S60.896,9.801,60.896,11.848z M50.842,11.848
			c0,1.75,0.385,3.115,1.154,4.096s1.857,1.471,3.264,1.471s2.494-0.49,3.264-1.471s1.154-2.346,1.154-4.096
			c0-1.758-0.389-3.121-1.166-4.09s-1.869-1.453-3.275-1.453s-2.49,0.482-3.252,1.447S50.842,10.082,50.842,11.848z"/>
		<path style="fill:#C7A462;" d="M65.584,18.234h-1.16V0h1.16V18.234z"/>
		<path style="fill:#C7A462;" d="M71.01,18.234h-1.16V0h1.16V18.234z"/>
		<path style="fill:#C7A462;" d="M85.811,11.848c0,2.078-0.504,3.701-1.512,4.869s-2.398,1.752-4.172,1.752
			c-1.117,0-2.102-0.27-2.953-0.809s-1.504-1.313-1.957-2.32s-0.68-2.172-0.68-3.492c0-2.078,0.504-3.697,1.512-4.857
			s2.391-1.74,4.148-1.74c1.75,0,3.123,0.588,4.119,1.764C85.312,8.189,85.811,9.801,85.811,11.848z M75.756,11.848
			c0,1.75,0.385,3.115,1.154,4.096s1.857,1.471,3.264,1.471s2.494-0.49,3.264-1.471c0.77-0.98,1.154-2.346,1.154-4.096
			c0-1.758-0.389-3.121-1.166-4.09s-1.869-1.453-3.275-1.453s-2.49,0.482-3.252,1.447S75.756,10.082,75.756,11.848z"/>
		<path style="fill:#C7A462;" d="M99.521,18.234l-2.789-8.52c-0.18-0.578-0.41-1.426-0.691-2.543h-0.07l-0.246,0.867l-0.527,1.699
			l-2.836,8.496h-1.148L87.568,5.496h1.242l2.039,7.383c0.477,1.828,0.789,3.172,0.938,4.031h0.07
			c0.461-1.828,0.797-3.043,1.008-3.645l2.625-7.77h1.055l2.496,7.746c0.563,1.836,0.906,3.051,1.031,3.645h0.07
			c0.063-0.508,0.375-1.867,0.938-4.078l1.945-7.313h1.172l-3.457,12.738H99.521z"/>
		<path style="fill:#C7A462;" d="M113.936,5.496v8.25c0,1.281,0.27,2.213,0.809,2.795s1.375,0.873,2.508,0.873
			c1.516,0,2.631-0.383,3.346-1.148c0.715-0.766,1.072-2.012,1.072-3.738V5.496h1.148v12.738h-0.984l-0.211-1.758h-0.07
			c-0.828,1.328-2.301,1.992-4.418,1.992c-2.898,0-4.348-1.551-4.348-4.652v-8.32H113.936z"/>
		<path style="fill:#C7A462;" d="M134.982,14.918c0,1.141-0.434,2.018-1.301,2.631s-2.098,0.92-3.691,0.92
			c-1.703,0-3.055-0.262-4.055-0.785V16.43c1.281,0.641,2.633,0.961,4.055,0.961c1.258,0,2.213-0.209,2.865-0.627
			s0.979-0.975,0.979-1.67c0-0.641-0.26-1.18-0.779-1.617s-1.373-0.867-2.561-1.289c-1.273-0.461-2.168-0.857-2.684-1.189
			s-0.904-0.707-1.166-1.125s-0.393-0.928-0.393-1.529c0-0.953,0.4-1.707,1.201-2.262s1.92-0.832,3.357-0.832
			c1.375,0,2.68,0.258,3.914,0.773l-0.434,1.055c-1.25-0.516-2.41-0.773-3.48-0.773c-1.039,0-1.863,0.172-2.473,0.516
			s-0.914,0.82-0.914,1.43c0,0.664,0.236,1.195,0.709,1.594s1.396,0.844,2.771,1.336c1.148,0.414,1.984,0.787,2.508,1.119
			s0.916,0.709,1.178,1.131S134.982,14.348,134.982,14.918z"/>
		<path style="fill:#C7A462;" d="M155.033,11.848c0,2.078-0.504,3.701-1.512,4.869s-2.398,1.752-4.172,1.752
			c-1.117,0-2.102-0.27-2.953-0.809s-1.504-1.313-1.957-2.32s-0.68-2.172-0.68-3.492c0-2.078,0.504-3.697,1.512-4.857
			s2.391-1.74,4.148-1.74c1.75,0,3.123,0.588,4.119,1.764S155.033,9.801,155.033,11.848z M144.979,11.848
			c0,1.75,0.385,3.115,1.154,4.096s1.857,1.471,3.264,1.471s2.494-0.49,3.264-1.471s1.154-2.346,1.154-4.096
			c0-1.758-0.389-3.121-1.166-4.09s-1.869-1.453-3.275-1.453s-2.49,0.482-3.252,1.447S144.979,10.082,144.979,11.848z"/>
		<path style="fill:#C7A462;" d="M167.443,18.234V9.973c0-1.281-0.27-2.213-0.809-2.795s-1.375-0.873-2.508-0.873
			c-1.523,0-2.639,0.385-3.346,1.154s-1.061,2.018-1.061,3.744v7.031h-1.16V5.496h0.984l0.223,1.746h0.07
			c0.828-1.328,2.301-1.992,4.418-1.992c2.891,0,4.336,1.551,4.336,4.652v8.332H167.443z"/>
		<path style="fill:#C7A462;" d="M58.441,43.234h-1.195V26.102h9.387v1.102h-8.191v7.266h7.734v1.113h-7.734V43.234z"/>
		<path style="fill:#C7A462;" d="M76.734,43.234l-0.293-2.016h-0.094c-0.641,0.82-1.299,1.4-1.975,1.74s-1.475,0.51-2.396,0.51
			c-1.25,0-2.223-0.32-2.918-0.961s-1.043-1.527-1.043-2.66c0-1.242,0.518-2.207,1.553-2.895s2.533-1.051,4.494-1.09l2.426-0.07
			v-0.844c0-1.211-0.246-2.125-0.738-2.742s-1.285-0.926-2.379-0.926c-1.18,0-2.402,0.328-3.668,0.984l-0.434-1.008
			c1.398-0.656,2.781-0.984,4.148-0.984c1.398,0,2.443,0.363,3.135,1.09s1.037,1.859,1.037,3.398v8.473H76.734z M72.047,42.414
			c1.359,0,2.432-0.389,3.217-1.166s1.178-1.857,1.178-3.24v-1.254l-2.227,0.094c-1.789,0.086-3.064,0.365-3.826,0.838
			s-1.143,1.209-1.143,2.209c0,0.797,0.244,1.416,0.732,1.857S71.156,42.414,72.047,42.414z"/>
		<path style="fill:#C7A462;" d="M86.801,43.469c-1.82,0-3.246-0.574-4.277-1.723s-1.547-2.75-1.547-4.805
			c0-2.109,0.535-3.752,1.605-4.928s2.535-1.764,4.395-1.764c1.102,0,2.156,0.191,3.164,0.574l-0.316,1.031
			c-1.102-0.367-2.059-0.551-2.871-0.551c-1.563,0-2.746,0.482-3.551,1.447s-1.207,2.354-1.207,4.166
			c0,1.719,0.402,3.064,1.207,4.037s1.93,1.459,3.375,1.459c1.156,0,2.23-0.207,3.223-0.621v1.078
			C89.187,43.27,88.121,43.469,86.801,43.469z"/>
		<path style="fill:#C7A462;" d="M98.262,43.469c-1.852,0-3.295-0.57-4.33-1.711s-1.553-2.738-1.553-4.793
			c0-2.031,0.5-3.658,1.5-4.881s2.348-1.834,4.043-1.834c1.5,0,2.684,0.523,3.551,1.57s1.301,2.469,1.301,4.266v0.938h-9.176
			c0.016,1.75,0.424,3.086,1.225,4.008s1.947,1.383,3.439,1.383c0.727,0,1.365-0.051,1.916-0.152s1.248-0.32,2.092-0.656v1.055
			c-0.719,0.313-1.383,0.525-1.992,0.639S98.996,43.469,98.262,43.469z M97.922,31.281c-1.227,0-2.211,0.404-2.953,1.213
			s-1.176,1.975-1.301,3.498h7.875c0-1.477-0.32-2.631-0.961-3.463S99.055,31.281,97.922,31.281z"/>
		<path style="fill:#C7A462;" d="M111.668,30.25c1.781,0,3.123,0.561,4.025,1.682s1.354,2.76,1.354,4.916
			c0,2.117-0.475,3.75-1.424,4.898s-2.283,1.723-4.002,1.723c-0.906,0-1.723-0.188-2.449-0.563s-1.301-0.906-1.723-1.594h-0.105
			l-0.328,1.922h-0.727V25h1.16v4.582c0,0.688-0.016,1.32-0.047,1.898l-0.035,0.996h0.082c0.484-0.766,1.068-1.328,1.752-1.688
			S110.707,30.25,111.668,30.25z M111.645,31.305c-1.5,0-2.574,0.43-3.223,1.289s-0.973,2.277-0.973,4.254v0.199
			c0,1.922,0.338,3.301,1.014,4.137s1.729,1.254,3.158,1.254c1.391,0,2.438-0.486,3.141-1.459s1.055-2.357,1.055-4.154
			C115.816,33.145,114.426,31.305,111.645,31.305z"/>
		<path style="fill:#C7A462;" d="M131.109,36.848c0,2.078-0.504,3.701-1.512,4.869s-2.398,1.752-4.172,1.752
			c-1.117,0-2.102-0.27-2.953-0.809s-1.504-1.313-1.957-2.32c-0.453-1.008-0.68-2.172-0.68-3.492c0-2.078,0.504-3.697,1.512-4.857
			s2.391-1.74,4.148-1.74c1.75,0,3.123,0.588,4.119,1.764S131.109,34.801,131.109,36.848z M121.055,36.848
			c0,1.75,0.385,3.115,1.154,4.096s1.857,1.471,3.264,1.471s2.494-0.49,3.264-1.471s1.154-2.346,1.154-4.096
			c0-1.758-0.389-3.121-1.166-4.09s-1.869-1.453-3.275-1.453s-2.49,0.482-3.252,1.447S121.055,35.082,121.055,36.848z"/>
		<path style="fill:#C7A462;" d="M145.172,36.848c0,2.078-0.504,3.701-1.512,4.869s-2.398,1.752-4.172,1.752
			c-1.117,0-2.102-0.27-2.953-0.809s-1.504-1.313-1.957-2.32s-0.68-2.172-0.68-3.492c0-2.078,0.504-3.697,1.512-4.857
			s2.391-1.74,4.148-1.74c1.75,0,3.123,0.588,4.119,1.764S145.172,34.801,145.172,36.848z M135.117,36.848
			c0,1.75,0.385,3.115,1.154,4.096s1.857,1.471,3.264,1.471s2.494-0.49,3.264-1.471s1.154-2.346,1.154-4.096
			c0-1.758-0.389-3.121-1.166-4.09s-1.869-1.453-3.275-1.453s-2.49,0.482-3.252,1.447S135.117,35.082,135.117,36.848z"/>
		<path style="fill:#C7A462;" d="M149.836,37.645l6.504-7.148h1.406l-5.016,5.438l5.449,7.301h-1.395l-4.84-6.434l-2.086,1.898
			v4.535h-1.16V25h1.16v9.141l-0.082,3.504H149.836z"/>
	</g>
	<path style="fill:none;stroke:#C7A462;stroke-miterlimit:10;" d="M113.321,175.83H94.674v-38.855H84.401v-17.843h10.273v-10.021
		c0-9.198,5.755-19.939,21.981-19.939c5.72,0,9.92,0.536,10.096,0.56l1.721,0.224l-0.414,16.698l-1.897-0.017
		c-0.004,0-4.267-0.04-8.918-0.04c-3.46,0-3.918,0.854-3.918,4.251v8.288h15.274l-0.846,17.844h-14.426v38.851H113.321z
		 M98.528,171.973h10.935v-38.852h14.603l0.483-10.134h-15.086v-12.145c0-4.009,0.924-8.106,7.777-8.106
		c2.753,0,5.369,0.013,7.052,0.026l0.234-9.388c-1.704-0.152-4.535-0.347-7.875-0.347c-13.362,0-18.126,8.309-18.126,16.084v13.877
		H88.253v10.134h10.273v38.852H98.528z M98.528,171.973"/>
</g>
</svg>
