<?xml version="1.0" encoding="iso-8859-1"?>
<!-- Generator: Adobe Illustrator 19.1.0, SVG Export Plug-In . SVG Version: 6.00 Build 0)  -->
<svg version="1.1" xmlns="http://www.w3.org/2000/svg" xmlns:xlink="http://www.w3.org/1999/xlink" x="0px" y="0px"
	 viewBox="0 0 17.688 35.25" style="enable-background:new 0 0 17.688 35.25;" xml:space="preserve">
<g id="Layer_1">
	<g id="Layer_2">
		<rect x="-1874.063" y="-98.75" style="stroke:#FFFFFF;stroke-miterlimit:10;" width="957.001" height="560"/>
	</g>
	<path style="fill:#FFFFFF;" d="M-1338.942,297.091h-49.726V193.478h-27.395v-47.582h27.395v-26.723
		c0-24.527,15.347-53.172,58.617-53.172c15.254,0,26.453,1.43,26.922,1.492l4.589,0.598l-1.105,44.527l-5.059-0.046
		c-0.011,0-11.379-0.106-23.781-0.106c-9.226,0-10.449,2.277-10.449,11.336v22.102h40.73l-2.257,47.585h-38.469v103.602H-1338.942z
		 M-1378.391,286.806h29.16V183.2h38.941l1.289-27.023h-40.23V123.79c0-10.691,2.465-21.617,20.738-21.617
		c7.34,0,14.317,0.035,18.805,0.07l0.625-25.035c-4.543-0.406-12.094-0.926-21-0.926c-35.633,0-48.336,22.157-48.336,42.891v37.004
		h-27.391V183.2h27.395v103.606H-1378.391z M-1378.391,286.806"/>
	<path style="fill:#FFFFFF;" d="M-1716.465,297.207c-28.828,0-57.39-7.981-82.585-23.073l-17.963-10.76l20.933,0.353
		c0.676,0.035,1.77,0.09,3.489,0.09c7.968,0,33.351-1.281,59.381-15.973c-19.566-5.815-35.734-20.94-42.388-40.742l-3.301-9.807
		l8.986,2.336c-14.398-11.062-23.817-28.064-24.846-47.013l-0.493-9.071l8.326,3.633c1.519,0.668,3.064,1.255,4.629,1.766
		c-11.823-16.555-18.984-42.134-4.058-69.307l4.109-7.484l5.225,6.756c25.034,32.365,62.15,52.097,102.625,54.807
		c-0.247-2.514-0.417-4.828-0.417-5.548c0-30.042,22.855-61.108,61.104-61.108c16.057,0,31.514,6.377,42.895,17.605
		c15.261-3.582,29.845-12.483,30.003-12.577l13.224-8.143l-4.995,14.711c-2.396,7.041-6.046,13.534-10.73,19.201
		c2.557-0.833,5.063-1.791,7.646-2.918l15.887-7.76l-6.676,14.338c-5.51,11.84-14.699,21.612-26.111,27.863
		c2.506,39.206-13.615,82.947-42.618,115.069c-21.524,23.852-59.862,52.353-120.255,52.74L-1716.465,297.207z M-1775.328,273.734
		c18.67,8.058,38.696,12.266,58.855,12.266l0.957-0.004c56.313-0.362,92-26.872,112.018-49.047
		c27.91-30.918,43.04-73.192,39.478-110.33l-0.374-3.941l3.582-1.668c5.683-2.65,10.772-6.33,15.048-10.802
		c-4.783,1.209-9.883,2.111-15.768,2.821l-4.292,0.52l-3.348-8.488l3.897-3c5.459-3.2,10.22-7.365,14.066-12.244
		c-6.084,2.594-13.271,5.131-20.456,6.471l-3.068,0.57l-2.101-2.306c-9.441-10.359-22.877-16.299-36.875-16.299
		c-31.238,0-49.906,25.374-49.906,49.911c0,1.48,0.741,8.236,1,9.973l2.544,7.229l-8.088-0.175
		c-43.341-0.936-83.666-19.928-111.977-52.437c-11.198,29.412,7.608,52.91,16.589,59.947l13.13,10.3l-16.683-0.294
		c-5.225-0.089-10.334-0.799-15.291-2.123c4.408,19.656,19.942,35.449,40.121,39.785l22.094,4.748l-21.75,6.122
		c-3.79,1.064-8.092,1.6-12.785,1.6c-2.195,0-4.297-0.12-6.233-0.298c8.748,15.402,25.039,25.749,43.057,26.63l15.746,0.774
		l-12.697,9.33C-1736.602,265.284-1759.181,271.449-1775.328,273.734L-1775.328,273.734z M-1775.328,273.734"/>
	<g>
		<path style="fill:#FFFFFF;" d="M-998.948,66.738h-121.243c-30.336,0-55.015,24.679-55.015,55.014v121.995
			c0,30.335,24.679,55.014,55.015,55.014h121.243c30.335,0,55.014-24.679,55.014-55.014V121.753
			C-943.934,91.418-968.613,66.738-998.948,66.738z M-955.904,243.747c0,23.735-19.31,43.045-43.045,43.045h-121.243
			c-23.736,0-43.045-19.31-43.045-43.045V121.752c0-23.735,19.31-43.045,43.045-43.045v0.001h121.243
			c23.735,0,43.045,19.31,43.045,43.045V243.747z"/>
		<path style="fill:#FFFFFF;" d="M-1059.571,138.765c-24.253,0-43.985,19.732-43.985,43.985c0,24.253,19.732,43.985,43.985,43.985
			c24.254,0,43.985-19.732,43.985-43.985C-1015.586,158.497-1035.317,138.765-1059.571,138.765z M-1059.571,214.765
			c-17.653,0-32.015-14.362-32.015-32.016c0-17.653,14.362-32.015,32.015-32.015c17.653,0,32.016,14.362,32.016,32.015
			C-1027.555,200.403-1041.917,214.765-1059.571,214.765z"/>
		<path style="fill:#FFFFFF;" d="M-1059.571,105.399c-42.651,0-77.351,34.7-77.351,77.351c0,42.652,34.699,77.351,77.351,77.351
			c42.652,0,77.351-34.699,77.351-77.351C-982.22,140.098-1016.919,105.399-1059.571,105.399z M-1059.571,248.131
			c-36.051,0-65.381-29.33-65.381-65.381c0-36.052,29.33-65.382,65.381-65.382c36.052,0,65.381,29.33,65.381,65.382
			C-994.189,218.801-1023.519,248.131-1059.571,248.131z"/>
		<path style="fill:#FFFFFF;" d="M-986.524,91.119c-10.248,0-18.585,8.337-18.585,18.585c0,10.248,8.337,18.584,18.585,18.584
			c10.247,0,18.585-8.337,18.585-18.584C-967.94,99.456-976.277,91.119-986.524,91.119z M-986.524,116.319
			c-3.648,0-6.616-2.967-6.616-6.615c0-3.648,2.968-6.616,6.616-6.616s6.615,2.968,6.615,6.616S-982.876,116.319-986.524,116.319z"
			/>
	</g>
</g>
<g id="Layer_1_copy">
	<g id="Layer_2_copy">
		<rect x="-35.338" y="139.25" style="stroke:#FFFFFF;stroke-width:0.15;stroke-miterlimit:10;" width="143.55" height="84"/>
	</g>
	<path style="fill:#FFFFFF;" d="M42.131,198.626h-7.459v-15.542h-4.109v-7.137h4.109v-4.008c0-3.679,2.302-7.976,8.793-7.976
		c2.288,0,3.968,0.215,4.038,0.224l0.688,0.09l-0.166,6.679l-0.759-0.007c-0.002,0-1.707-0.016-3.567-0.016
		c-1.384,0-1.567,0.342-1.567,1.7v3.315h6.109l-0.339,7.138h-5.77v15.54H42.131z M36.214,197.083h4.374v-15.541h5.841l0.193-4.053
		h-6.035v-4.858c0-1.604,0.37-3.243,3.111-3.243c1.101,0,2.148,0.005,2.821,0.01l0.094-3.755c-0.681-0.061-1.814-0.139-3.15-0.139
		c-5.345,0-7.25,3.324-7.25,6.434v5.551h-4.109v4.053h4.109L36.214,197.083L36.214,197.083z M36.214,197.083"/>
	<path style="fill:#FFFFFF;" d="M-14.498,198.643c-4.324,0-8.608-1.197-12.388-3.461l-2.694-1.614l3.14,0.053
		c0.101,0.005,0.265,0.014,0.523,0.014c1.195,0,5.003-0.192,8.907-2.396c-2.935-0.872-5.36-3.141-6.358-6.111l-0.495-1.471
		l1.348,0.35c-2.16-1.659-3.573-4.21-3.727-7.052l-0.074-1.361l1.249,0.545c0.228,0.1,0.46,0.188,0.694,0.265
		c-1.773-2.483-2.848-6.32-0.609-10.396l0.616-1.123l0.784,1.013c3.755,4.855,9.323,7.815,15.394,8.221
		c-0.037-0.377-0.063-0.724-0.063-0.832c0-4.506,3.428-9.166,9.166-9.166c2.408,0,4.727,0.957,6.434,2.641
		c2.289-0.537,4.477-1.872,4.501-1.887l1.984-1.221l-0.749,2.207c-0.359,1.056-0.907,2.03-1.61,2.88
		c0.384-0.125,0.76-0.269,1.147-0.438l2.383-1.164l-1.001,2.151c-0.827,1.776-2.205,3.242-3.917,4.179
		c0.376,5.881-2.042,12.442-6.393,17.26c-3.229,3.578-8.979,7.853-18.038,7.911L-14.498,198.643z M-23.327,195.123
		c2.8,1.209,5.804,1.84,8.828,1.84l0.144-0.001c8.447-0.054,13.8-4.031,16.803-7.357c4.187-4.638,6.456-10.979,5.922-16.549
		l-0.056-0.591l0.537-0.25c0.852-0.397,1.616-0.95,2.257-1.62c-0.717,0.181-1.482,0.317-2.365,0.423l-0.644,0.078l-0.502-1.273
		l0.585-0.45c0.819-0.48,1.533-1.105,2.11-1.837c-0.913,0.389-1.991,0.77-3.068,0.971l-0.46,0.085l-0.315-0.346
		c-1.416-1.554-3.432-2.445-5.531-2.445c-4.686,0-7.486,3.806-7.486,7.487c0,0.222,0.111,1.235,0.15,1.496l0.382,1.084l-1.213-0.026
		c-6.501-0.14-12.55-2.989-16.797-7.866c-1.68,4.412,1.141,7.936,2.488,8.992l1.969,1.545l-2.502-0.044
		c-0.784-0.013-1.55-0.12-2.294-0.318c0.661,2.948,2.991,5.317,6.018,5.968l3.314,0.712l-3.262,0.918
		c-0.569,0.16-1.214,0.24-1.918,0.24c-0.329,0-0.645-0.018-0.935-0.045c1.312,2.31,3.756,3.862,6.459,3.995l2.362,0.116
		l-1.904,1.399C-17.518,193.855-20.905,194.78-23.327,195.123L-23.327,195.123z M-23.327,195.123"/>
	<g>
		<path style="fill:#FFFFFF;" d="M93.13,164.073H74.943c-4.55,0-8.252,3.702-8.252,8.252v18.299c0,4.55,3.702,8.252,8.252,8.252
			H93.13c4.55,0,8.252-3.702,8.252-8.252v-18.299C101.382,167.775,97.68,164.073,93.13,164.073z M99.587,190.625
			c0,3.56-2.896,6.457-6.457,6.457H74.943c-3.56,0-6.457-2.896-6.457-6.457v-18.299c0-3.56,2.896-6.457,6.457-6.457v0H93.13
			c3.56,0,6.457,2.896,6.457,6.457V190.625z"/>
		<path style="fill:#FFFFFF;" d="M84.037,174.877c-3.638,0-6.598,2.96-6.598,6.598c0,3.638,2.96,6.598,6.598,6.598
			c3.638,0,6.598-2.96,6.598-6.598C90.634,177.837,87.675,174.877,84.037,174.877z M84.037,186.277
			c-2.648,0-4.802-2.154-4.802-4.802c0-2.648,2.154-4.802,4.802-4.802c2.648,0,4.802,2.154,4.802,4.802
			C88.839,184.123,86.685,186.277,84.037,186.277z"/>
		<path style="fill:#FFFFFF;" d="M84.037,169.872c-6.398,0-11.603,5.205-11.603,11.603s5.205,11.603,11.603,11.603
			c6.398,0,11.603-5.205,11.603-11.603S90.434,169.872,84.037,169.872z M84.037,191.282c-5.408,0-9.807-4.4-9.807-9.807
			c0-5.408,4.4-9.807,9.807-9.807c5.408,0,9.807,4.4,9.807,9.807C93.844,186.883,89.444,191.282,84.037,191.282z"/>
		<path style="fill:#FFFFFF;" d="M94.994,167.73c-1.537,0-2.788,1.251-2.788,2.788c0,1.537,1.251,2.788,2.788,2.788
			c1.537,0,2.788-1.251,2.788-2.788C97.781,168.981,96.531,167.73,94.994,167.73z M94.994,171.51c-0.547,0-0.992-0.445-0.992-0.992
			c0-0.547,0.445-0.992,0.992-0.992s0.992,0.445,0.992,0.992C95.986,171.065,95.541,171.51,94.994,171.51z"/>
	</g>
</g>
<g id="Layer_1_copy_2">
	<path style="fill:#C7A462;" d="M11.577,35.25H4.118V19.708H0.009v-7.137h4.109V8.562c0-3.679,2.302-7.976,8.793-7.976
		c2.288,0,3.968,0.215,4.038,0.224l0.688,0.09l-0.166,6.679l-0.759-0.007c-0.002,0-1.707-0.016-3.567-0.016
		c-1.384,0-1.567,0.342-1.567,1.7v3.315h6.109l-0.339,7.138h-5.77v15.54H11.577z M5.659,33.707h4.374V18.166h5.841l0.193-4.053
		h-6.035V9.255c0-1.604,0.37-3.243,3.111-3.243c1.101,0,2.148,0.005,2.821,0.011l0.094-3.755c-0.681-0.061-1.814-0.139-3.15-0.139
		c-5.345,0-7.25,3.324-7.25,6.434v5.551H1.55v4.053h4.109L5.659,33.707L5.659,33.707z M5.659,33.707"/>
	<path style="fill:#C7A462;" d="M-58.498,35.245c-4.324,0-8.608-1.197-12.388-3.461l-2.694-1.614l3.14,0.053
		c0.101,0.005,0.265,0.014,0.523,0.014c1.195,0,5.003-0.192,8.907-2.396c-2.935-0.872-5.36-3.141-6.358-6.111l-0.495-1.471
		l1.348,0.35c-2.16-1.659-3.573-4.21-3.727-7.052l-0.074-1.361l1.249,0.545c0.228,0.1,0.46,0.188,0.694,0.265
		c-1.773-2.483-2.848-6.32-0.609-10.396l0.616-1.123l0.784,1.013c3.755,4.855,9.323,7.815,15.394,8.221
		c-0.037-0.377-0.063-0.724-0.063-0.832c0-4.506,3.428-9.166,9.166-9.166c2.408,0,4.727,0.957,6.434,2.641
		c2.289-0.537,4.477-1.872,4.501-1.887l1.984-1.221l-0.749,2.207c-0.359,1.056-0.907,2.03-1.61,2.88
		c0.384-0.125,0.76-0.269,1.147-0.438l2.383-1.164l-1.001,2.151c-0.827,1.776-2.205,3.242-3.917,4.179
		c0.376,5.881-2.042,12.442-6.393,17.26c-3.229,3.578-8.979,7.853-18.038,7.911L-58.498,35.245z M-67.327,31.724
		c2.8,1.209,5.804,1.84,8.828,1.84l0.144-0.001c8.447-0.054,13.8-4.031,16.803-7.357c4.187-4.638,6.456-10.979,5.922-16.549
		l-0.056-0.591l0.537-0.25c0.853-0.397,1.616-0.95,2.257-1.62c-0.717,0.181-1.482,0.317-2.365,0.423l-0.644,0.078l-0.502-1.273
		l0.585-0.45c0.819-0.48,1.533-1.105,2.11-1.837c-0.913,0.389-1.991,0.77-3.068,0.971l-0.46,0.085l-0.315-0.346
		c-1.416-1.554-3.432-2.445-5.531-2.445c-4.686,0-7.486,3.806-7.486,7.487c0,0.222,0.111,1.235,0.15,1.496l0.382,1.084l-1.213-0.026
		c-6.501-0.14-12.55-2.989-16.797-7.866c-1.68,4.412,1.141,7.936,2.488,8.992l1.97,1.545l-2.502-0.044
		c-0.784-0.013-1.55-0.12-2.294-0.318c0.661,2.948,2.991,5.317,6.018,5.968l3.314,0.712l-3.262,0.918
		c-0.569,0.16-1.214,0.24-1.918,0.24c-0.329,0-0.645-0.018-0.935-0.045c1.312,2.31,3.756,3.862,6.459,3.995l2.362,0.116
		l-1.904,1.399C-61.518,30.457-64.905,31.381-67.327,31.724L-67.327,31.724z M-67.327,31.724"/>
	<g>
		<path style="fill:#C7A462;" d="M81.13,0.349H62.943c-4.55,0-8.252,3.702-8.252,8.252V26.9c0,4.55,3.702,8.252,8.252,8.252H81.13
			c4.55,0,8.252-3.702,8.252-8.252V8.601C89.382,4.051,85.68,0.349,81.13,0.349z M87.587,26.9c0,3.56-2.896,6.457-6.457,6.457
			H62.943c-3.56,0-6.457-2.896-6.457-6.457V8.601c0-3.56,2.896-6.457,6.457-6.457v0H81.13c3.56,0,6.457,2.896,6.457,6.457V26.9z"/>
		<path style="fill:#C7A462;" d="M72.037,11.153c-3.638,0-6.598,2.96-6.598,6.598c0,3.638,2.96,6.598,6.598,6.598
			c3.638,0,6.598-2.96,6.598-6.598C78.634,14.113,75.675,11.153,72.037,11.153z M72.037,22.553c-2.648,0-4.802-2.154-4.802-4.802
			c0-2.648,2.154-4.802,4.802-4.802c2.648,0,4.802,2.154,4.802,4.802C76.839,20.399,74.685,22.553,72.037,22.553z"/>
		<path style="fill:#C7A462;" d="M72.037,6.148c-6.398,0-11.603,5.205-11.603,11.603c0,6.398,5.205,11.603,11.603,11.603
			c6.398,0,11.603-5.205,11.603-11.603C83.639,11.353,78.434,6.148,72.037,6.148z M72.037,27.558c-5.408,0-9.807-4.4-9.807-9.807
			c0-5.408,4.4-9.807,9.807-9.807c5.408,0,9.807,4.4,9.807,9.807C81.844,23.158,77.444,27.558,72.037,27.558z"/>
		<path style="fill:#C7A462;" d="M82.994,4.006c-1.537,0-2.788,1.251-2.788,2.788c0,1.537,1.251,2.788,2.788,2.788
			c1.537,0,2.788-1.251,2.788-2.788C85.781,5.257,84.531,4.006,82.994,4.006z M82.994,7.786c-0.547,0-0.992-0.445-0.992-0.992
			c0-0.547,0.445-0.992,0.992-0.992s0.992,0.445,0.992,0.992S83.541,7.786,82.994,7.786z"/>
	</g>
</g>
</svg>
