<?xml version="1.0" encoding="iso-8859-1"?>
<!-- Generator: Adobe Illustrator 19.1.0, SVG Export Plug-In . SVG Version: 6.00 Build 0)  -->
<svg version="1.1" id="Layer_1" xmlns="http://www.w3.org/2000/svg" xmlns:xlink="http://www.w3.org/1999/xlink" x="0px" y="0px"
	 viewBox="184.928 393.899 23.127 23.202" style="enable-background:new 184.928 393.899 23.127 23.202;" xml:space="preserve">
<path style="fill:#FFFFFF;" d="M202.554,417.101H190.43c-3.034,0-5.501-2.468-5.501-5.501v-12.2c0-3.034,2.468-5.501,5.501-5.501
	h12.124c3.034,0,5.501,2.468,5.501,5.501v12.2C208.056,414.634,205.588,417.101,202.554,417.101z M190.43,395.096
	c-2.374,0-4.305,1.931-4.305,4.304v12.2c0,2.374,1.931,4.304,4.305,4.304h12.124c2.374,0,4.304-1.931,4.304-4.304v-12.199
	c0-2.374-1.931-4.304-4.304-4.304L190.43,395.096L190.43,395.096z"/>
<path style="fill:#FFFFFF;" d="M196.492,413.235c-4.265,0-7.735-3.47-7.735-7.735s3.47-7.735,7.735-7.735
	c4.265,0,7.735,3.47,7.735,7.735S200.757,413.235,196.492,413.235z M196.492,398.962c-3.605,0-6.538,2.933-6.538,6.538
	c0,3.605,2.933,6.538,6.538,6.538s6.538-2.933,6.538-6.538C203.03,401.895,200.097,398.962,196.492,398.962z M196.492,409.899
	c-2.425,0-4.399-1.973-4.399-4.398s1.973-4.398,4.399-4.398s4.398,1.973,4.398,4.398S198.917,409.899,196.492,409.899z
	 M196.492,402.299c-1.765,0-3.202,1.436-3.202,3.202s1.436,3.202,3.202,3.202c1.765,0,3.202-1.436,3.202-3.202
	C199.694,403.735,198.257,402.299,196.492,402.299z"/>
<path style="fill:#FFFFFF;" d="M203.797,400.054c-1.025,0-1.859-0.834-1.859-1.858c0-1.025,0.834-1.858,1.859-1.858
	c1.025,0,1.858,0.834,1.858,1.858C205.655,399.22,204.821,400.054,203.797,400.054z M203.797,397.534
	c-0.365,0-0.662,0.297-0.662,0.662c0,0.365,0.297,0.661,0.662,0.661c0.365,0,0.661-0.297,0.661-0.661
	C204.458,397.831,204.161,397.534,203.797,397.534z"/>
</svg>
