<?xml version="1.0" encoding="iso-8859-1"?>
<!-- Generator: Adobe Illustrator 19.1.0, SVG Export Plug-In . SVG Version: 6.00 Build 0)  -->
<svg version="1.1" id="Layer_1" xmlns="http://www.w3.org/2000/svg" xmlns:xlink="http://www.w3.org/1999/xlink" x="0px" y="0px"
	 viewBox="0 0 213 239" style="enable-background:new 0 0 213 239;" xml:space="preserve">
<g>
	<path style="fill:#C7A462;" d="M187.5,26H179v1h8.501c13.51,0,24.5,10.99,24.5,24.5v162c0,13.51-10.99,24.5-24.5,24.5h-162
		C11.991,238,1,227.01,1,213.5v-162C1,37.991,11.991,27,25.5,27H34v-1h-8.5C11.439,26,0,37.44,0,51.5v162
		C0,227.561,11.439,239,25.5,239h162c14.061,0,25.5-11.439,25.5-25.5v-162C213,37.44,201.561,26,187.5,26z"/>
	<g>
		<g>
			<path style="fill:#C7A462;" d="M42.704,18.234h-1.195V1.102h9.387v1.102h-8.191v7.266h7.734v1.113h-7.734V18.234z"/>
			<path style="fill:#C7A462;" d="M63.797,11.848c0,2.078-0.504,3.701-1.512,4.869s-2.398,1.752-4.172,1.752
				c-1.117,0-2.102-0.27-2.953-0.809s-1.504-1.313-1.957-2.32s-0.68-2.172-0.68-3.492c0-2.078,0.504-3.697,1.512-4.857
				s2.391-1.74,4.148-1.74c1.75,0,3.123,0.588,4.119,1.764S63.797,9.801,63.797,11.848z M53.743,11.848
				c0,1.75,0.385,3.115,1.154,4.096s1.857,1.471,3.264,1.471s2.494-0.49,3.264-1.471s1.154-2.346,1.154-4.096
				c0-1.758-0.389-3.121-1.166-4.09s-1.869-1.453-3.275-1.453s-2.49,0.482-3.252,1.447S53.743,10.082,53.743,11.848z"/>
			<path style="fill:#C7A462;" d="M68.485,18.234h-1.16V0h1.16V18.234z"/>
			<path style="fill:#C7A462;" d="M73.911,18.234h-1.16V0h1.16V18.234z"/>
			<path style="fill:#C7A462;" d="M88.711,11.848c0,2.078-0.504,3.701-1.512,4.869s-2.398,1.752-4.172,1.752
				c-1.117,0-2.102-0.27-2.953-0.809s-1.504-1.313-1.957-2.32s-0.68-2.172-0.68-3.492c0-2.078,0.504-3.697,1.512-4.857
				s2.391-1.74,4.148-1.74c1.75,0,3.123,0.588,4.119,1.764S88.711,9.801,88.711,11.848z M78.657,11.848
				c0,1.75,0.385,3.115,1.154,4.096s1.857,1.471,3.264,1.471s2.494-0.49,3.264-1.471s1.154-2.346,1.154-4.096
				c0-1.758-0.389-3.121-1.166-4.09s-1.869-1.453-3.275-1.453s-2.49,0.482-3.252,1.447S78.657,10.082,78.657,11.848z"/>
			<path style="fill:#C7A462;" d="M102.422,18.234l-2.789-8.52c-0.18-0.578-0.41-1.426-0.691-2.543h-0.07l-0.246,0.867l-0.527,1.699
				l-2.836,8.496h-1.148L90.469,5.496h1.242l2.039,7.383c0.477,1.828,0.789,3.172,0.938,4.031h0.07
				c0.461-1.828,0.797-3.043,1.008-3.645l2.625-7.77h1.055l2.496,7.746c0.563,1.836,0.906,3.051,1.031,3.645h0.07
				c0.063-0.508,0.375-1.867,0.938-4.078l1.945-7.313h1.172l-3.457,12.738H102.422z"/>
			<path style="fill:#C7A462;" d="M116.836,5.496v8.25c0,1.281,0.27,2.213,0.809,2.795s1.375,0.873,2.508,0.873
				c1.516,0,2.631-0.383,3.346-1.148s1.072-2.012,1.072-3.738V5.496h1.148v12.738h-0.984l-0.211-1.758h-0.07
				c-0.828,1.328-2.301,1.992-4.418,1.992c-2.898,0-4.348-1.551-4.348-4.652v-8.32H116.836z"/>
			<path style="fill:#C7A462;" d="M137.883,14.918c0,1.141-0.434,2.018-1.301,2.631s-2.098,0.92-3.691,0.92
				c-1.703,0-3.055-0.262-4.055-0.785V16.43c1.281,0.641,2.633,0.961,4.055,0.961c1.258,0,2.213-0.209,2.865-0.627
				s0.979-0.975,0.979-1.67c0-0.641-0.26-1.18-0.779-1.617s-1.373-0.867-2.561-1.289c-1.273-0.461-2.168-0.857-2.684-1.189
				s-0.904-0.707-1.166-1.125s-0.393-0.928-0.393-1.529c0-0.953,0.4-1.707,1.201-2.262s1.92-0.832,3.357-0.832
				c1.375,0,2.68,0.258,3.914,0.773l-0.434,1.055c-1.25-0.516-2.41-0.773-3.48-0.773c-1.039,0-1.863,0.172-2.473,0.516
				s-0.914,0.82-0.914,1.43c0,0.664,0.236,1.195,0.709,1.594s1.396,0.844,2.771,1.336c1.148,0.414,1.984,0.787,2.508,1.119
				s0.916,0.709,1.178,1.131S137.883,14.348,137.883,14.918z"/>
			<path style="fill:#C7A462;" d="M157.934,11.848c0,2.078-0.504,3.701-1.512,4.869s-2.398,1.752-4.172,1.752
				c-1.117,0-2.102-0.27-2.953-0.809s-1.504-1.313-1.957-2.32s-0.68-2.172-0.68-3.492c0-2.078,0.504-3.697,1.512-4.857
				s2.391-1.74,4.148-1.74c1.75,0,3.123,0.588,4.119,1.764S157.934,9.801,157.934,11.848z M147.879,11.848
				c0,1.75,0.385,3.115,1.154,4.096s1.857,1.471,3.264,1.471s2.494-0.49,3.264-1.471s1.154-2.346,1.154-4.096
				c0-1.758-0.389-3.121-1.166-4.09s-1.869-1.453-3.275-1.453s-2.49,0.482-3.252,1.447S147.879,10.082,147.879,11.848z"/>
			<path style="fill:#C7A462;" d="M170.344,18.234V9.973c0-1.281-0.27-2.213-0.809-2.795s-1.375-0.873-2.508-0.873
				c-1.523,0-2.639,0.385-3.346,1.154s-1.061,2.018-1.061,3.744v7.031h-1.16V5.496h0.984l0.223,1.746h0.07
				c0.828-1.328,2.301-1.992,4.418-1.992c2.891,0,4.336,1.551,4.336,4.652v8.332H170.344z"/>
		</g>
		<g>
			<path style="fill:#C7A462;" d="M54.745,43.234V26.102h1.195v17.133H54.745z"/>
			<path style="fill:#C7A462;" d="M69.381,43.234v-8.262c0-1.281-0.27-2.213-0.809-2.795s-1.375-0.873-2.508-0.873
				c-1.523,0-2.639,0.385-3.346,1.154s-1.061,2.018-1.061,3.744v7.031h-1.16V30.496h0.984l0.223,1.746h0.07
				c0.828-1.328,2.301-1.992,4.418-1.992c2.891,0,4.336,1.551,4.336,4.652v8.332H69.381z"/>
			<path style="fill:#C7A462;" d="M82.553,39.918c0,1.141-0.434,2.018-1.301,2.631s-2.098,0.92-3.691,0.92
				c-1.703,0-3.055-0.262-4.055-0.785V41.43c1.281,0.641,2.633,0.961,4.055,0.961c1.258,0,2.213-0.209,2.865-0.627
				s0.979-0.975,0.979-1.67c0-0.641-0.26-1.18-0.779-1.617s-1.373-0.867-2.561-1.289c-1.273-0.461-2.168-0.857-2.684-1.189
				s-0.904-0.707-1.166-1.125s-0.393-0.928-0.393-1.529c0-0.953,0.4-1.707,1.201-2.262s1.92-0.832,3.357-0.832
				c1.375,0,2.68,0.258,3.914,0.773l-0.434,1.055c-1.25-0.516-2.41-0.773-3.48-0.773c-1.039,0-1.863,0.172-2.473,0.516
				s-0.914,0.82-0.914,1.43c0,0.664,0.236,1.195,0.709,1.594s1.396,0.844,2.771,1.336c1.148,0.414,1.984,0.787,2.508,1.119
				s0.916,0.709,1.178,1.131S82.553,39.348,82.553,39.918z"/>
			<path style="fill:#C7A462;" d="M89.198,42.438c0.734,0,1.375-0.063,1.922-0.188v0.938c-0.563,0.188-1.211,0.281-1.945,0.281
				c-1.125,0-1.955-0.301-2.49-0.902s-0.803-1.547-0.803-2.836v-8.227h-1.887v-0.68l1.887-0.527l0.586-2.883h0.598v3.082h3.738
				v1.008h-3.738v8.063c0,0.977,0.172,1.699,0.516,2.168S88.463,42.438,89.198,42.438z"/>
			<path style="fill:#C7A462;" d="M101.608,43.234l-0.293-2.016h-0.094c-0.641,0.82-1.299,1.4-1.975,1.74s-1.475,0.51-2.396,0.51
				c-1.25,0-2.223-0.32-2.918-0.961s-1.043-1.527-1.043-2.66c0-1.242,0.518-2.207,1.553-2.895s2.533-1.051,4.494-1.09l2.426-0.07
				v-0.844c0-1.211-0.246-2.125-0.738-2.742s-1.285-0.926-2.379-0.926c-1.18,0-2.402,0.328-3.668,0.984l-0.434-1.008
				c1.398-0.656,2.781-0.984,4.148-0.984c1.398,0,2.443,0.363,3.135,1.09s1.037,1.859,1.037,3.398v8.473H101.608z M96.92,42.414
				c1.359,0,2.432-0.389,3.217-1.166s1.178-1.857,1.178-3.24v-1.254l-2.227,0.094c-1.789,0.086-3.064,0.365-3.826,0.838
				s-1.143,1.209-1.143,2.209c0,0.797,0.244,1.416,0.732,1.857S96.03,42.414,96.92,42.414z"/>
			<path style="fill:#C7A462;" d="M116.526,30.496v0.809l-2.637,0.164c0.703,0.875,1.055,1.836,1.055,2.883
				c0,1.227-0.408,2.221-1.225,2.982s-1.912,1.143-3.287,1.143c-0.578,0-0.984-0.023-1.219-0.07
				c-0.461,0.242-0.813,0.527-1.055,0.855s-0.363,0.676-0.363,1.043c0,0.406,0.154,0.703,0.463,0.891s0.826,0.281,1.553,0.281h2.227
				c1.383,0,2.441,0.279,3.176,0.838s1.102,1.385,1.102,2.479c0,1.344-0.545,2.381-1.635,3.111S112.038,49,110.022,49
				c-1.602,0-2.842-0.309-3.721-0.926s-1.318-1.477-1.318-2.578c0-0.875,0.271-1.602,0.814-2.18s1.279-0.973,2.209-1.184
				c-0.383-0.164-0.689-0.396-0.92-0.697s-0.346-0.646-0.346-1.037c0-0.852,0.543-1.602,1.629-2.25
				c-0.742-0.305-1.32-0.783-1.734-1.436s-0.621-1.4-0.621-2.244c0-1.273,0.404-2.295,1.213-3.064s1.9-1.154,3.275-1.154
				c0.836,0,1.484,0.082,1.945,0.246H116.526z M106.213,45.391c0,1.75,1.301,2.625,3.902,2.625c3.344,0,5.016-1.066,5.016-3.199
				c0-0.766-0.262-1.32-0.785-1.664s-1.371-0.516-2.543-0.516h-2.086C107.381,42.637,106.213,43.555,106.213,45.391z
				 M107.186,34.469c0,0.984,0.299,1.748,0.896,2.291s1.396,0.814,2.396,0.814c1.063,0,1.877-0.27,2.443-0.809s0.85-1.32,0.85-2.344
				c0-1.086-0.291-1.9-0.873-2.443s-1.396-0.814-2.443-0.814c-1.016,0-1.814,0.291-2.396,0.873S107.186,33.43,107.186,34.469z"/>
			<path style="fill:#C7A462;" d="M124.154,30.25c0.539,0,1.117,0.055,1.734,0.164l-0.223,1.113
				c-0.531-0.133-1.082-0.199-1.652-0.199c-1.086,0-1.977,0.461-2.672,1.383s-1.043,2.086-1.043,3.492v7.031h-1.16V30.496h0.984
				l0.117,2.297h0.082c0.523-0.938,1.082-1.596,1.676-1.975S123.311,30.25,124.154,30.25z"/>
			<path style="fill:#C7A462;" d="M136.213,43.234l-0.293-2.016h-0.094c-0.641,0.82-1.299,1.4-1.975,1.74s-1.475,0.51-2.396,0.51
				c-1.25,0-2.223-0.32-2.918-0.961s-1.043-1.527-1.043-2.66c0-1.242,0.518-2.207,1.553-2.895s2.533-1.051,4.494-1.09l2.426-0.07
				v-0.844c0-1.211-0.246-2.125-0.738-2.742s-1.285-0.926-2.379-0.926c-1.18,0-2.402,0.328-3.668,0.984l-0.434-1.008
				c1.398-0.656,2.781-0.984,4.148-0.984c1.398,0,2.443,0.363,3.135,1.09s1.037,1.859,1.037,3.398v8.473H136.213z M131.525,42.414
				c1.359,0,2.432-0.389,3.217-1.166s1.178-1.857,1.178-3.24v-1.254l-2.227,0.094c-1.789,0.086-3.064,0.365-3.826,0.838
				s-1.143,1.209-1.143,2.209c0,0.797,0.244,1.416,0.732,1.857S130.635,42.414,131.525,42.414z"/>
			<path style="fill:#C7A462;" d="M157.107,43.234v-8.355c0-1.242-0.242-2.148-0.727-2.719s-1.227-0.855-2.227-0.855
				c-1.305,0-2.27,0.359-2.895,1.078s-0.938,1.848-0.938,3.387v7.465h-1.184v-8.707c0-2.148-0.984-3.223-2.953-3.223
				c-1.336,0-2.309,0.389-2.918,1.166s-0.914,2.021-0.914,3.732v7.031h-1.16V30.496h0.961l0.246,1.746h0.07
				c0.352-0.633,0.852-1.123,1.5-1.471s1.363-0.521,2.145-0.521c2.008,0,3.297,0.754,3.867,2.262h0.047
				c0.414-0.727,0.971-1.285,1.67-1.676s1.494-0.586,2.385-0.586c1.391,0,2.434,0.371,3.129,1.113s1.043,1.922,1.043,3.539v8.332
				H157.107z"/>
		</g>
	</g>
	<g>
		<path style="fill:none;stroke:#C7A462;stroke-miterlimit:10;" d="M129.233,88.996H83.767c-11.376,0-20.631,9.255-20.631,20.63
			v45.748c0,11.376,9.255,20.63,20.631,20.63h45.466c11.376,0,20.63-9.255,20.63-20.63v-45.748
			C149.863,98.25,140.609,88.996,129.233,88.996z M145.375,155.374c0,8.901-7.241,16.142-16.142,16.142H83.767
			c-8.901,0-16.142-7.241-16.142-16.142v-45.748c0-8.901,7.241-16.142,16.142-16.142v0h45.466c8.901,0,16.142,7.241,16.142,16.142
			V155.374z"/>
		<path style="fill:none;stroke:#C7A462;stroke-miterlimit:10;" d="M106.5,116.006c-9.095,0-16.494,7.399-16.494,16.494
			c0,9.095,7.399,16.494,16.494,16.494c9.095,0,16.494-7.399,16.494-16.494C122.994,123.405,115.595,116.006,106.5,116.006z
			 M106.5,144.506c-6.62,0-12.006-5.386-12.006-12.006c0-6.62,5.386-12.006,12.006-12.006s12.006,5.386,12.006,12.006
			C118.505,139.12,113.12,144.506,106.5,144.506z"/>
		<path style="fill:none;stroke:#C7A462;stroke-miterlimit:10;" d="M106.5,103.493c-15.994,0-29.006,13.012-29.006,29.007
			c0,15.994,13.012,29.007,29.006,29.007s29.006-13.012,29.006-29.007C135.506,116.506,122.494,103.493,106.5,103.493z
			 M106.5,157.018c-13.519,0-24.518-10.999-24.518-24.518c0-13.519,10.999-24.518,24.518-24.518
			c13.519,0,24.518,10.999,24.518,24.518C131.018,146.019,120.019,157.018,106.5,157.018z"/>
		<path style="fill:none;stroke:#C7A462;stroke-miterlimit:10;" d="M133.892,98.138c-3.843,0-6.969,3.127-6.969,6.969
			c0,3.843,3.127,6.969,6.969,6.969c3.843,0,6.969-3.126,6.969-6.969C140.861,101.265,137.735,98.138,133.892,98.138z
			 M133.892,107.588c-1.368,0-2.481-1.113-2.481-2.481c0-1.368,1.113-2.481,2.481-2.481s2.481,1.113,2.481,2.481
			S135.26,107.588,133.892,107.588z"/>
	</g>
</g>
</svg>
