<?xml version="1.0" encoding="utf-8"?>
<!-- Generator: Adobe Illustrator 19.1.0, SVG Export Plug-In . SVG Version: 6.00 Build 0)  -->
<svg version="1.1" id="Layer_1" xmlns="http://www.w3.org/2000/svg" xmlns:xlink="http://www.w3.org/1999/xlink" x="0px" y="0px"
	 viewBox="0 0 89.4 18" style="enable-background:new 0 0 89.4 18;" xml:space="preserve">
<style type="text/css">
	.st0{fill:#E6BD71;}
</style>
<g>
	<g>
		<path class="st0" d="M25.6,1.5h-2.4v6h-0.7v-6h-2.4V0.9h5.5V1.5z"/>
		<path class="st0" d="M32.5,7.5h-0.7v-3h-4.1v3H27V0.9h0.7v2.9h4.1V0.9h0.7V7.5z"/>
		<path class="st0" d="M38.2,1.5h-3v2.3h2.9v0.6h-2.9v2.4h3v0.6h-3.8V0.9h3.7V1.5z"/>
	</g>
	<g>
		<path class="st0" d="M49.3,2.1c-0.7-0.4-1.5-0.6-2.3-0.6c-1.6,0-2.8,1.2-2.8,2.7c0,1.6,1.2,2.7,2.7,2.7c0.9,0,1.6-0.3,2.4-0.7V7
			c-0.7,0.4-1.5,0.6-2.4,0.6c-2.1,0-3.5-1.5-3.5-3.4c0-2.1,1.7-3.4,3.5-3.4c0.8,0,1.6,0.2,2.4,0.6V2.1z"/>
		<path class="st0" d="M56.5,7.5h-0.7v-3h-4.1v3H51V0.9h0.7v2.9h4.1V0.9h0.7V7.5z"/>
		<path class="st0" d="M64,7.5h-0.8l-1-2.1h-3l-0.9,2.1h-0.8l2.9-6.6H61L64,7.5z M60.7,2l-1.2,2.7H62L60.7,2z"/>
		<path class="st0" d="M71.2,7.5h-0.7V2l-2.3,2.8h-0.1L65.8,2v5.5h-0.7V0.9h0.7l2.4,2.9l2.3-2.9h0.7V7.5z"/>
		<path class="st0" d="M74.9,0.9c1,0,2.1,0.4,2.1,1.7c0,0.9-0.7,1.3-1,1.4c1.3,0.2,1.6,1.1,1.6,1.7c0,0.8-0.6,1.8-1.9,1.8h-2.4V0.9
			H74.9z M73.9,1.5v2.3h0.7c1.1,0,1.5-0.5,1.5-1.2c0-0.8-0.5-1.1-1.5-1.1H73.9z M73.9,4.5v2.4h1.2c1.4,0,1.7-0.6,1.7-1.2
			c0-0.6-0.4-1.2-1.7-1.2H73.9z"/>
		<path class="st0" d="M82.7,1.5h-3v2.3h2.9v0.6h-2.9v2.4h3v0.6H79V0.9h3.7V1.5z"/>
		<path class="st0" d="M86,0.9c1.7,0,2.2,1,2.2,1.8c0,0.9-0.6,1.4-1.2,1.6c0.5,0.3,0.8,0.8,1.6,2.1c0.3,0.4,0.4,0.6,0.8,1.1h-0.9
			l-0.6-1c-0.3-0.4-0.6-0.8-0.9-1.2c-0.4-0.5-0.8-0.8-1.5-0.8h-0.5v3h-0.7V0.9H86z M85.1,1.5v2.3h0.9c0.9,0,1.5-0.4,1.5-1.2
			c0-0.7-0.5-1.1-1.5-1.1H85.1z"/>
	</g>
	<path class="st0" d="M25.6,11.8h-2.4v6h-0.7v-6h-2.4v-0.6h5.5V11.8z"/>
	<path class="st0" d="M32.5,17.8h-0.7v-3h-4.1v3H27v-6.6h0.7v2.9h4.1v-2.9h0.7V17.8z"/>
	<path class="st0" d="M38.2,11.8h-3v2.3h2.9v0.6h-2.9v2.4h3v0.6h-3.8v-6.6h3.7V11.8z"/>
	<path class="st0" d="M45.5,17.8h-0.8l-1-2.1h-3l-0.9,2.1h-0.8l2.9-6.6h0.5L45.5,17.8z M42.3,12.3l-1.2,2.7h2.4L42.3,12.3z"/>
	<path class="st0" d="M51.5,11.8h-2.4v6h-0.7v-6H46v-0.6h5.5V11.8z"/>
	<path class="st0" d="M54.6,11.2c1.7,0,2.2,1,2.2,1.8c0,0.9-0.6,1.4-1.2,1.6c0.5,0.3,0.8,0.8,1.6,2.1c0.3,0.4,0.4,0.6,0.8,1.1h-0.9
		l-0.6-1c-0.3-0.4-0.6-0.8-0.9-1.2c-0.4-0.5-0.8-0.8-1.5-0.8h-0.5v3h-0.7v-6.6H54.6z M53.6,11.8v2.3h0.9c0.9,0,1.5-0.4,1.5-1.2
		c0-0.7-0.5-1.1-1.5-1.1H53.6z"/>
	<path class="st0" d="M62.8,11.8h-3v2.3h2.9v0.6h-2.9v2.4h3v0.6h-3.8v-6.6h3.7V11.8z"/>
	<path class="st0" d="M9,0.5c4.7,0,8.5,3.8,8.5,8.5s-3.8,8.5-8.5,8.5S0.5,13.7,0.5,9S4.3,0.5,9,0.5 M9,0C4,0,0,4,0,9c0,5,4,9,9,9
		s9-4,9-9C18,4,13.9,0,9,0L9,0z"/>
	<path class="st0" d="M8,15.5v-1.5C5.6,13.6,3.8,11.5,3.8,9S5.6,4.4,8,3.9V2.5C4.8,2.9,2.4,5.7,2.4,9C2.4,12.3,4.8,15.1,8,15.5z"/>
	<path class="st0" d="M14.1,9c0,2.5-1.8,4.6-4.2,5.1v1.5c3.2-0.5,5.7-3.2,5.7-6.5c0-3.3-2.5-6.1-5.7-6.5v1.5
		C12.3,4.4,14.1,6.5,14.1,9z"/>
</g>
</svg>
