<?xml version="1.0" encoding="utf-8"?>
<!-- Generator: Adobe Illustrator 19.1.0, SVG Export Plug-In . SVG Version: 6.00 Build 0)  -->
<svg version="1.1" id="Layer_1" xmlns="http://www.w3.org/2000/svg" xmlns:xlink="http://www.w3.org/1999/xlink" x="0px" y="0px"
	 viewBox="0 0 85.6 30.2" style="enable-background:new 0 0 85.6 30.2;" xml:space="preserve">
<style type="text/css">
	.st0{fill:#E6BD71;}
</style>
<g>
	<g>
		<path class="st0" d="M40.9,0.7h-2.6v6.5h-0.8V0.7h-2.6V0h6V0.7z"/>
		<path class="st0" d="M48.5,7.2h-0.8V3.9h-4.4v3.3h-0.8V0h0.8v3.2h4.4V0h0.8V7.2z"/>
		<path class="st0" d="M54.7,0.7h-3.2v2.5h3.1v0.7h-3.1v2.6h3.3v0.7h-4.1V0h4V0.7z"/>
		<path class="st0" d="M41.6,12.9c-0.8-0.4-1.6-0.7-2.5-0.7c-1.7,0-3,1.3-3,3c0,1.7,1.3,2.9,3,2.9c1,0,1.8-0.3,2.6-0.8v0.9
			c-0.8,0.4-1.7,0.7-2.6,0.7c-2.3,0-3.9-1.7-3.9-3.7c0-2.3,1.9-3.7,3.8-3.7c0.9,0,1.8,0.2,2.6,0.6V12.9z"/>
		<path class="st0" d="M49.5,18.7h-0.8v-3.3h-4.4v3.3h-0.8v-7.2h0.8v3.2h4.4v-3.2h0.8V18.7z"/>
		<path class="st0" d="M57.8,18.7h-0.8l-1.1-2.3h-3.3l-1,2.3h-0.8l3.2-7.3h0.5L57.8,18.7z M54.2,12.7l-1.3,3h2.7L54.2,12.7z"/>
		<path class="st0" d="M65.6,18.7h-0.8v-6l-2.5,3.1h-0.1l-2.5-3.1v6h-0.8v-7.2h0.8l2.6,3.2l2.6-3.2h0.8V18.7z"/>
		<path class="st0" d="M69.7,11.5c1.1,0,2.3,0.4,2.3,1.9c0,1-0.8,1.4-1.1,1.6c1.4,0.3,1.7,1.2,1.7,1.9c0,0.8-0.6,1.9-2.1,1.9h-2.6
			v-7.2H69.7z M68.6,12.2v2.5h0.8c1.2,0,1.7-0.5,1.7-1.3c0-0.9-0.5-1.2-1.7-1.2H68.6z M68.6,15.4V18h1.3c1.6,0,1.8-0.7,1.8-1.3
			c0-0.6-0.4-1.3-1.8-1.3H68.6z"/>
		<path class="st0" d="M78.3,12.2H75v2.5h3.1v0.7H75V18h3.3v0.7h-4.1v-7.2h4V12.2z"/>
		<path class="st0" d="M81.9,11.5c1.9,0,2.4,1.1,2.4,1.9c0,1-0.6,1.5-1.3,1.8c0.5,0.3,0.9,0.9,1.8,2.3c0.3,0.5,0.5,0.7,0.8,1.2h-1
			L84,17.6c-0.3-0.5-0.6-0.9-0.9-1.3c-0.5-0.6-0.9-0.9-1.6-0.9h-0.5v3.3h-0.8v-7.2H81.9z M80.9,12.2v2.5h0.9c1,0,1.7-0.4,1.7-1.3
			c0-0.8-0.6-1.3-1.7-1.3H80.9z"/>
		<path class="st0" d="M40.9,23.7h-2.6v6.5h-0.8v-6.5h-2.6V23h6V23.7z"/>
		<path class="st0" d="M48.5,30.2h-0.8v-3.3h-4.4v3.3h-0.8V23h0.8v3.2h4.4V23h0.8V30.2z"/>
		<path class="st0" d="M54.7,23.7h-3.2v2.5h3.1v0.7h-3.1v2.6h3.3v0.7h-4.1V23h4V23.7z"/>
		<path class="st0" d="M62.7,30.2h-0.8l-1.1-2.3h-3.3l-1,2.3h-0.8l3.2-7.3h0.5L62.7,30.2z M59.2,24.2l-1.3,3h2.7L59.2,24.2z"/>
		<path class="st0" d="M69.2,23.7h-2.6v6.5h-0.8v-6.5h-2.6V23h6V23.7z"/>
		<path class="st0" d="M72.6,23c1.9,0,2.4,1.1,2.4,1.9c0,1-0.6,1.5-1.3,1.8c0.5,0.3,0.9,0.9,1.8,2.3c0.3,0.5,0.5,0.7,0.8,1.2h-1
			l-0.7-1.1c-0.3-0.5-0.6-0.9-0.9-1.3c-0.5-0.6-0.9-0.9-1.6-0.9h-0.5v3.3h-0.8V23H72.6z M71.6,23.7v2.5h0.9c1,0,1.7-0.4,1.7-1.3
			c0-0.8-0.6-1.3-1.7-1.3H71.6z"/>
		<path class="st0" d="M81.6,23.7h-3.2v2.5h3.1v0.7h-3.1v2.6h3.3v0.7h-4.1V23h4V23.7z"/>
	</g>
	<g>
		<path class="st0" d="M15,1.1c7.8,0,14.1,6.3,14.1,14.1S22.8,29.3,15,29.3S0.8,23,0.8,15.2S7.2,1.1,15,1.1 M15,0.2
			C6.7,0.2,0,7,0,15.2c0,8.3,6.7,15,15,15s15-6.7,15-15C29.9,7,23.2,0.2,15,0.2L15,0.2z"/>
		<path class="st0" d="M13.4,26.1v-2.4c-4-0.7-7-4.2-7-8.5s3-7.7,7-8.5V4.3C8.1,5.1,4,9.7,4,15.2C4,20.7,8.1,25.3,13.4,26.1z"/>
		<path class="st0" d="M23.6,15.2c0,4.2-3,7.7-7,8.5v2.4c5.3-0.8,9.4-5.3,9.4-10.9c0-5.5-4.1-10.1-9.4-10.9v2.4
			C20.5,7.5,23.6,11,23.6,15.2z"/>
	</g>
</g>
</svg>
