<?xml version="1.0" encoding="iso-8859-1"?>
<!-- Generator: Adobe Illustrator 19.1.0, SVG Export Plug-In . SVG Version: 6.00 Build 0)  -->
<svg version="1.1" id="Olla_x5F_upgrade_2" xmlns="http://www.w3.org/2000/svg" xmlns:xlink="http://www.w3.org/1999/xlink" x="0px"
	 y="0px" viewBox="0 0 317.75 112.75" style="enable-background:new 0 0 317.75 112.75;" xml:space="preserve">
<g>
	<path style="fill:#C7A462;" d="M56.445,0.736c-30.807,0-55.869,25.063-55.869,55.868s25.063,55.868,55.869,55.868
		s55.869-25.063,55.869-55.868S87.252,0.736,56.445,0.736z M56.445,110.473c-29.703,0-53.869-24.165-53.869-53.868
		S26.742,2.736,56.445,2.736s53.869,24.165,53.869,53.868S86.148,110.473,56.445,110.473z"/>
	<path style="fill:#C7A462;" d="M12.766,56.604c0,21.591,16.097,40.176,37.441,43.229l1.142,0.163V88.611L50.53,88.46
		c-15.349-2.831-26.489-16.228-26.489-31.855c0-15.627,11.141-29.023,26.489-31.855l0.818-0.151V13.212l-1.142,0.163
		C28.862,16.43,12.766,35.015,12.766,56.604z M49.349,22.943c-15.873,3.325-27.308,17.35-27.308,33.661
		c0,16.313,11.435,30.337,27.308,33.661v7.408c-19.795-3.401-34.583-20.854-34.583-41.069c0-20.214,14.788-37.667,34.583-41.069
		V22.943z"/>
	<path style="fill:#C7A462;" d="M62.685,13.375l-1.142-0.163v11.386l0.818,0.151c15.349,2.832,26.489,16.229,26.489,31.855
		S77.71,85.629,62.361,88.46l-0.818,0.151v11.386l1.142-0.163c21.345-3.055,37.441-21.639,37.441-43.229
		C100.126,35.015,84.029,16.431,62.685,13.375z M63.543,97.674v-7.408c15.873-3.324,27.308-17.349,27.308-33.661
		c0-16.312-11.435-30.336-27.308-33.661v-7.408c19.795,3.402,34.583,20.855,34.583,41.069
		C98.126,76.819,83.338,94.272,63.543,97.674z"/>
</g>
<g>
	<polygon style="fill:#C7A462;" points="138.61,26.163 141.247,26.163 141.247,2.837 147.013,2.837 147.013,0.306 132.845,0.306 
		132.845,2.837 138.61,2.837 	"/>
	<polygon style="fill:#C7A462;" points="154.729,13.683 167.895,13.683 167.895,26.163 170.479,26.163 170.479,0.306 167.895,0.306 
		167.895,11.151 154.729,11.151 154.729,0.306 152.145,0.306 152.145,26.163 154.729,26.163 	"/>
	<polygon style="fill:#C7A462;" points="192.941,23.632 180.813,23.632 180.813,13.472 192.941,13.472 192.941,10.94 180.813,10.94 
		180.813,2.837 193.047,2.837 193.047,0.306 178.229,0.306 178.229,26.163 192.941,26.163 	"/>
	<path style="fill:#C7A462;" d="M159.493,64.862l-2.039-1.547c-2.438,2.836-5.467,4.254-9.088,4.254
		c-3.293,0-6.021-1.055-8.183-3.164s-3.243-4.74-3.243-7.893c0-2.086,0.483-3.964,1.45-5.634s2.329-3,4.087-3.99
		s3.668-1.485,5.73-1.485c1.887,0,3.618,0.378,5.194,1.134s2.927,1.866,4.052,3.331l2.039-1.564
		c-1.242-1.723-2.836-3.062-4.781-4.017s-4.125-1.433-6.539-1.433c-3.996,0-7.321,1.292-9.976,3.876s-3.981,5.769-3.981,9.554
		c0,3.598,1.096,6.668,3.287,9.211c2.613,3.012,6.182,4.518,10.705,4.518c2.379,0,4.532-0.448,6.46-1.345
		S158.204,66.503,159.493,64.862z"/>
	<polygon style="fill:#C7A462;" points="184.418,69.362 184.418,43.505 181.834,43.505 181.834,54.351 168.668,54.351 
		168.668,43.505 166.084,43.505 166.084,69.362 168.668,69.362 168.668,56.882 181.834,56.882 181.834,69.362 	"/>
	<path style="fill:#C7A462;" d="M192.748,69.362l4.028-8.508h11.139l4.067,8.508h2.791l-12.059-25.857h-0.633l-12.217,25.857
		H192.748z M202.389,48.999l4.409,9.359h-8.84L202.389,48.999z"/>
	<polygon style="fill:#C7A462;" points="248.224,69.362 244.503,43.505 244.089,43.505 233.678,64.722 223.166,43.505 
		222.746,43.505 219.044,69.362 221.54,69.362 224.08,50.729 233.332,69.362 233.992,69.362 243.135,50.87 245.689,69.362 	"/>
	<path style="fill:#C7A462;" d="M270.3,61.944c0-1.02-0.201-1.966-0.604-2.839s-0.967-1.617-1.691-2.232s-1.759-1.151-3.102-1.608
		c1.084-0.586,1.906-1.351,2.466-2.294s0.84-1.989,0.84-3.138c0-1.23-0.319-2.35-0.958-3.357s-1.509-1.755-2.61-2.241
		s-2.678-0.729-4.729-0.729h-5.098v25.857h7.102c2.555,0,4.591-0.718,6.108-2.153S270.3,64.019,270.3,61.944z M257.345,46.036h2.994
		c1.809,0,3.127,0.337,3.955,1.011s1.242,1.603,1.242,2.786c0,0.879-0.247,1.679-0.74,2.399s-1.162,1.248-2.008,1.582
		s-2.167,0.501-3.964,0.501h-1.479V46.036z M266.827,64.546c-0.534,0.785-1.242,1.362-2.122,1.731
		c-0.881,0.369-2.266,0.554-4.155,0.554h-3.205v-9.914h1.462c2.185,0,3.717,0.105,4.598,0.316c1.314,0.316,2.347,0.902,3.098,1.758
		s1.126,1.857,1.126,3.006C267.628,62.911,267.36,63.761,266.827,64.546z"/>
	<polygon style="fill:#C7A462;" points="276.873,69.362 291.586,69.362 291.586,66.831 279.457,66.831 279.457,56.671 
		291.586,56.671 291.586,54.14 279.457,54.14 279.457,46.036 291.691,46.036 291.691,43.505 276.873,43.505 	"/>
	<path style="fill:#C7A462;" d="M304.979,57.356c2.168-0.012,3.867-0.29,5.098-0.836s2.177-1.353,2.839-2.42
		s0.993-2.306,0.993-3.714c0-1.689-0.48-3.112-1.441-4.269c-0.961-1.155-2.209-1.909-3.744-2.261
		c-1.02-0.235-2.965-0.353-5.836-0.353h-5.15v25.857h2.584V57.356h1.461l9.3,12.006h3.196L304.979,57.356z M300.32,54.825v-8.789
		h4.561c1.771,0,3.039,0.152,3.803,0.457c0.763,0.305,1.379,0.812,1.849,1.521s0.704,1.497,0.704,2.364
		c0,0.891-0.231,1.696-0.695,2.417s-1.109,1.245-1.938,1.573c-0.827,0.328-2.104,0.492-3.829,0.492L300.32,54.825z"/>
	<polygon style="fill:#C7A462;" points="132.845,89.236 138.61,89.236 138.61,112.563 141.247,112.563 141.247,89.236 
		147.013,89.236 147.013,86.705 132.845,86.705 	"/>
	<polygon style="fill:#C7A462;" points="167.895,97.551 154.729,97.551 154.729,86.705 152.145,86.705 152.145,112.563 
		154.729,112.563 154.729,100.082 167.895,100.082 167.895,112.563 170.479,112.563 170.479,86.705 167.895,86.705 	"/>
	<polygon style="fill:#C7A462;" points="178.229,112.563 192.941,112.563 192.941,110.031 180.813,110.031 180.813,99.871 
		192.941,99.871 192.941,97.34 180.813,97.34 180.813,89.236 193.047,89.236 193.047,86.705 178.229,86.705 	"/>
	<path style="fill:#C7A462;" d="M208.884,86.705l-12.217,25.857h2.883l4.028-8.508h11.139l4.067,8.508h2.791l-12.059-25.857H208.884
		z M204.76,101.559l4.431-9.359l4.409,9.359H204.76z"/>
	<polygon style="fill:#C7A462;" points="224.456,89.236 230.222,89.236 230.222,112.563 232.858,112.563 232.858,89.236 
		238.624,89.236 238.624,86.705 224.456,86.705 	"/>
	<path style="fill:#C7A462;" d="M256.271,99.721c1.23-0.546,2.177-1.353,2.839-2.42s0.993-2.306,0.993-3.714
		c0-1.689-0.48-3.112-1.441-4.269c-0.961-1.155-2.209-1.909-3.744-2.261c-1.02-0.235-2.965-0.353-5.836-0.353h-5.15v25.857h2.584
		v-12.006h1.461l9.3,12.006h3.196l-9.299-12.006C253.342,100.545,255.041,100.267,256.271,99.721z M246.516,98.025v-8.789h4.561
		c1.771,0,3.039,0.152,3.803,0.457c0.763,0.305,1.379,0.812,1.849,1.521s0.704,1.497,0.704,2.364c0,0.891-0.231,1.696-0.695,2.417
		s-1.109,1.245-1.938,1.573c-0.827,0.328-2.104,0.492-3.829,0.492L246.516,98.025z"/>
	<polygon style="fill:#C7A462;" points="267.098,112.563 281.811,112.563 281.811,110.031 269.682,110.031 269.682,99.871 
		281.811,99.871 281.811,97.34 269.682,97.34 269.682,89.236 281.916,89.236 281.916,86.705 267.098,86.705 	"/>
</g>
</svg>
