<?xml version="1.0" encoding="iso-8859-1"?>
<!-- Generator: Adobe Illustrator 19.1.0, SVG Export Plug-In . SVG Version: 6.00 Build 0)  -->
<svg version="1.1" id="Layer_1" xmlns="http://www.w3.org/2000/svg" xmlns:xlink="http://www.w3.org/1999/xlink" x="0px" y="0px"
	 viewBox="0 0 213 218" style="enable-background:new 0 0 213 218;" xml:space="preserve">
<g>
	<path style="fill:#C7A462;" d="M187.5,0h-162C11.439,0,0,11.439,0,25.5v162C0,201.561,11.439,213,25.5,213h19.48v-1H25.5
		C11.991,212,1,201.01,1,187.5v-162C1,11.991,11.991,1,25.5,1h162C201.01,1,212,11.991,212,25.5v162c0,13.51-10.99,24.5-24.5,24.5
		h-23.48v1h23.48c14.061,0,25.5-11.439,25.5-25.5v-162C213,11.439,201.561,0,187.5,0z"/>
	<g>
		<path style="fill:#C7A462;" d="M72.283,218c-1.82,0-3.246-0.574-4.277-1.723s-1.547-2.75-1.547-4.805
			c0-2.109,0.535-3.752,1.605-4.928s2.535-1.764,4.395-1.764c1.102,0,2.156,0.191,3.164,0.574l-0.316,1.031
			c-1.102-0.367-2.059-0.551-2.871-0.551c-1.563,0-2.746,0.482-3.551,1.447s-1.207,2.354-1.207,4.166
			c0,1.719,0.402,3.064,1.207,4.037s1.93,1.459,3.375,1.459c1.156,0,2.23-0.207,3.223-0.621v1.078
			C74.67,217.801,73.604,218,72.283,218z"/>
		<path style="fill:#C7A462;" d="M86.814,217.765l-0.293-2.016h-0.094c-0.641,0.82-1.299,1.4-1.975,1.74S82.979,218,82.057,218
			c-1.25,0-2.223-0.32-2.918-0.961s-1.043-1.527-1.043-2.66c0-1.242,0.518-2.207,1.553-2.895s2.533-1.051,4.494-1.09l2.426-0.07
			v-0.844c0-1.211-0.246-2.125-0.738-2.742s-1.285-0.926-2.379-0.926c-1.18,0-2.402,0.328-3.668,0.984l-0.434-1.008
			c1.398-0.656,2.781-0.984,4.148-0.984c1.398,0,2.443,0.363,3.135,1.09s1.037,1.859,1.037,3.398v8.473H86.814z M82.127,216.945
			c1.359,0,2.432-0.389,3.217-1.166s1.178-1.857,1.178-3.24v-1.254l-2.227,0.094c-1.789,0.086-3.064,0.365-3.826,0.838
			s-1.143,1.209-1.143,2.209c0,0.797,0.244,1.416,0.732,1.857S81.236,216.945,82.127,216.945z"/>
		<path style="fill:#C7A462;" d="M93.435,217.765h-1.16v-18.234h1.16V217.765z"/>
		<path style="fill:#C7A462;" d="M99.341,217.765h-1.16v-18.234h1.16V217.765z"/>
		<path style="fill:#C7A462;" d="M111.809,205.027v8.25c0,1.281,0.27,2.213,0.809,2.795s1.375,0.873,2.508,0.873
			c1.516,0,2.631-0.383,3.346-1.148s1.072-2.012,1.072-3.738v-7.031h1.148v12.738h-0.984l-0.211-1.758h-0.07
			c-0.828,1.328-2.301,1.992-4.418,1.992c-2.898,0-4.348-1.551-4.348-4.652v-8.32H111.809z"/>
		<path style="fill:#C7A462;" d="M133.335,214.449c0,1.141-0.434,2.018-1.301,2.631s-2.098,0.92-3.691,0.92
			c-1.703,0-3.055-0.262-4.055-0.785v-1.254c1.281,0.641,2.633,0.961,4.055,0.961c1.258,0,2.213-0.209,2.865-0.627
			s0.979-0.975,0.979-1.67c0-0.641-0.26-1.18-0.779-1.617s-1.373-0.867-2.561-1.289c-1.273-0.461-2.168-0.857-2.684-1.189
			s-0.904-0.707-1.166-1.125s-0.393-0.928-0.393-1.529c0-0.953,0.4-1.707,1.201-2.262s1.92-0.832,3.357-0.832
			c1.375,0,2.68,0.258,3.914,0.773l-0.434,1.055c-1.25-0.516-2.41-0.773-3.48-0.773c-1.039,0-1.863,0.172-2.473,0.516
			s-0.914,0.82-0.914,1.43c0,0.664,0.236,1.195,0.709,1.594s1.396,0.844,2.771,1.336c1.148,0.414,1.984,0.787,2.508,1.119
			s0.916,0.709,1.178,1.131S133.335,213.879,133.335,214.449z"/>
		<path style="fill:#C7A462;" d="M136.862,206.387c0-0.766,0.313-1.148,0.938-1.148c0.641,0,0.961,0.383,0.961,1.148
			c0,0.414-0.092,0.711-0.275,0.891s-0.412,0.27-0.686,0.27c-0.266,0-0.488-0.09-0.668-0.27S136.862,206.801,136.862,206.387z
			 M136.862,216.851c0-0.766,0.313-1.148,0.938-1.148c0.641,0,0.961,0.383,0.961,1.148S138.44,218,137.8,218
			C137.175,218,136.862,217.617,136.862,216.851z"/>
	</g>
	<path style="opacity:0.8;fill:none;stroke:#C7A462;stroke-miterlimit:10;" d="M81.904,149.359c-3.541,0-6.348-0.884-8.117-2.653
		c-0.507-0.507-1.053-1.01-1.6-1.546c-3.401-3.228-7.262-6.895-7.064-11.723c0.14-3.343,2.204-6.575,6.32-9.875
		c12.147-9.771,16.486-5.378,21.497-0.295l0.913,0.913c1.503,1.517,5.169-0.503,7.218-1.837c3.271-2.121,7.344-5.619,12.132-10.407
		c14.66-14.66,13.085-18.52,12.258-19.351l-0.913-0.899c-5.097-5.025-9.494-9.35,0.266-21.497c3.314-4.116,6.546-6.194,9.886-6.32
		c4.749-0.212,8.484,3.638,11.712,7.035c0.536,0.561,1.053,1.111,1.574,1.614c3.523,3.541,3.523,11.277-0.029,20.684
		c-3.918,10.364-11.629,21.641-21.738,31.749c-10.112,10.098-21.371,17.819-31.735,21.723
		C89.766,148.461,85.47,149.359,81.904,149.359L81.904,149.359z M135.039,66.737c-0.068,0-0.14,0-0.223,0
		c-2.416,0.097-5.029,1.866-7.754,5.252c-8.128,10.123-5.266,12.945-0.489,17.65l0.909,0.899
		c3.821,3.818-0.083,11.262-12.244,23.424c-4.928,4.928-9.17,8.563-12.596,10.799c-4.957,3.214-8.591,3.706-10.824,1.46
		l-0.928-0.928c-4.691-4.745-7.513-7.624-17.636,0.507c-3.386,2.707-5.155,5.32-5.252,7.75c-0.14,3.523,3.199,6.711,6.161,9.519
		c0.579,0.55,1.139,1.082,1.657,1.603c2.642,2.638,9.566,2.372,17.654-0.676c9.983-3.764,20.879-11.248,30.71-21.076
		c9.828-9.817,17.313-20.727,21.076-30.724c3.045-8.074,3.314-15.012,0.687-17.636c-0.532-0.521-1.068-1.096-1.629-1.672
		C141.581,69.994,138.479,66.737,135.039,66.737L135.039,66.737z M135.039,66.737 M81.397,99.187c-0.561,0-1.093-0.338-1.319-0.884
		c-2.275-5.59-0.981-11.949,3.286-16.205c4.368-4.378,11.094-5.615,16.737-3.059c0.73,0.324,1.039,1.179,0.719,1.909
		c-0.324,0.715-1.183,1.039-1.898,0.715c-4.562-2.049-9.997-1.068-13.534,2.459c-3.429,3.455-4.483,8.592-2.656,13.099
		c0.309,0.73-0.054,1.56-0.784,1.869C81.764,99.158,81.581,99.187,81.397,99.187L81.397,99.187z M81.397,99.187 M68.564,104.396
		c-0.561,0-1.111-0.334-1.334-0.884c-4.353-10.756-1.884-23.014,6.33-31.214c8.426-8.441,21.389-10.799,32.256-5.885
		c0.715,0.324,1.039,1.179,0.715,1.894c-0.334,0.733-1.179,1.039-1.909,0.733c-9.774-4.425-21.443-2.304-29.024,5.291
		c-7.387,7.387-9.634,18.409-5.701,28.1c0.309,0.73-0.058,1.571-0.787,1.866C68.927,104.371,68.747,104.396,68.564,104.396
		L68.564,104.396z M68.564,104.396"/>
</g>
</svg>
