<?xml version="1.0" encoding="iso-8859-1"?>
<!-- Generator: Adobe Illustrator 19.1.0, SVG Export Plug-In . SVG Version: 6.00 Build 0)  -->
<svg version="1.1" id="Layer_1" xmlns="http://www.w3.org/2000/svg" xmlns:xlink="http://www.w3.org/1999/xlink" x="0px" y="0px"
	 viewBox="0 0 45.533 37" style="enable-background:new 0 0 45.533 37;" xml:space="preserve">
<path style="fill:#C7A462;" d="M2.747,32.034c-2.055-3.189-2.48-7.228-2.48-9.567c0-9.425,4.677-17.575,14.953-22.394l1.346,2.622
	C10.613,5.176,5.511,11.271,5.511,16.94c0,1.276,0.142,2.197,0.425,3.047c1.417-1.134,3.331-1.913,5.386-1.913
	c5.031,0,9.283,3.472,9.283,9.283c0,5.386-4.252,9.283-9.283,9.283C7.07,36.641,4.518,34.798,2.747,32.034z M27.408,32.034
	c-2.055-3.189-2.48-7.228-2.48-9.567c0-9.425,4.677-17.575,14.953-22.394l1.346,2.622c-5.953,2.48-11.055,8.575-11.055,14.244
	c0,1.276,0.142,2.197,0.425,3.047c1.488-1.134,3.331-1.913,5.386-1.913c5.102,0,9.283,3.472,9.283,9.283
	c0,5.386-4.181,9.283-9.283,9.283C31.802,36.641,29.18,34.798,27.408,32.034z"/>
</svg>
