<?xml version="1.0" encoding="iso-8859-1"?>
<!-- Generator: Adobe Illustrator 19.1.0, SVG Export Plug-In . SVG Version: 6.00 Build 0)  -->
<svg version="1.1" id="Layer_1" xmlns="http://www.w3.org/2000/svg" xmlns:xlink="http://www.w3.org/1999/xlink" x="0px" y="0px"
	 viewBox="0 0 213 239" style="enable-background:new 0 0 213 239;" xml:space="preserve">
<g>
	<path style="fill:#C7A462;" d="M187.821,26H179v1h8.821C201.33,27,212,37.805,212,51.314v162c0,13.51-10.67,24.686-24.179,24.686
		h-162C12.312,238,1,226.824,1,213.314v-162C1,37.805,12.312,27,25.821,27H34v-1h-8.179C11.76,26,0,37.254,0,51.314v162
		C0,227.375,11.76,239,25.821,239h162C201.881,239,213,227.375,213,213.314v-162C213,37.254,201.881,26,187.821,26z"/>
	<g>
		<path style="fill:#C7A462;" d="M40.124,18.234h-1.195V1.102h9.387v1.102h-8.191v7.266h7.734v1.113h-7.734V18.234z"/>
		<path style="fill:#C7A462;" d="M61.217,11.848c0,2.078-0.504,3.701-1.512,4.869s-2.398,1.752-4.172,1.752
			c-1.117,0-2.102-0.27-2.953-0.809s-1.504-1.313-1.957-2.32s-0.68-2.172-0.68-3.492c0-2.078,0.504-3.697,1.512-4.857
			s2.391-1.74,4.148-1.74c1.75,0,3.123,0.588,4.119,1.764S61.217,9.801,61.217,11.848z M51.163,11.848
			c0,1.75,0.385,3.115,1.154,4.096s1.857,1.471,3.264,1.471s2.494-0.49,3.264-1.471s1.154-2.346,1.154-4.096
			c0-1.758-0.389-3.121-1.166-4.09s-1.869-1.453-3.275-1.453s-2.49,0.482-3.252,1.447S51.163,10.082,51.163,11.848z"/>
		<path style="fill:#C7A462;" d="M65.905,18.234h-1.16V0h1.16V18.234z"/>
		<path style="fill:#C7A462;" d="M71.331,18.234h-1.16V0h1.16V18.234z"/>
		<path style="fill:#C7A462;" d="M86.131,11.848c0,2.078-0.504,3.701-1.512,4.869s-2.398,1.752-4.172,1.752
			c-1.117,0-2.102-0.27-2.953-0.809s-1.504-1.313-1.957-2.32s-0.68-2.172-0.68-3.492c0-2.078,0.504-3.697,1.512-4.857
			s2.391-1.74,4.148-1.74c1.75,0,3.123,0.588,4.119,1.764S86.131,9.801,86.131,11.848z M76.077,11.848
			c0,1.75,0.385,3.115,1.154,4.096s1.857,1.471,3.264,1.471s2.494-0.49,3.264-1.471s1.154-2.346,1.154-4.096
			c0-1.758-0.389-3.121-1.166-4.09s-1.869-1.453-3.275-1.453s-2.49,0.482-3.252,1.447S76.077,10.082,76.077,11.848z"/>
		<path style="fill:#C7A462;" d="M99.842,18.234l-2.789-8.52c-0.18-0.578-0.41-1.426-0.691-2.543h-0.07l-0.246,0.867l-0.527,1.699
			l-2.836,8.496h-1.148L87.889,5.496h1.242l2.039,7.383c0.477,1.828,0.789,3.172,0.938,4.031h0.07
			c0.461-1.828,0.797-3.043,1.008-3.645l2.625-7.77h1.055l2.496,7.746c0.563,1.836,0.906,3.051,1.031,3.645h0.07
			c0.063-0.508,0.375-1.867,0.938-4.078l1.945-7.313h1.172l-3.457,12.738H99.842z"/>
		<path style="fill:#C7A462;" d="M114.257,5.496v8.25c0,1.281,0.27,2.213,0.809,2.795s1.375,0.873,2.508,0.873
			c1.516,0,2.631-0.383,3.346-1.148s1.072-2.012,1.072-3.738V5.496h1.148v12.738h-0.984l-0.211-1.758h-0.07
			c-0.828,1.328-2.301,1.992-4.418,1.992c-2.898,0-4.348-1.551-4.348-4.652v-8.32H114.257z"/>
		<path style="fill:#C7A462;" d="M135.304,14.918c0,1.141-0.434,2.018-1.301,2.631s-2.098,0.92-3.691,0.92
			c-1.703,0-3.055-0.262-4.055-0.785V16.43c1.281,0.641,2.633,0.961,4.055,0.961c1.258,0,2.213-0.209,2.865-0.627
			s0.979-0.975,0.979-1.67c0-0.641-0.26-1.18-0.779-1.617s-1.373-0.867-2.561-1.289c-1.273-0.461-2.168-0.857-2.684-1.189
			s-0.904-0.707-1.166-1.125s-0.393-0.928-0.393-1.529c0-0.953,0.4-1.707,1.201-2.262s1.92-0.832,3.357-0.832
			c1.375,0,2.68,0.258,3.914,0.773l-0.434,1.055c-1.25-0.516-2.41-0.773-3.48-0.773c-1.039,0-1.863,0.172-2.473,0.516
			s-0.914,0.82-0.914,1.43c0,0.664,0.236,1.195,0.709,1.594s1.396,0.844,2.771,1.336c1.148,0.414,1.984,0.787,2.508,1.119
			s0.916,0.709,1.178,1.131S135.304,14.348,135.304,14.918z"/>
		<path style="fill:#C7A462;" d="M155.354,11.848c0,2.078-0.504,3.701-1.512,4.869s-2.398,1.752-4.172,1.752
			c-1.117,0-2.102-0.27-2.953-0.809s-1.504-1.313-1.957-2.32s-0.68-2.172-0.68-3.492c0-2.078,0.504-3.697,1.512-4.857
			s2.391-1.74,4.148-1.74c1.75,0,3.123,0.588,4.119,1.764S155.354,9.801,155.354,11.848z M145.3,11.848
			c0,1.75,0.385,3.115,1.154,4.096s1.857,1.471,3.264,1.471s2.494-0.49,3.264-1.471s1.154-2.346,1.154-4.096
			c0-1.758-0.389-3.121-1.166-4.09s-1.869-1.453-3.275-1.453s-2.49,0.482-3.252,1.447S145.3,10.082,145.3,11.848z"/>
		<path style="fill:#C7A462;" d="M167.765,18.234V9.973c0-1.281-0.27-2.213-0.809-2.795s-1.375-0.873-2.508-0.873
			c-1.523,0-2.639,0.385-3.346,1.154s-1.061,2.018-1.061,3.744v7.031h-1.16V5.496h0.984l0.223,1.746h0.07
			c0.828-1.328,2.301-1.992,4.418-1.992c2.891,0,4.336,1.551,4.336,4.652v8.332H167.765z"/>
		<path style="fill:#C7A462;" d="M76.739,43.234h-1.207V27.227h-5.566v-1.125h12.34v1.125h-5.566V43.234z"/>
		<path style="fill:#C7A462;" d="M94.739,43.234l-2.789-8.52c-0.18-0.578-0.41-1.426-0.691-2.543h-0.07l-0.246,0.867l-0.527,1.699
			l-2.836,8.496H86.43l-3.645-12.738h1.242l2.039,7.383c0.477,1.828,0.789,3.172,0.938,4.031h0.07
			c0.461-1.828,0.797-3.043,1.008-3.645l2.625-7.77h1.055l2.496,7.746c0.563,1.836,0.906,3.051,1.031,3.645h0.07
			c0.063-0.508,0.375-1.867,0.938-4.078l1.945-7.313h1.172l-3.457,12.738H94.739z"/>
		<path style="fill:#C7A462;" d="M101.747,26.957c0-0.75,0.246-1.125,0.738-1.125c0.242,0,0.432,0.098,0.568,0.293
			s0.205,0.473,0.205,0.832c0,0.352-0.068,0.629-0.205,0.832s-0.326,0.305-0.568,0.305
			C101.993,28.094,101.747,27.715,101.747,26.957z M103.071,43.234h-1.16V30.496h1.16V43.234z"/>
		<path style="fill:#C7A462;" d="M110.7,42.438c0.734,0,1.375-0.063,1.922-0.188v0.938c-0.563,0.188-1.211,0.281-1.945,0.281
			c-1.125,0-1.955-0.301-2.49-0.902s-0.803-1.547-0.803-2.836v-8.227h-1.887v-0.68l1.887-0.527l0.586-2.883h0.598v3.082h3.738v1.008
			h-3.738v8.063c0,0.977,0.172,1.699,0.516,2.168S109.966,42.438,110.7,42.438z"/>
		<path style="fill:#C7A462;" d="M118.739,42.438c0.734,0,1.375-0.063,1.922-0.188v0.938c-0.563,0.188-1.211,0.281-1.945,0.281
			c-1.125,0-1.955-0.301-2.49-0.902s-0.803-1.547-0.803-2.836v-8.227h-1.887v-0.68l1.887-0.527l0.586-2.883h0.598v3.082h3.738v1.008
			h-3.738v8.063c0,0.977,0.172,1.699,0.516,2.168S118.005,42.438,118.739,42.438z"/>
		<path style="fill:#C7A462;" d="M128.56,43.469c-1.852,0-3.295-0.57-4.33-1.711s-1.553-2.738-1.553-4.793
			c0-2.031,0.5-3.658,1.5-4.881s2.348-1.834,4.043-1.834c1.5,0,2.684,0.523,3.551,1.57s1.301,2.469,1.301,4.266v0.938h-9.176
			c0.016,1.75,0.424,3.086,1.225,4.008s1.947,1.383,3.439,1.383c0.727,0,1.365-0.051,1.916-0.152s1.248-0.32,2.092-0.656v1.055
			c-0.719,0.313-1.383,0.525-1.992,0.639S129.294,43.469,128.56,43.469z M128.22,31.281c-1.227,0-2.211,0.404-2.953,1.213
			s-1.176,1.975-1.301,3.498h7.875c0-1.477-0.32-2.631-0.961-3.463S129.353,31.281,128.22,31.281z"/>
		<path style="fill:#C7A462;" d="M141.603,30.25c0.539,0,1.117,0.055,1.734,0.164l-0.223,1.113
			c-0.531-0.133-1.082-0.199-1.652-0.199c-1.086,0-1.977,0.461-2.672,1.383s-1.043,2.086-1.043,3.492v7.031h-1.16V30.496h0.984
			l0.117,2.297h0.082c0.523-0.938,1.082-1.596,1.676-1.975S140.759,30.25,141.603,30.25z"/>
	</g>
	<path style="fill:none;stroke:#C7A462;stroke-miterlimit:10;" d="M85.968,176.051c-10.811,0-21.521-2.993-30.97-8.652l-6.736-4.035
		l7.85,0.132c0.254,0.013,0.664,0.034,1.308,0.034c2.988,0,12.507-0.48,22.268-5.99c-7.337-2.181-13.4-7.853-15.896-15.278
		l-1.238-3.678l3.37,0.876c-5.399-4.148-8.931-10.524-9.317-17.63l-0.185-3.401l3.122,1.363c0.57,0.25,1.149,0.471,1.736,0.662
		c-4.434-6.208-7.119-15.8-1.522-25.99l1.541-2.806l1.959,2.534c9.388,12.137,23.306,19.536,38.484,20.553
		c-0.093-0.943-0.156-1.811-0.156-2.081c0-11.266,8.571-22.916,22.914-22.916c6.021,0,11.818,2.391,16.086,6.602
		c5.723-1.343,11.192-4.681,11.251-4.716l4.959-3.053l-1.873,5.517c-0.899,2.641-2.267,5.075-4.024,7.2
		c0.959-0.312,1.899-0.671,2.867-1.094l5.957-2.91l-2.503,5.377c-2.066,4.44-5.512,8.105-9.792,10.449
		c0.94,14.702-5.105,31.105-15.982,43.151c-8.072,8.944-22.448,19.632-45.096,19.777L85.968,176.051z M63.895,167.248
		c7.001,3.022,14.511,4.6,22.07,4.6l0.359-0.002c21.118-0.136,34.5-10.077,42.007-18.392c10.466-11.594,16.14-27.447,14.804-41.374
		l-0.14-1.478l1.343-0.625c2.131-0.994,4.039-2.374,5.643-4.051c-1.793,0.453-3.706,0.792-5.913,1.058l-1.61,0.195l-1.256-3.183
		l1.461-1.125c2.047-1.2,3.832-2.762,5.275-4.592c-2.282,0.973-4.976,1.924-7.671,2.427l-1.151,0.214l-0.788-0.865
		c-3.54-3.885-8.579-6.112-13.828-6.112c-11.714,0-18.715,9.515-18.715,18.717c0,0.555,0.278,3.089,0.375,3.74l0.954,2.711
		l-3.033-0.066c-16.253-0.351-31.375-7.473-41.991-19.664c-4.199,11.03,2.853,19.841,6.221,22.48l4.924,3.863l-6.256-0.11
		c-1.959-0.033-3.875-0.3-5.734-0.796c1.653,7.371,7.478,13.293,15.045,14.919l8.285,1.78l-8.156,2.296
		c-1.421,0.399-3.034,0.6-4.794,0.6c-0.823,0-1.611-0.045-2.337-0.112c3.281,5.776,9.39,9.656,16.146,9.986l5.905,0.29l-4.761,3.499
		C78.417,164.08,69.95,166.391,63.895,167.248L63.895,167.248z M63.895,167.248"/>
</g>
</svg>
