<?xml version="1.0" encoding="iso-8859-1"?>
<!-- Generator: Adobe Illustrator 19.1.0, SVG Export Plug-In . SVG Version: 6.00 Build 0)  -->
<svg version="1.1" id="Layer_1" xmlns="http://www.w3.org/2000/svg" xmlns:xlink="http://www.w3.org/1999/xlink" x="0px" y="0px"
	 viewBox="0 0 29.723 23.326" style="enable-background:new 0 0 29.723 23.326;" xml:space="preserve">
<path style="fill:#FFFFFF;" d="M10.055,23.326c-2.883,0-5.739-0.798-8.259-2.307L0,19.942l2.093,0.035
	c0.068,0.003,0.177,0.009,0.349,0.009c0.797,0,3.335-0.128,5.938-1.597c-1.957-0.582-3.573-2.094-4.239-4.074l-0.33-0.981
	l0.899,0.234c-1.44-1.106-2.382-2.806-2.485-4.701L2.176,7.96l0.833,0.363C3.16,8.39,3.315,8.449,3.471,8.5
	C2.289,6.844,1.573,4.286,3.065,1.569l0.411-0.748l0.522,0.676c2.503,3.236,6.215,5.21,10.263,5.481
	c-0.025-0.251-0.042-0.483-0.042-0.555c0-3.004,2.286-6.111,6.11-6.111c1.606,0,3.151,0.638,4.289,1.761
	c1.526-0.358,2.985-1.248,3-1.258L28.942,0l-0.499,1.471c-0.24,0.704-0.605,1.353-1.073,1.92c0.256-0.083,0.506-0.179,0.765-0.292
	l1.589-0.776l-0.668,1.434c-0.551,1.184-1.47,2.161-2.611,2.786c0.251,3.921-1.361,8.295-4.262,11.507
	c-2.152,2.385-5.986,5.235-12.026,5.274L10.055,23.326z M4.169,20.978c1.867,0.806,3.87,1.227,5.885,1.227l0.096,0
	c5.631-0.036,9.2-2.687,11.202-4.905c2.791-3.092,4.304-7.319,3.948-11.033l-0.037-0.394l0.358-0.167
	c0.568-0.265,1.077-0.633,1.505-1.08c-0.478,0.121-0.988,0.211-1.577,0.282L25.119,4.96l-0.335-0.849l0.39-0.3
	c0.546-0.32,1.022-0.736,1.407-1.224c-0.608,0.259-1.327,0.513-2.046,0.647l-0.307,0.057l-0.21-0.231
	c-0.944-1.036-2.288-1.63-3.688-1.63c-3.124,0-4.991,2.537-4.991,4.991c0,0.148,0.074,0.824,0.1,0.997l0.254,0.723l-0.809-0.018
	C10.551,8.03,6.519,6.131,3.688,2.88c-1.12,2.941,0.761,5.291,1.659,5.995l1.313,1.03L4.991,9.876
	c-0.522-0.009-1.033-0.08-1.529-0.212c0.441,1.966,1.994,3.545,4.012,3.979l2.209,0.475l-2.175,0.612
	c-0.379,0.106-0.809,0.16-1.278,0.16c-0.219,0-0.43-0.012-0.623-0.03c0.875,1.54,2.504,2.575,4.306,2.663l1.575,0.077l-1.27,0.933
	C8.041,20.133,5.783,20.75,4.169,20.978L4.169,20.978z M4.169,20.978"/>
</svg>
